<svg width="43" height="21" viewBox="0 0 43 21" fill="none" xmlns="http://www.w3.org/2000/svg">
<g id="Group">
<path id="Vector" d="M4.75 6.94995C5.28 7.73995 6.90997 10.51 7.27997 11.2L6.54999 12.04C6.25999 11.31 5.38 9.63995 4.75 8.44995V19.98H3.73999V8.40991C2.94999 11.2299 1.79997 14.11 0.659973 15.76C0.529973 15.45 0.24 15.0598 0 14.8098C1.41 12.8898 2.87998 9.12992 3.53998 5.91992H0.719971V4.92993H3.72998V0.0898438H4.73999V4.92993H7.35999V5.91992H4.73999V6.94995H4.75ZM17.16 9.34985C16.54 11.5499 15.6 13.4598 14.32 15.0898C15.95 16.8498 17.91 18.1899 20.15 18.9399C19.89 19.1599 19.56 19.5599 19.4 19.8599C17.2 19.0199 15.26 17.6399 13.66 15.8999C12.16 17.5699 10.29 18.94 8.01001 20.02C7.86001 19.8 7.53 19.43 7.31 19.27C9.6 18.19 11.53 16.8099 12.99 15.1099C11.69 13.4999 10.64 11.61 9.87 9.52002L10.77 9.22998C11.47 11.1 12.44 12.8398 13.65 14.3098C14.82 12.8098 15.63 11.0499 16.11 9.09985L17.17 9.33984L17.16 9.34985ZM12.01 5.71997C11.11 7.45997 9.68001 9.32992 8.20001 10.6699C8.02001 10.4699 7.69001 10.2298 7.45001 10.0798C8.90001 8.79983 10.31 6.90981 11.04 5.30981L12.01 5.72998V5.71997ZM19.89 4.3999H7.91998V3.40991H19.89V4.3999ZM13.75 3.18994C13.4 2.41994 12.63 1.24994 11.88 0.439941L12.72 0C13.51 0.81 14.3 1.90996 14.66 2.70996L13.76 3.18994H13.75ZM15.86 5.23999C17.31 6.66999 18.98 8.62993 19.75 9.92993L18.94 10.5498C18.21 9.2498 16.54 7.21002 15.07 5.77002L15.86 5.23999Z" fill="#53422D"/>
<path id="Vector_2" d="M27.3002 11.6799V18.2998L33.9202 16.6099C33.9202 16.8999 33.9202 17.31 33.9402 17.53C27.4502 19.31 26.3102 19.6199 25.8202 19.8799L25.7102 19.97C25.6402 19.71 25.4002 19.1999 25.1802 18.9399C25.5502 18.7399 26.2602 18.2999 26.2602 17.4399V11.6799H22.4302V10.6899H26.4102V1.01001H39.8502V1.95996H27.4602V4.29004H39.1002V5.18994H27.4602V7.45996H39.1002V8.37988H27.4602V10.6899H41.8901V11.6799H32.0502C32.7102 13.0699 33.6101 14.28 34.7601 15.29C36.4501 14.39 38.5902 13.1299 39.8402 12.1399L40.7202 12.71C39.2002 13.81 37.1802 15.0199 35.4602 15.8599C37.3102 17.3299 39.6602 18.3198 42.4102 18.8298C42.1702 19.0698 41.9001 19.49 41.7501 19.75C36.6501 18.67 32.9002 15.8999 30.9902 11.6699H27.2702L27.3002 11.6799Z" fill="#53422D"/>
</g>
</svg>
