<svg width="20" height="20" viewBox="0 0 20 20" fill="none" xmlns="http://www.w3.org/2000/svg">
<g id="Date icon 1" clip-path="url(#clip0_3362_4866)">
<g id="Group">
<path id="Vector" d="M18.75 2.41675H16.5833V5.75008C16.5833 6.66675 15.8333 7.41675 14.9167 7.41675C14 7.41675 13.25 6.66675 13.25 5.75008V2.41675H6.75V5.75008C6.75 6.66675 6 7.41675 5.08333 7.41675C4.16667 7.41675 3.41667 6.66675 3.41667 5.75008V2.41675H1.25C0.583333 2.41675 0 3.00008 0 3.66675V18.7501C0 19.4167 0.583333 20.0001 1.25 20.0001H18.75C19.4167 20.0001 20 19.4167 20 18.7501V3.66675C20 3.00008 19.4167 2.41675 18.75 2.41675ZM18.3333 18.3334H1.66667V10.1667H18.3333V18.3334Z" fill="#972232"/>
<path id="Vector_2" d="M5.08333 6.58333C5.58333 6.58333 5.91667 6.16667 5.91667 5.75V0.833333C5.91667 0.333333 5.5 0 5.08333 0C4.66667 0 4.25 0.416667 4.25 0.833333V5.75C4.25 6.16667 4.58333 6.58333 5.08333 6.58333Z" fill="#972232"/>
<path id="Vector_3" d="M14.9167 6.58333C15.4167 6.58333 15.75 6.16667 15.75 5.75V0.833333C15.75 0.333333 15.3333 0 14.9167 0C14.5 0 14.0833 0.416667 14.0833 0.833333V5.75C14.0833 6.16667 14.4167 6.58333 14.9167 6.58333Z" fill="#972232"/>
</g>
</g>
<defs>
<clipPath id="clip0_3362_4866">
<rect width="20" height="20" fill="white"/>
</clipPath>
</defs>
</svg>
