<svg width="20" height="19" viewBox="0 0 20 19" fill="none" xmlns="http://www.w3.org/2000/svg">
<g id="6RlW0e">
<g id="Group">
<path id="Vector" d="M17.7054 16.7501C17.2653 16.7501 16.8251 16.7565 16.3854 16.7467C16.2411 16.7434 16.1805 16.7928 16.1237 16.9231C15.6443 18.0216 14.5075 18.6631 13.3006 18.5273C12.139 18.3967 11.1704 17.4986 10.9471 16.3455C10.6875 15.0038 11.4982 13.6781 12.8302 13.2654C14.1386 12.8599 15.5675 13.5035 16.1169 14.7564C16.1809 14.9019 16.2484 14.9517 16.4085 14.9501C17.3028 14.9416 18.1972 14.942 19.0911 14.9479C19.5577 14.9509 19.9138 15.2668 19.9868 15.7213C20.0538 16.1395 19.7964 16.5636 19.381 16.6943C19.255 16.7336 19.1163 16.7459 18.9831 16.748C18.5575 16.7543 18.1314 16.7505 17.7054 16.7505V16.7501Z" fill="#8A6E4A"/>
<path id="Vector_2" d="M2.28057 8.64745C2.71345 8.64745 3.14675 8.64111 3.57963 8.65083C3.73374 8.65422 3.81272 8.61574 3.87889 8.46351C4.33994 7.40301 5.45245 6.74971 6.59783 6.85035C7.78889 6.9548 8.76009 7.79246 9.02733 8.94556C9.33769 10.2847 8.57652 11.6467 7.26721 12.0928C5.94125 12.5448 4.48808 11.9448 3.91176 10.686C3.81699 10.4792 3.70685 10.4344 3.50065 10.4365C2.62764 10.4458 1.75462 10.4445 0.881607 10.4365C0.495688 10.4331 0.183195 10.1972 0.0564052 9.84622C-0.069531 9.49822 0.0312179 9.11089 0.312547 8.86733C0.491419 8.71257 0.701455 8.64491 0.938812 8.64661C1.38621 8.64957 1.83317 8.64745 2.28057 8.64745Z" fill="#8A6E4A"/>
<path id="Vector_3" d="M14.5497 3.24064C14.557 1.74038 15.7681 0.539921 17.2682 0.545418C18.7901 0.551337 20.0089 1.75941 20 3.2546C19.991 4.73921 18.7658 5.94517 17.2648 5.94602C15.7711 5.94686 14.5429 4.72314 14.5497 3.24107V3.24064Z" fill="#8A6E4A"/>
<path id="Vector_4" d="M6.38138 4.14246C4.57175 4.14246 2.76253 4.14415 0.952895 4.14162C0.320653 4.14077 -0.110519 3.62363 0.0303592 3.03503C0.114459 2.68322 0.34584 2.45996 0.699315 2.37158C0.807748 2.34452 0.924293 2.33987 1.03699 2.33987C4.59224 2.33818 8.14705 2.33775 11.7023 2.34114C11.8419 2.34114 11.9883 2.35636 12.1202 2.39907C12.5262 2.53015 12.7777 2.94327 12.7217 3.35724C12.665 3.77543 12.3187 4.10441 11.8957 4.13908C11.818 4.14542 11.7399 4.14289 11.6617 4.14289C9.90205 4.14289 8.14236 4.14289 6.38224 4.14289L6.38138 4.14246Z" fill="#8A6E4A"/>
<path id="Vector_5" d="M4.54999 14.946C5.75684 14.946 6.9637 14.9439 8.17012 14.9472C8.58294 14.9485 8.9219 15.1938 9.04485 15.5642C9.16609 15.9295 9.05338 16.346 8.72424 16.5549C8.55433 16.6627 8.33107 16.7405 8.1317 16.7418C5.73934 16.7545 3.34741 16.7524 0.955047 16.7481C0.407331 16.7469 0.00177394 16.3532 6.63297e-05 15.8479C-0.00164128 15.332 0.409893 14.9472 0.972123 14.9464C2.16489 14.9447 3.35723 14.946 4.54999 14.946Z" fill="#8A6E4A"/>
<path id="Vector_6" d="M15.4569 8.64746C16.6565 8.64746 17.8561 8.64365 19.0557 8.64915C19.6828 8.65211 20.0995 9.1553 19.9739 9.74009C19.8916 10.1228 19.5611 10.4082 19.1667 10.4361C19.1099 10.4403 19.0531 10.4408 18.9963 10.4408C16.6326 10.4408 14.2688 10.4416 11.9051 10.4408C11.3753 10.4408 11.018 10.171 10.9292 9.71346C10.8241 9.17179 11.2143 8.66776 11.7727 8.65338C12.3546 8.63816 12.9369 8.64788 13.5188 8.64788C14.1647 8.64746 14.8106 8.64788 15.4565 8.64788L15.4569 8.64746Z" fill="#8A6E4A"/>
</g>
</g>
</svg>
