<svg width="20" height="21" viewBox="0 0 20 21" fill="none" xmlns="http://www.w3.org/2000/svg">
<g id="Search icon 1" clip-path="url(#clip0_3526_7715)">
<path id="Vector" d="M19.6667 18.2952L14.1667 12.7952C15.1667 11.4618 15.75 9.79517 15.75 7.96183C15.8333 3.6285 12.25 0.045166 7.91667 0.045166C3.58333 0.045166 0 3.6285 0 7.96183C0 12.3785 3.5 15.8785 7.91667 15.8785C9.75 15.8785 11.4167 15.2952 12.75 14.2118L18.25 19.7118C18.4167 19.8785 18.75 20.0452 19 20.0452C19.25 20.0452 19.5 19.9618 19.75 19.7118C20.0833 19.2952 20.0833 18.7118 19.6667 18.2952ZM7.91667 13.7952C4.66667 13.7952 2.08333 11.2118 2.08333 7.96183C2.08333 4.71183 4.66667 2.1285 7.91667 2.1285C11.1667 2.1285 13.75 4.71183 13.75 7.96183C13.75 11.2118 11.1667 13.7952 7.91667 13.7952Z" fill="#9A7B52"/>
</g>
<defs>
<clipPath id="clip0_3526_7715">
<rect width="20" height="20" fill="white" transform="translate(0 0.045166)"/>
</clipPath>
</defs>
</svg>
