<svg width="24" height="24" viewBox="0 0 24 24" fill="none" xmlns="http://www.w3.org/2000/svg">
<g id="Icon/24px/faq">
<path id="Vector" d="M12.5883 21.9999H2.62999C2.16318 21.8406 1.99845 21.5084 2.00001 21.025C2.01018 18.0442 2.00666 15.0629 2.00471 12.0821C2.00353 10.3989 2.35256 8.794 3.17349 7.32255C5.00903 4.03331 7.82475 2.24996 11.585 2.01828C13.3881 1.90714 15.1086 2.30396 16.6941 3.17587C19.5149 4.72677 21.2366 7.094 21.8427 10.2608C21.9155 10.6415 21.9487 11.0305 22 11.4152V12.5869C21.9887 12.6429 21.9707 12.6988 21.9667 12.7552C21.8693 14.1499 21.5015 15.4719 20.8269 16.694C19.2723 19.5117 16.9093 21.2352 13.7442 21.8418C13.3627 21.915 12.9737 21.9478 12.5883 21.9995V21.9999ZM3.56713 20.4376H3.82733C6.49554 20.4376 9.16374 20.4408 11.8319 20.4345C12.2471 20.4333 12.6658 20.4149 13.077 20.3601C15.631 20.0193 17.625 18.7521 19.0508 16.624C20.2028 14.9048 20.6305 12.9884 20.3625 10.9346C20.0283 8.37174 18.7511 6.37354 16.6155 4.94592C14.895 3.79615 12.9792 3.3782 10.9249 3.64001C8.71258 3.92217 6.89778 4.94983 5.48249 6.65726C4.17089 8.23947 3.56047 10.0835 3.56595 12.1384C3.5726 14.8199 3.56752 17.5014 3.56752 20.1829V20.4376H3.56713Z" fill="#972232"/>
<path id="Vector_2" d="M11.9052 7.46899C12.6123 7.48152 13.3154 7.62671 13.9274 8.07949C14.7522 8.68999 15.0023 9.75326 14.5519 10.6764C14.3018 11.1891 13.9466 11.6125 13.5193 11.9827C13.3033 12.1702 13.0826 12.3533 12.8803 12.5549C12.6459 12.7877 12.5273 13.0812 12.5062 13.4115C12.4945 13.5931 12.4843 13.7751 12.4769 13.9571C12.4671 14.1997 12.3286 14.3574 12.1095 14.4028C11.8907 14.4482 11.6571 14.4643 11.4353 14.4412C11.1422 14.4102 10.9935 14.2384 10.9602 13.9089C10.862 12.931 11.1074 12.0806 11.9052 11.4396C12.1885 11.2118 12.4726 10.9805 12.7246 10.7203C12.8584 10.5817 12.9621 10.388 13.0141 10.201C13.1667 9.65347 12.8697 9.18817 12.2867 9.08289C12.005 9.03202 11.7056 9.04728 11.4177 9.07194C11.1434 9.09542 10.9164 9.24295 10.7458 9.46445C10.6707 9.56229 10.5991 9.66326 10.5247 9.76148C10.2907 10.0703 10.0204 10.1458 9.67094 10.001C9.33403 9.86127 9.14622 9.54233 9.20647 9.18777C9.3313 8.45166 9.82119 8.02548 10.4629 7.73863C10.9094 7.53904 11.3852 7.47604 11.9056 7.46899H11.9052Z" fill="#972232"/>
<path id="Vector_3" d="M10.6678 16.4523C10.6701 15.877 11.1452 15.398 11.7047 15.4066C12.2697 15.4152 12.7448 15.897 12.7432 16.4593C12.7416 17.0209 12.2588 17.5034 11.6973 17.5038C11.1315 17.5046 10.6654 17.0283 10.6678 16.4519V16.4523Z" fill="#972232"/>
</g>
</svg>
