<?xml version="1.0" encoding="UTF-8"?>
<svg id="_圖層_1" data-name="圖層 1" xmlns="http://www.w3.org/2000/svg" xmlns:xlink="http://www.w3.org/1999/xlink" version="1.1" viewBox="0 0 1000 565">
  <defs>
    <style>
      .cls-1 {
        clip-path: url(#clippath);
      }

      .cls-2, .cls-3, .cls-4, .cls-5, .cls-6, .cls-7, .cls-8, .cls-9 {
        stroke-width: 0px;
      }

      .cls-2, .cls-10 {
        fill: none;
      }

      .cls-3 {
        fill: #f0ece3;
      }

      .cls-4 {
        fill: #f2eee5;
      }

      .cls-5 {
        fill: #8a6e4a;
      }

      .cls-10 {
        stroke: #9a7b52;
        stroke-width: 3px;
      }

      .cls-11 {
        opacity: .5;
      }

      .cls-6 {
        fill: #e0d5c1;
      }

      .cls-7 {
        fill: #cec0ac;
      }

      .cls-8 {
        fill: #fff;
      }

      .cls-9 {
        fill: #f7f7f7;
      }
    </style>
    <clipPath id="clippath">
      <rect class="cls-2" x="0" y="76" width="1000" height="489" rx="60" ry="60"/>
    </clipPath>
  </defs>
  <g class="cls-1">
    <rect class="cls-3" x="-10.3" y="61.5" width="1011.6" height="517"/>
    <g class="cls-11">
      <g>
        <polygon class="cls-9" points="665.5 497.2 668.7 398.3 628.1 391.5 514.6 366.5 494.8 379.1 499.9 493.3 509.6 497.2 513 497.2 515.7 424.3 543.1 417.9 628.7 417.2 655.1 420.4 653.6 496.2 665.5 497.2"/>
        <path class="cls-8" d="M694.6,369.5s-136.1-21.4-182.1-1.9l2.6,127.1h29.1l.9-7.7-2.7-91.7,17.1-3.5s72.2-6.7,109.2,6.4l-3.2,98.9,33.2-1s-6.4-62-4.2-84,.1-42.7.1-42.7Z"/>
        <g>
          <path class="cls-6" d="M508.3,366.5c.3,16.9.7,33.8,1.3,50.6.5,16.8,1.1,33.6,1.8,50.4s.8,19.1,1.3,28.7,5.2,3.2,5,0c-.8-16.9-1.5-33.7-2.2-50.6s-1.1-33.6-1.6-50.4c-.2-9.6-.5-19.1-.6-28.7s-5.1-3.2-5,0h0Z"/>
          <path class="cls-6" d="M511.5,369c3.5-1.2,7.2-2,10.8-2.7s4.5-.8,6.8-1.2,5-.7,7.1-1c12.1-1.5,24.2-2.4,36.4-2.9s28-.7,42-.3c14,.4,28.1,1.2,42,2.9,12.1,1.4,24.3,3.4,36.1,6.6s2.5.7,3.8,1.1l-1.8-2.4c-1.5,16.6-2.5,33.3-2.8,50-.3,16.3.2,32.6,1.4,48.8s1.7,19.1,2.9,28.6,1,2.5,2.5,2.5,2.7-1.2,2.5-2.5c-2.1-16.6-3.5-33.2-4.1-49.9s-.4-32.6.5-48.8,1.2-19.1,2.1-28.6-.9-2.1-1.8-2.4c-11.7-3.6-23.9-5.7-36.1-7.3s-27.8-2.8-41.8-3.3-28.3-.5-42.5,0c-12.6.4-25.1,1.2-37.6,2.7-9.2,1.1-18.4,2.3-27.3,4.8s-1.6.5-2.4.7c-3,1-1.7,5.8,1.3,4.8h0Z"/>
          <path class="cls-6" d="M548.3,493.7c-2.7-24.4-4-48.9-5.6-73.4-.4-6.5-.8-13.1.2-19.5s.2-1.2.3-1.8.4-1.1.3-1.4,0-.1,0,0c0,.3-.8.3,0,.1s1.1-.3,1.6-.4c2.1-.6,4.2-1,6.4-1.5,9-1.8,18.3-2.7,27.5-3.2,19.1-.9,38.3,0,57.2,2.2,7.3.8,14.2,1.8,21.5,3.1s5.1,1,7.7,1.6,1.6.5,1.6.5l-.4-.6c0,.3,0,.5,0,.8,0,.3,0,.6,0,.9,0,.9-.1,1.7-.2,2.6-.2,3-.5,6.1-.7,9.1-1.7,25.2-2.3,50.4-2.5,75.6,0,2.9,0,5.9,0,8.8s5,3.2,5,0c0-25.8.5-51.6,2.1-77.4s.8-12.6,1.4-18.9.1-3.4-1.2-4.6-2-1.2-3.2-1.5-2.3-.6-3.5-.8c-6.8-1.4-13.6-2.5-20.5-3.4-19.1-2.5-38.4-3.7-57.6-3.3-10,.2-20,1-29.9,2.6s-8.7,1.6-13,2.8-2.4.8-3.2,2-.9,2.2-1.1,3.4c-.5,3.3-.9,6.7-1,10-.2,6.8.5,13.7.9,20.5.4,6.3.8,12.6,1.2,18.9.8,12,1.6,24.1,2.8,36.1.3,3.3.7,6.7,1.1,10s1,2.5,2.5,2.5,2.7-1.1,2.5-2.5h0Z"/>
          <path class="cls-6" d="M541.6,423.3c15.9-3,32.1-4.7,48.3-5.1s32.5.5,48.5,2.7,18.2,3,27.2,5.1,4.5-4.1,1.3-4.8c-16.1-3.8-32.6-6.3-49.2-7.4s-33.1-.9-49.5.7c-9.4.9-18.8,2.2-28,4s-2.1,1.8-1.7,3.1,1.7,2,3.1,1.7h0Z"/>
          <path class="cls-6" d="M651.5,424.3c-.6,18.6-.9,37.2-.7,55.8,0,5.4.2,10.7.3,16.1s5.1,3.2,5,0c-.4-18.6-.5-37.2,0-55.9s.3-10.7.5-16.1-4.9-3.2-5,0h0Z"/>
          <path class="cls-7" d="M555.5,520.4c0-5.3-.9-10.7-1.7-16-.5-3.4-1-6.9-1.6-10.3s-1.4-1.8-2.4-1.8c-13.4-.1-26.8,1.5-40.1,2.4-1.4.1-2.5,1.1-2.5,2.5-.2,8-.5,16-.7,24s0,2.3,0,3.4.8,2.2,1.8,2.4c6.9,1.3,14.1.5,21-.3s13.6-1.9,20.4-3.2,2.7-.5,4.1-.8c3.1-.7,1.8-5.5-1.3-4.8-10.9,2.3-21.8,4.1-32.8,4.6-1.9,0-3.7.1-5.6,0s-1.7,0-2.5-.2-.7,0-1.1-.1c.5,0,0,0,0,0-.2,0-.5,0-.7-.1l1.8,2.4c.2-8,.5-16,.7-24s0-2.3,0-3.4l-2.5,2.5c13.4-1,26.7-2.5,40.1-2.4l-2.4-1.8c.6,3.3,1.1,6.6,1.6,10,.7,4.9,1.5,9.9,1.5,15s5,3.2,5,0Z"/>
          <path class="cls-7" d="M646.8,496.2c-1,8.1-2.2,16.4-1.8,24.5s.7,2.2,1.8,2.4c7.7,1.3,15.4,2.6,23.2,3.5s2.5-1.3,2.5-2.5c0-7.6-.2-15.2-.3-22.7s0-2.2,0-3.3-.8-2.2-1.8-2.4c-6.9-1.1-14-1.8-21-2s-3.2,4.9,0,5,8,.5,12,.9,3.5.4,5.2.6,1.2.2,1.9.2.2,0,.3,0c0,0-.6,0-.2,0s.3,0,.5,0l-1.8-2.4c0,7.6.2,15.2.3,22.7s0,2.2,0,3.3l2.5-2.5c-4.2-.5-8.7-1.2-13.2-1.9s-5.7-.9-8.6-1.4l1.8,2.4c-.4-8.2.8-16.4,1.8-24.5s-1.3-2.5-2.5-2.5-2.3,1.2-2.5,2.5h0Z"/>
          <path class="cls-7" d="M669.7,500.3c10.9-2.2,22.8-2.8,33.7,0l-1.7-1.7c0,.5.1,1,.2,1.4s0,.5.1.8c0-.6,0,.2,0,.3,0,.7.2,1.4.3,2.2.4,3.4.9,6.9,1.2,10.3s.3,3,.4,4.5,0,.7,0,1c0,.5-.1.4.2.2,1-.6,0-.3-.6-.2s-1.3.3-2,.4c-4.8.9-9.7,1.3-14.6,1.6s-11.3.4-16.9.5-3.2,5.1,0,5c10.8-.2,21.7-.4,32.4-2.2s5.6-.6,6.4-3.5,0-3.5,0-5c-.3-3.7-.7-7.4-1.2-11.1s-.6-5-1-7.5-1-1.5-1.7-1.7c-11.7-3.1-24.6-2.4-36.4,0s-2.1,1.8-1.7,3.1,1.7,2,3.1,1.7h0Z"/>
          <g>
            <path class="cls-6" d="M559.1,407.6c.5.2,1,.1,1.5,0s0,0,.1,0c.2,0,.4-.2.6-.3s0,0,0,0c0,0,.2,0,.2-.2.2-.2.5-.4.7-.6s.4-.5.6-.7.1-.2.2-.3c.1-.2.2-.5.3-.7s0,0,0-.1c.1-.6.1-.9,0-1.5s-.4-.9-.7-1.3,0,0,0,0c0,0-.3-.2-.3-.2,0,0-.2-.2-.3-.2s0,0,0,0,0,0,0,0c-.2,0-.4-.2-.6-.3s0,0-.1,0c-.2,0-.5-.1-.8,0s0,0,0,0c-.2,0-.5,0-.7,0s0,0-.1,0c-.2,0-.6.2-.8.4s-.5.4-.7.6,0,0-.1.1c-.2.2-.3.4-.5.6s-.1.2-.2.3c-.1.2-.2.5-.3.7s0,0,0,.1c-.1.7-.1.9,0,1.6s0,0,0,0,0,0,0,0c0,0,0,0,0,0l.3.6c.1.2.3.4.4.6.4.4.8.6,1.3.8.3.1.7.1,1,0,.3,0,.6-.1.9-.3.3-.2.5-.4.7-.6.2-.2.4-.5.4-.9v-.7c0-.5,0-.9-.3-1.3l-.4-.5c-.3-.3-.7-.5-1.1-.6,0,0,0,0,0,0l.6.3s0,0-.1,0l.5.4s0,0,0,0l.4.5s0,0,0,0l.3.6s0,0,0-.1v.7c0,0,0-.1,0-.2v.7c0,0,0-.2,0-.3l-.3.6c0-.1.1-.2.2-.4l-.4.5c0-.1.2-.2.3-.3l-.5.4c0,0,.2-.1.3-.2l-.6.3c0,0,.1,0,.2,0h-.7c0,0,.1,0,.2,0h-.7c0,0,.1,0,.1,0l-.6-.3s0,0,.1,0l-.5-.4s0,0,0,0l-.4-.5s0,0,0,0l-.3-.6s0,0,0,0v-.7c0,0,0,0,0,.1v-.7c0,0,0,.1,0,.2l.3-.6c0,.1-.1.2-.2.4l.4-.5c-.1.2-.3.3-.4.4l.5-.4c0,0-.2.1-.3.2l.6-.3c0,0-.1,0-.2,0h.7c0,0,0,0,0,0h.7c0,0,0,0,0,0-.3-.1-.7-.1-1,0-.3,0-.6.1-.9.3-.3.2-.5.4-.7.6-.2.2-.4.5-.4.9v.7c0,.5,0,.9.3,1.3l.4.5c.3.3.7.5,1.1.6Z"/>
            <path class="cls-6" d="M576.4,400.4c-.1.1-.2.2-.3.3-.2.3-.5.5-.6.8s-.3.6-.4.9-.1.7-.2,1,0,.7,0,1,.2.6.3.9,0,0,0,.1c.1.2.3.4.5.6.4.4.8.6,1.3.8s0,0,.1,0c.2,0,.5.1.8,0s.5,0,.8-.1.1,0,.2,0c.3-.1.7-.2.9-.4s.6-.4.9-.7.1-.1.2-.2c.2-.2.4-.4.5-.7s.2-.5.3-.8.1-.6.1-.8,0-.1,0-.2c0-.3,0-.6-.1-.8s0-.1,0-.2c0-.3-.2-.5-.3-.8s-.4-.5-.5-.7,0-.1-.1-.1c-.5-.4-.8-.6-1.4-.8s-.6-.1-.8-.1-.6,0-.8,0,0,0,0,0c-.2,0-.5.2-.7.3s0,0,0,0c-.2.1-.4.3-.6.5-.2.2-.4.5-.5.8-.2.3-.2.6-.2,1,0,.3,0,.7.2,1,.1.3.3.6.5.8l.5.4c.4.2.8.3,1.3.3h.7c.4-.2.8-.4,1.1-.7,0,0,0,0,0,0l-.5.4c0,0,.1,0,.2,0l-.6.3c0,0,.1,0,.2,0h-.7c0,0,.1,0,.2,0h-.7c0,0,.1,0,.2,0l-.6-.3c0,0,.1,0,.2.1l-.5-.4c0,0,.1.1.2.2l-.4-.5c0,0,.1.2.2.3l-.3-.6c0,0,0,.2,0,.3v-.7c0,0,0,.2,0,.3v-.7c0,0,0,.2,0,.2l.3-.6c0,0,0,.1-.1.2l.4-.5c-.2.2-.4.4-.6.6l.5-.4c-.1,0-.2.2-.4.2l.6-.3c0,0-.2,0-.2,0h.7c0,0-.1,0-.2,0h.7c0,0,0,0-.1,0l.6.3s0,0-.1,0l.5.4s0,0-.1-.1l.4.5s0-.1,0-.2l.3.6c0,0,0-.2,0-.3v.7c0-.1,0-.3,0-.4v.7c0-.2,0-.3,0-.5l-.3.6c0-.2.2-.3.3-.5l-.4.5c0-.1.2-.2.3-.3.2-.2.4-.5.5-.8.2-.3.2-.6.2-1,0-.3,0-.7-.2-1-.1-.3-.3-.6-.5-.8l-.5-.4c-.4-.2-.8-.3-1.3-.3h-.7c-.4.2-.8.4-1.1.7Z"/>
            <path class="cls-6" d="M595.4,406.5c.3,0,.6.1.9.1s.6,0,.8-.1.5-.2.7-.3.5-.4.8-.6.2-.2.3-.2c.2-.2.4-.5.6-.8s.3-.6.4-.9.1-.6.2-.9,0-.3,0-.5,0-.3,0-.5c-.2-.5-.4-.9-.8-1.3s-.8-.6-1.3-.7-1-.1-1.5,0,0,0,0,0c-.2,0-.4.2-.6.3s0,0-.1,0c-.3.2-.5.4-.7.6s-.1.1-.2.2c-.2.2-.4.5-.6.7s-.1.2-.2.3c-.3.6-.5,1.1-.5,1.8s.1,1,.4,1.4.5.7.9,1,0,0,0,0c0,0,.5.2.3.1,0,0,.2,0,.3.1.3.1.7.1,1,0,.3,0,.6-.1.9-.3.3-.2.5-.4.7-.6.2-.2.4-.5.4-.9v-.7c0-.5,0-.9-.3-1.3l-.4-.5c-.3-.3-.7-.5-1.1-.6,0,0,0,0,0,0l.6.3s0,0,0,0l.5.4s0,0,0,0l.4.5s0,0,0,0l.3.6s0,0,0,0v.7c0,0,0,0,0-.1v.7c0-.1,0-.2,0-.3l-.3.6c0-.2.2-.4.3-.6l-.4.5c.1-.2.3-.3.4-.4l-.5.4c0,0,.1-.1.2-.1l-.6.3s.1,0,.2,0h-.7c0,0,0,0,0,0h-.7c0,0,0,0,0,0l-.6-.3s0,0,0,0l-.5-.4s0,0,0,0l-.4-.5s0,0,0,.1l-.3-.6s0,0,0,.1v-.7c0,0,0,.1,0,.2v-.7c0,0,0,.2,0,.3l.3-.6c0,.1-.1.3-.2.4l.4-.5c-.1.1-.2.2-.3.3l.5-.4c0,0-.2.1-.3.2l.6-.3c0,0-.2,0-.2,0h.7c0,0-.1,0-.2,0h.7c0,0,0,0-.1,0-.3-.1-.7-.1-1,0-.3,0-.6.1-.9.3-.3.2-.5.4-.7.6-.2.2-.4.5-.4.9v.7c0,.5,0,.9.3,1.3l.4.5c.3.3.7.5,1.1.6Z"/>
            <path class="cls-6" d="M610.5,405.3s0,0,0,.1c.1.2.3.4.5.6s0,0,0,0c0,0,.4.3.6.4.5.3.8.4,1.4.4s0,0,0,0c0,0,.5,0,.8-.1.6-.2,1-.4,1.5-.9s.1-.1.2-.2c.2-.2.4-.4.5-.7s.3-.6.4-.8,0-.1,0-.2c0-.2,0-.5.1-.8s0,0,0-.1c0-.3,0-.5,0-.8s0,0,0,0c-.2-.5-.3-.8-.7-1.2s-.7-.5-1.3-.7,0,0-.1,0c-.2,0-.5,0-.7,0s0,0,0,0c-.3,0-.5,0-.8.1s-.5.2-.7.3-.1,0-.2,0c-.2.2-.4.3-.6.5s-.4.5-.5.7,0,.1-.1.2c-.1.2-.2.5-.3.8s0,.6-.1.8,0,.7,0,.8c0,.3.2.6.3.8.2.3.4.5.6.7.2.2.5.4.9.4.3.1.7.1,1,0,.3,0,.6-.1.9-.3l.5-.4c.3-.3.5-.7.6-1.1v-.7c0-.5,0-.9-.3-1.3h0c0,.2.2.4.3.6,0,0,0-.1,0-.2v.7c0,0,0-.1,0-.2v.7c0,0,0-.2,0-.2l-.3.6c0,0,0-.2.1-.2l-.4.5c0,0,.1-.2.2-.2l-.5.4c0,0,.2-.1.2-.1l-.6.3c0,0,.1,0,.2,0h-.7c0,0,.1,0,.2,0h-.7c0,0,.1,0,.2,0l-.6-.3s0,0,.1,0l-.5-.4s0,0,0,0l-.4-.5s0,0,0,0l-.3-.6s0,0,0,.1v-.7c0,0,0,.1,0,.2v-.7c0,0,0,.2,0,.3l.3-.6c0,.1-.1.2-.2.3l.4-.5c0,0-.2.2-.3.3l.5-.4c0,0-.1,0-.2.1l.6-.3c0,0-.1,0-.2,0h.7c0,0,0,0-.1,0h.7c0,0,0,0-.1,0l.6.3s0,0-.1,0l.5.4s0,0-.1-.1l.4.5c0,0,0-.1-.1-.2-.2-.3-.4-.5-.6-.7-.2-.2-.5-.4-.9-.4-.3-.1-.7-.1-1,0-.3,0-.6.1-.9.3l-.5.4c-.3.3-.5.7-.6,1.1v.7c0,.5,0,.9.3,1.3Z"/>
            <path class="cls-6" d="M630.8,401.7c-.6-.1-1-.1-1.6,0s-.6.2-.9.4-.6.4-.8.6,0,0-.1.1c-.2.2-.4.4-.5.7s-.2.3-.2.4c-.2.3-.3.6-.4,1-.2.6-.2,1.3,0,2s0,0,0,0,0,0,0,0c0,.1.2.5.3.6.1.2.3.4.5.6s.4.3.5.4,0,0,0,0c.2.1.5.2.7.3.6.1,1,.1,1.6,0s.7-.2,1-.4.3-.1.4-.2c.3-.2.6-.4.9-.7s.2-.2.3-.3c.2-.2.3-.4.5-.7s0-.1.1-.2c.3-.6.4-.9.5-1.6s-.1-1.1-.4-1.6c-.4-.8-1.4-1.4-2.3-1.6-.3-.1-.7-.1-1,0-.3,0-.6.1-.9.3-.3.2-.5.4-.7.6-.2.2-.4.5-.4.9v.7c0,.5,0,.9.3,1.3l.4.5c.3.3.7.5,1.1.6.1,0,.3,0,.4.1l-.6-.3c0,0,.2,0,.2.1l-.5-.4s0,0,.1.1l-.4-.5s0,0,0,.1l-.3-.6s0,0,0,.1v-.7c0,0,0,.1,0,.2v-.7c0,0,0,.2,0,.2l.3-.6c0,.1-.1.2-.2.3l.4-.5c-.1.2-.3.4-.5.5l.5-.4c-.2.2-.4.3-.7.4l.6-.3c-.1,0-.3.1-.5.1h.7c0,0-.1,0-.2,0h.7c0,0,0,0,0,0l.6.3s0,0,0,0l.5.4s0,0,0,0l.4.5s0,0,0,0l.3.6s0,0,0-.1v.7c0,0,0-.2,0-.3v.7c0-.2,0-.4,0-.5l-.3.6c.1-.2.2-.5.4-.7l-.4.5c.1-.1.2-.3.4-.4l-.5.4c0,0,.2-.1.3-.2l-.6.3c0,0,.1,0,.2,0h-.7c0,0,.1,0,.2,0h-.7c0,0,0,0,0,0,.3.1.7.1,1,0,.3,0,.6-.1.9-.3.3-.2.5-.4.7-.6.2-.2.4-.5.4-.9v-.7c0-.5,0-.9-.3-1.3l-.4-.5c-.3-.3-.7-.5-1.1-.6Z"/>
            <path class="cls-6" d="M643.7,405.3c-.3.5-.4.9-.4,1.5s0,0,0,.1c0,.1,0,.3,0,.4s0,.2,0,.4,0,0,0,0,0,0,0,0c0,.2.2.5.3.7s0,0,0,.1c.2.3.4.5.6.7s.5.4.8.6.6.3.9.4.1,0,.2,0,0,0,0,0c.2,0,.5,0,.7,0s0,0,.1,0c.3,0,.6,0,.8-.1s.6-.2.9-.4c.5-.3.8-.6,1.1-1.1s0-.1,0-.2c.3-.6.3-.7.4-1.4s0-.3,0-.4,0-.3,0-.4,0,0,0,0c0,0,0,0,0,0l-.3-.6s0,0,0-.1c-.1-.2-.3-.4-.4-.5s0,0,0,0c-.2-.2-.5-.4-.7-.6s-.6-.3-.9-.4-.2,0-.3-.1-.2,0-.4,0c-.3,0-.7-.1-1-.1s-.6,0-.9.1-.5.2-.7.3c-.4.2-.7.5-.9.9-.2.3-.3.6-.3.9,0,.3,0,.7,0,1,0,.3.2.6.4.9.2.3.4.5.7.6l.6.3c.4.1.9.1,1.3,0l.6-.3c.4-.2.7-.5.9-.9,0,0,0,0,0,0l-.4.5s0,0,0,0l-.5.4s0,0,0,0l-.6.3s0,0,.1,0h-.7c.2,0,.3,0,.5.1h-.7c.3,0,.5,0,.8.1l-.6-.3c.1,0,.3.1.4.2l-.5-.4c0,0,.1,0,.1.1l-.4-.5s0,0,0,.1l-.3-.6s0,0,0,0v-.7c0,0,0,0,0,.1v-.7c0,0,0,0,0,.1l.3-.6c0,0,0,.2-.1.2l.4-.5c0,0,0,.1-.1.1l.5-.4c0,0-.1,0-.2,0l.6-.3c0,0-.1,0-.2,0h.7c0,0-.2,0-.3,0h.7c-.1,0-.2,0-.3,0l.6.3c-.1,0-.2-.1-.3-.2l.5.4c-.1,0-.2-.2-.3-.3l.4.5c0,0-.1-.2-.2-.3l.3.6c0,0,0-.1,0-.2v.7c0,0,0-.1,0-.2v.7c0,0,0-.1,0-.2l-.3.6s0,0,0,0c.2-.3.3-.6.3-.9,0-.3,0-.7,0-1,0-.3-.2-.6-.4-.9-.2-.3-.4-.5-.7-.6l-.6-.3c-.4-.1-.9-.1-1.3,0l-.6.3c-.4.2-.7.5-.9.9Z"/>
          </g>
          <path class="cls-6" d="M509.5,364.4c-4.2,2-7.9,5-11.4,8s-3.7,2.9-5.1,4.8-1.6,4.4-1.6,6.7c0,7.8.1,15.6.4,23.4.7,18.3,2.1,36.6,3.4,54.8s1.5,20.8,2.2,31.1,1.1,2.5,2.5,2.5,2.6-1.1,2.5-2.5c-1.2-18.1-2.6-36.2-3.8-54.3-1.1-16.7-2.1-33.5-2.2-50.3,0-2,0-3.9,0-5.9s.2-2.1.8-2.9,1.8-1.7,2.6-2.4c3.8-3.2,7.6-6.6,12.2-8.7s1.5-2.3.9-3.4-2.2-1.5-3.4-.9h0Z"/>
          <path class="cls-7" d="M510.9,495c-4.6-2.1-9.4-3.8-14.2-5.5s-3.1.9-3.2,2.4c-.3,5.9-.6,11.7-.8,17.6l-.2,3.9c0,1.3,0,2.2,1.2,3.2,2.2,1.6,4.3,3.2,6.5,4.8s4.9,3.6,7.3,5.4,2.8.2,3.4-.9.2-2.6-.9-3.4c-4.6-3.4-9.3-6.8-13.9-10.1l1.2,2.2c.3-6.6.6-13.1.9-19.7s0-1.9.1-2.8l-3.2,2.4c4.4,1.5,8.8,3.1,13,5s2.7.4,3.4-.9.3-2.9-.9-3.4h0Z"/>
        </g>
        <g>
          <path class="cls-8" d="M624.2,461.4c3.6-3.5,11.1-25-8-23.8s-15.1,18.3-15.1,18.3c0,0-14.5,15.5-14.7,22.8s6.1,6.2,5.4,20.5,4.9,27.8,16.8,21.9-5-3.2-2.8-10.9,8.8-19.8,8.8-19.8c0,0,13.2,1,14.1-5.3s-6.5-7.3-6.5-7.3l14.8.5,2.3,9.9,8-7.5-5.5-4.2-6.1.4-13.9-12.7,2.4-2.9Z"/>
          <g>
            <path class="cls-7" d="M649.4,518.3c-.6-8.6-3.7-18.1-12.6-21.2s-13.9.3-18.4,5.2-7.3,16.2-5.5,24.4c1.9,9,9.8,18,19.9,16.8,11.5-1.4,17.3-14.8,16.7-25.1s-5.2-3.2-5,0-.5,8.1-2.3,11.7-4.1,6.5-7.3,7.8-7.5.5-10.8-1.9-4.7-5.2-5.8-8.4c-2.1-6.7-1.4-14.8,2.7-20.6s0,0,0,0c.1-.2.3-.3.4-.5.2-.3.5-.5.7-.8.5-.5,1-1,1.6-1.5s-.5.3,0,0,.3-.2.4-.3c.3-.2.6-.4.9-.6.6-.4,1.2-.7,1.9-1s-.5.2.1,0,.2,0,.4-.1c.3-.1.6-.2.9-.3s.6-.2,1-.2,1.3-.2.7-.1c.6,0,1.3-.1,1.9-.1s.6,0,1,0,.3,0,.4,0c-.7,0,.2,0,.3,0,.7.1,1.4.3,2.1.6s.7.3.1,0c.2,0,.4.2.5.3.4.2.7.4,1.1.6s.2.1.3.2.8.6.3.2c.3.2.6.5.9.8s.6.6.9.9.3.3.4.5c.5.6-.3-.4.2.2,2.6,3.6,3.6,8,3.9,12.6s1.1,2.5,2.5,2.5,2.6-1.1,2.5-2.5Z"/>
            <path class="cls-7" d="M592.5,509.5c-1.2-.2-2.4-.5-3.7-.7h-.5c-.7-.2-1.3-.2-1.9.1s-1,.9-1.1,1.5-.1,1.4.3,1.9.9,1,1.5,1.1c1.2.2,2.4.5,3.7.7h.5c.7.2,1.3.2,1.9-.1s1-.9,1.1-1.5.1-1.4-.3-1.9-.9-1-1.5-1.1h0Z"/>
            <path class="cls-7" d="M592.6,516.7c-1.7,1.4-3.3,2.8-5,4.3l-.7.6c-.5.4-.7,1.2-.7,1.8s.3,1.3.7,1.8,1.1.8,1.8.7,1.2-.3,1.8-.7c1.7-1.4,3.3-2.8,5-4.3l.7-.6c.5-.4.7-1.2.7-1.8s-.3-1.3-.7-1.8-1.1-.8-1.8-.7-1.2.3-1.8.7h0Z"/>
            <path class="cls-7" d="M595.2,521.9c0,3-.1,6.1-.2,9.1v1.3c0,1.3,1.1,2.6,2.5,2.5s2.5-1.1,2.5-2.5c0-3,.1-6.1.2-9.1v-1.3c0-1.3-1.1-2.6-2.5-2.5s-2.5,1.1-2.5,2.5h0Z"/>
            <path class="cls-7" d="M590,498.3c-6.4,5.6-8.6,15.3-6.9,23.4.9,4.1,3,8,6.3,10.6s9.5,4.8,14.4,2.6,9.2-8.6,8-14.5-1.8-2.1-3.1-1.7-2,1.7-1.7,3.1,0,1.5,0,2.1c-.2,1-.5,1.7-1,2.5-1,1.7-2.4,3-4.1,3.9-3.2,1.6-7.1,0-9.3-1.9s-2.1-2.1-3-3.6-.4-.7-.6-1.1,0-.2-.3-.7c-.3-.8-.6-1.7-.8-2.6-.7-3-.5-6.5.3-9.6s2.5-6.5,5.3-8.9.9-2.6,0-3.5-2.5-.9-3.5,0h0Z"/>
            <path class="cls-7" d="M617.7,495.9c-3.7,6.1-8.2,11.6-11.9,17.7s-.3,2.7.9,3.4,2.7.3,3.4-.9c3.7-6.1,8.2-11.6,11.9-17.7s.3-2.7-.9-3.4-2.7-.3-3.4.9h0Z"/>
            <path class="cls-7" d="M618.1,495.9c-1.9,0-3.8,0-5.7-.1h-.8c-1.3,0-2.6,1.2-2.5,2.5s1.1,2.5,2.5,2.5,3.8,0,5.7.1h.8c1.3,0,2.6-1.2,2.5-2.5s-1.1-2.5-2.5-2.5h0Z"/>
            <path class="cls-6" d="M616.7,493.4c.4,1.7.6,3.8,1.8,5.1s4.6,1,6.7.7,4.8-.7,7.2-1.2,4.9-.9,7.1-1.9,2.5-3.8,2.4-6.3-.3-4.9-.6-7.3-.2-5.4-2.8-6.4-4.7-1.1-7-1.4-5.4-.4-8.1-.3-2.6.2-3.8.3-3,.2-4.1,1.1-1.6,2.2-.9,3.4,2.3,1.7,3.4.9,1-.3,1.6-.4c1-.1,2-.2,3-.3,1.9-.1,3.7-.1,5.6,0s3.5.3,5.3.6,1.7.3,2.5.5.4.2.6.1c.4-.1-.7-.7-.5-.8s.2,1.4.2,1.3c.2,1.8.4,3.7.5,5.5s.1,1.9.2,2.9,0,2.4,0,2.5c-.1,0,.4-.4.3-.5s-2,.1-.3,0c-.4,0-.9.2-1.2.3-.9.2-1.8.5-2.7.7-1.8.4-3.6.8-5.5,1.1s-2,.3-2.9.4-1,.1-1.5.2-1.1,0-1.5.1-.7-.2.2.3.5.4.5.2-.2-.7-.3-.9c-.2-.7-.4-1.5-.5-2.2-.7-3.1-5.5-1.8-4.8,1.3h0Z"/>
            <path class="cls-6" d="M612.2,489.7c-1.6,5.1-4.5,9.8-6.8,14.7s-2.4,4.9-2.5,7.5,1.2,4.1,3,5.4,1.4.8,2,1.3c-.4-.3.5.5.5.5-.3,0-.1-.8-.3-.8s-.3.3-.5.4c-.6.5-1.7.7-2.5.9s-.8.2-1.3.3-.3,0-.5,0c.5,0-.4,0-.5,0-.3,0-.6,0-1,0s-.3,0-.5,0c-.6,0,.4,0,0,0s-.6-.1-.9-.2-.3,0-.4-.1c-.5-.2.4.2,0,0s-.5-.3-.8-.4c-.6-.3.1.2-.3-.3s-.4-.4-.6-.6-.2-.3-.4-.4c-.3-.4.2.4,0,0s-.7-1.1-1-1.7-.5-1.1-.3-.5c-.2-.4-.3-.8-.4-1.2-.5-1.5-.8-3-1.1-4.5s-.1-.8-.2-1.2,0,.6,0-.2,0-.3,0-.5c-.1-.9-.2-1.8-.3-2.7-.1-1.7-.2-3.4-.2-5.1,0-3-.2-6-.1-9s-.5-2.8-1.5-4-1.7-1.5-2.4-2.5c-1.1-1.6-1.6-3.2-1.5-5s.7-3.9,1.6-5.7,2.5-4.1,4-5.9c3.1-3.8,6.7-7.1,10.1-10.6s-1.3-5.9-3.5-3.5c-3.2,3.3-6.6,6.4-9.6,10-3.1,3.7-6.2,7.8-7.3,12.6s.2,10.4,4.2,13.5.8.8.8,1.7,0,1.5,0,2.3c0,1.6,0,3.3,0,4.9,0,3.7.3,7.4.8,11.1s1.3,6.7,3,9.5,4.6,4.9,8.1,5.3,3.7,0,5.4-.6c2.7-.8,5.8-2.1,6.4-5.2s-2-4.7-4.2-6-.7-.5-.3-.2c-.2-.2-.4-.3-.6-.5s.1.4,0-.1c.2.6,0-.7,0-.1,0-.9.6-2.5,1.1-3.5,2.4-6,6.1-11.5,8.1-17.7s-3.9-4.4-4.8-1.3h0Z"/>
            <path class="cls-6" d="M605,454.6c-1.8-2.7-.1-6.9,1.4-9.4s4.4-4.9,7.6-5.6,6.6.3,8.9,2.7,3.4,6.8,2.6,10.4-3.7,7.1-7.4,8.7-1.5,2.3-.9,3.4,2.2,1.4,3.4.9c9.6-4.3,13.3-17.1,6.8-25.7-3-3.9-7.7-6-12.6-5.5s-9.1,3.1-12,7.1-5.2,11-2.1,15.6,6.1.1,4.3-2.5h0Z"/>
            <path class="cls-6" d="M618.9,466c2.8,3,5.5,6,8.5,8.7s3.1,2.7,4.8,3.8,3,2,4.7,2.3,3.7-.4,5.4-1.8,1.4-.7,2.1.2.2,2.7-.5,3.6c-1.1,1.4-2.8,2.3-4.3,3.1-2.9,1.4-.3,5.8,2.5,4.3s7.9-5.3,7.7-10.2-4.9-8-9.1-5.9-1.4,1.3-2.2,1.6-.9,0-1.5-.2c-1.7-.8-3.3-2.1-4.7-3.3-3.6-3-6.7-6.5-9.8-9.9s-5.7,1.2-3.5,3.5h0Z"/>
            <path class="cls-6" d="M605.8,466.8c2.4,5,5.3,10.8,10.2,13.9s5.3,1.7,8.3,1.2.5,0,.7-.1-.7,0-.2,0,.2,0,.3,0c.2,0,.4,0,.6,0s.2,0,.3,0c-.7.2-.5-.2-.2,0s.3,0,.3.1-.5-.3-.2,0,.2.1.3.2c.4.2-.1,0,0,0,.2.2.4.4.6.6.3.3-.3-.4,0,0s.4.7.5.8c0,0,.2.7.1.4,0,.2,0,.4,0,.6,0,0,0-.3,0,0,0,.5-.3.9-.7,1.3-.8,1-2.1,1.8-3.3,2.3-3,1.3-6,.7-8.9-.6s-2.6-1.2-4-1.7-2.8-1-4.2-1.7c-3.6-1.9-6.7-4.6-9.6-7.5s-5.8,1.2-3.5,3.5,5.9,5.6,9.4,7.6,3.1,1.6,4.8,2.2,1.4.5,2.1.7.4.1.6.2c-.4-.1.6.2.7.3,3.3,1.5,6.7,2.9,10.3,2.5s7.9-2.4,10.1-5.6.3-10.7-4.9-11.2-2.3.1-3.5.3-.3,0-.4,0c-.5,0,.6,0,.2,0s-.6,0-.9,0-.6,0-.8,0c-.4,0-.2,0,.1,0-.2,0-.3,0-.5,0s-.4-.1-.6-.2-.1,0-.2,0c-.4-.1.4.2.1,0-.4-.2-.8-.4-1.1-.6s-.6-.5-.4-.3-.3-.3-.4-.4c-.5-.4-.9-.9-1.4-1.4-2.5-2.8-4.4-6.5-6.1-10s-2.3-1.5-3.4-.9-1.5,2.2-.9,3.4h0Z"/>
            <path class="cls-7" d="M630.9,522.4c2.4-5.7,4.8-11.3,7.2-17s.7-1.6,1-2.4c.5-1.2.4-2.7-.9-3.4s-2.9-.4-3.4.9c-2.4,5.7-4.8,11.3-7.2,17s-.7,1.6-1,2.4c-.5,1.2-.4,2.7.9,3.4s2.9.4,3.4-.9h0Z"/>
            <path class="cls-7" d="M628,523.6c4.6,1.6,9.2,3.2,13.7,4.8l1.9.7c1.2.4,2.8-.5,3.1-1.7s-.4-2.6-1.7-3.1c-4.6-1.6-9.2-3.2-13.7-4.8l-1.9-.7c-1.2-.4-2.8.5-3.1,1.7s.4,2.6,1.7,3.1h0Z"/>
            <path class="cls-7" d="M626.3,521.8c1.1,5,2.2,10.1,3.3,15.1s.3,1.4.5,2.2c.3,1.3,1.8,2.1,3.1,1.7s2-1.8,1.7-3.1c-1.1-5-2.2-10.1-3.3-15.1-.2-.7-.3-1.4-.5-2.2-.3-1.3-1.8-2.1-3.1-1.7s-2,1.8-1.7,3.1h0Z"/>
            <path class="cls-7" d="M628.7,518.7c-3.8-.5-7.6-1-11.4-1.5l-1.6-.2c-1.3-.2-2.6,1.3-2.5,2.5s1.1,2.3,2.5,2.5c3.8.5,7.6,1,11.4,1.5l1.6.2c1.3.2,2.6-1.3,2.5-2.5s-1.1-2.3-2.5-2.5h0Z"/>
            <path class="cls-7" d="M631.1,520.5c-1.9-5.2-3.8-10.4-5.7-15.6s-.5-1.5-.8-2.2c-.5-1.3-1.7-2.1-3.1-1.7s-2.2,1.8-1.7,3.1c1.9,5.2,3.8,10.4,5.7,15.6s.5,1.5.8,2.2c.5,1.3,1.7,2.1,3.1,1.7s2.2-1.8,1.7-3.1h0Z"/>
            <path class="cls-7" d="M628,523.6h0c-.4-.2-.7-.4-1.1-.6h0c-.2-.4-.4-.7-.6-1.1,0-.4,0-1.6.2-1.8,0,0,0,0,0,0,0,.1-.2.2-.2.3s0,.1-.1.2c-.3.4.5-.6.2-.2s-.3.4-.4.6c-.8,1-1.6,2-2.4,3-1.8,2.1-3.6,4.3-5.3,6.4s-.8,1-1.2,1.4c-.8,1-1.1,2.6,0,3.5s2.6,1.1,3.5,0c3.1-3.7,6.3-7.4,9.3-11.2s.8-.9,1.1-1.4c.9-1.4.4-3.5-1.4-3.9s-2.8.4-3.1,1.7.4,2.8,1.7,3.1h0Z"/>
            <path class="cls-6" d="M616.9,464.2c.1.3.2.7.2,1s0,.4.1.7c0,.4,0,0,0-.2,0,.1,0,.3,0,.4.1,1.2.2,2.4.3,3.6.1,2,.3,4.1.2,6.1s1.2,2.6,2.5,2.5,2.5-1.1,2.5-2.5c0-2.1,0-4.2-.2-6.3s-.2-2.4-.3-3.6-.2-2.1-.5-3.1-1.8-2.2-3.1-1.7-2.2,1.7-1.7,3.1h0Z"/>
          </g>
        </g>
        <g>
          <path class="cls-8" d="M748.9,461.1c4-3.9,12.4-27.9-8.9-26.6-21.3,1.4-16.8,20.4-16.8,20.4,0,0-16.2,17.3-16.4,25.4-.3,8.1,6.9,7,6,22.9s5.5,31,18.8,24.4c13.4-6.6-5.6-3.6-3.1-12.2s9.8-22.1,9.8-22.1c0,0,14.7,1.2,15.7-5.9,1-7-7.3-8.2-7.3-8.2l16.6.6,2.5,11.1,8.9-8.4-6.1-4.7-6.8.5-15.5-14.2,2.7-3.2Z"/>
          <g>
            <path class="cls-7" d="M776.7,524.6c-.6-9.4-4.1-19.9-13.7-23.4-7.1-2.6-15.3.3-20.4,5.6s-8.1,18-6.1,27,10.9,19.9,22,18.5c11.4-1.4,17.3-13.6,18.2-23.9s.1-2.5,0-3.8c-.2-3.2-5.2-3.2-5,0,.5,8.1-3.1,18.9-10.8,22-4.2,1.7-8.5.6-12.2-2-3.1-2.2-5.4-5.8-6.6-9.5-2.4-7.6-1.6-16.7,2.9-23.3s.5-.6.1-.2c.1-.2.3-.3.4-.5.3-.3.6-.6.8-.9.6-.6,1.2-1.2,1.8-1.7s0,0,0,0c.2-.1.3-.2.5-.4.3-.2.7-.5,1-.7.7-.4,1.4-.8,2.1-1.1s-.5.2.1,0,.2,0,.4-.1c.4-.1.8-.3,1.1-.4.8-.2,1.5-.4,2.3-.5-.7,0,.5,0,.7,0,.3,0,.6,0,1,0s.8,0,1.2,0,.4,0,.6,0c-.7,0,0,0,.1,0,.8.2,1.6.4,2.5.7s.7.3.1,0c.2.1.5.2.7.3.4.2.7.4,1.1.6s.3.2.5.3.8.6.3.2c.3.3.7.5,1,.8s.7.7,1.1,1.1.3.3.4.5c.4.4-.1-.2.2.2,3,4.1,4.1,9.1,4.5,14.3s1.1,2.5,2.5,2.5,2.6-1.1,2.5-2.5Z"/>
            <path class="cls-7" d="M713.4,515.1c-1.4-.3-2.7-.5-4.1-.8h-.6c-.7-.2-1.3-.2-1.9.1s-1,.9-1.1,1.5-.1,1.4.3,1.9.9,1,1.5,1.1c1.4.3,2.7.5,4.1.8h.6c.7.2,1.3.2,1.9-.1s1-.9,1.1-1.5.1-1.4-.3-1.9-.9-1-1.5-1.1h0Z"/>
            <path class="cls-7" d="M713.8,523c-1.8,1.6-3.7,3.2-5.5,4.8s-.5.5-.8.7c-.5.4-.7,1.2-.7,1.8s.3,1.3.7,1.8,1.1.8,1.8.7,1.2-.3,1.8-.7c1.8-1.6,3.7-3.2,5.5-4.8s.5-.5.8-.7c.5-.4.7-1.2.7-1.8s-.3-1.3-.7-1.8-1.1-.8-1.8-.7-1.2.3-1.8.7h0Z"/>
            <path class="cls-7" d="M716.8,528.6c0,3.4-.2,6.8-.2,10.2s0,1,0,1.5c0,1.3,1.2,2.6,2.5,2.5s2.5-1.1,2.5-2.5c0-3.4.2-6.8.2-10.2s0-1,0-1.5c0-1.3-1.2-2.6-2.5-2.5s-2.5,1.1-2.5,2.5h0Z"/>
            <path class="cls-7" d="M710.9,502.5c-7,6.1-9.4,16.7-7.7,25.5s3.2,8.8,6.7,11.8,10.4,5.6,15.9,3.1,10.2-9.4,9-15.9-1.8-2.1-3.1-1.7-2,1.7-1.7,3.1-.2,3.8-1.3,5.5-2.7,3.4-4.6,4.4-3.9,1-6,.4-3.6-1.6-4.7-2.6c-5.6-4.8-6.6-12.9-4.8-19.8s2.9-7.5,6-10.2.9-2.6,0-3.5-2.5-.9-3.5,0h0Z"/>
            <path class="cls-7" d="M741.9,499.8c-4.1,6.8-9.2,12.9-13.3,19.7s2.7,5.3,4.3,2.5c4.1-6.8,9.2-12.9,13.3-19.7s-2.7-5.3-4.3-2.5h0Z"/>
            <path class="cls-7" d="M742.1,499.9c-2.1,0-4.2,0-6.3-.1h-.9c-1.3,0-2.6,1.2-2.5,2.5s1.1,2.5,2.5,2.5c2.1,0,4.2,0,6.3.1h.9c1.3,0,2.6-1.2,2.5-2.5s-1.1-2.5-2.5-2.5h0Z"/>
            <path class="cls-6" d="M740.7,496.8c.4,1.8.7,4.2,2,5.6s5,1,7.3.7,5.5-.8,8.2-1.4,5.3-1,7.6-2,2.7-3.9,2.6-6.5-.3-5.4-.6-8.1-.1-5.7-2.6-7-2.4-.7-3.6-.9-3-.5-4.4-.7c-3-.4-6-.5-9.1-.4s-2.9.2-4.3.3-3.2.2-4.4,1.2-1.6,2.2-.9,3.4,2.3,1.7,3.4.9,1.4-.4,2.2-.5c1-.1,2.1-.2,3.1-.3,2.1-.1,4.2-.1,6.2,0s4,.3,6,.7,2,.4,3,.6.5.2.5.1c-.3.2-.3-1.2-.5-.5s.2,1,.2,1.4c.3,2.1.5,4.3.6,6.4s.1,2.1.2,3.2.2,1.7,0,2.4c0-.2.3,0-.1,0s-.9.3-1.3.4c-1.1.3-2.2.6-3.3.8-2,.5-4.1.9-6.1,1.2s-2.1.3-3.1.5-1.1.1-1.7.2-1.4,0-1.9.2-.7-.2,0,.3.3.3.4.1-.2-.8-.3-1c-.2-.8-.4-1.6-.6-2.4-.7-3.1-5.5-1.8-4.8,1.3h0Z"/>
            <path class="cls-6" d="M735.8,492.8c-1.8,5.8-5.1,10.9-7.6,16.4s-2.7,5.5-2.8,8.3,1.3,4.4,3.3,5.8,1.5.9,2.2,1.4c-.4-.3.2.2.2.2l.2.2c.2.2.2.2,0,0v.2c0-.7,0-.9,0-.6-.1,0-.4.5-.6.7-.8.6-2,.8-2.9,1.1s-.8.2-1.3.3-.5,0-.7.1c.5,0-.4,0-.5,0-.4,0-.7,0-1.1,0s-.4,0-.6,0c-.7,0,.5.1-.1,0s-.6-.1-.9-.2-.4-.1-.5-.2c-.4-.1.4.2-.2-.1s-.5-.3-.8-.4-.3-.2-.4-.3c.5.4,0,0,0,0-.2-.2-.5-.4-.7-.7s-.2-.2-.3-.3c-.5-.5,0,.1-.2-.2-.4-.6-.8-1.2-1.1-1.8s-.6-1.2-.3-.7c-.2-.4-.3-.8-.4-1.2-.6-1.6-1-3.3-1.3-5s-.2-.9-.2-1.4c-.1-.8,0,.5,0-.3s0-.4,0-.6c-.1-1-.2-2-.3-3.1-.1-1.9-.2-3.8-.3-5.6,0-3.3-.2-6.7-.2-10s-.5-3-1.5-4.2-1.9-1.6-2.7-2.7c-1.3-1.9-1.9-3.8-1.9-5.9,0-4.7,3.3-9.5,6.4-13.3s7.4-7.9,11.2-11.8c2.2-2.3-1.3-5.9-3.5-3.5-3.6,3.7-7.4,7.3-10.8,11.3s-6.8,8.6-7.9,13.9.5,11.1,4.9,14.8.8,3,.8,4.5,0,3.7,0,5.6c0,4.1.3,8.3.9,12.4s1.4,7.4,3.4,10.6,5,5.3,8.8,5.8,4.2,0,6.2-.7c2.9-.8,6.2-2.3,6.8-5.6s-2.6-5-4.9-6.6.3.3-.2-.2-.7-.7-.4-.3c0,0-.4-.7-.2-.2,0-.1,0-.3-.1-.5,0,.3,0,.2,0-.1,0-1.1.7-2.7,1.2-3.9,2.7-6.7,6.8-12.8,9-19.8s-3.9-4.4-4.8-1.3h0Z"/>
            <path class="cls-6" d="M727.1,453.7c-2.1-3.1-.2-7.9,1.5-10.7s5.1-5.7,8.9-6.5,7.5.4,10,3.1,3.9,7.8,2.9,11.9-4.2,8-8.3,9.9-1.5,2.3-.9,3.4,2.2,1.4,3.4.9c10.6-4.7,14.6-18.8,7.6-28.2s-8.5-6.6-13.8-6.1-10.1,3.4-13.2,7.8-5.8,12.1-2.3,17,2.2,1.6,3.4.9,1.7-2.3.9-3.4h0Z"/>
            <path class="cls-6" d="M743.2,466.1c3.1,3.4,6.2,6.8,9.6,9.9s3.5,3,5.4,4.3,3.6,2.4,5.8,2.5,2.3-.2,3.2-.8,1.3-1.2,2.1-1.7,1.8-.2,2.3.8c.8,1.3.2,3.2-.7,4.3-1.2,1.6-3.1,2.6-4.9,3.5-2.9,1.4-.3,5.8,2.5,4.3s6.8-4.2,8-8-.1-7.7-3.6-9.4-3.3-1-4.9-.4-1.6.9-2.4,1.5-.8.8-1.3.9c-1.2.2-3-1.4-4-2.1-1.5-1-2.9-2.2-4.3-3.4-3.4-3-6.4-6.4-9.5-9.8s-5.7,1.2-3.5,3.5h0Z"/>
            <path class="cls-6" d="M728.6,467c2.7,5.5,5.9,12.1,11.4,15.5s5.8,1.7,9,1.2.5,0,.8-.1c-.8.2-.2,0,.2,0s.5,0,.7,0c.4,0-.2,0-.2,0,0,0,.3,0,.4,0s.3,0,.4.1-.5-.3-.2,0,.2.1.3.2c.5.3-.1-.2,0,0,.2.2.4.4.6.7s-.3-.5,0,0,.4.6.5.9c.2.5.2.8,0,1.1s-.3,1-.7,1.5c-1,1.3-2.5,2.3-4,2.9-3.4,1.4-6.7.8-10-.6s-3-1.4-4.6-1.9-3.3-1.2-4.9-2c-4.1-2.1-7.5-5.1-10.7-8.4s-5.8,1.2-3.5,3.5,6.7,6.3,10.6,8.6,3.4,1.7,5.1,2.4,1.5.5,2.3.8.7.3,1.5.6c3.8,1.8,7.7,3.3,12,2.6s8.3-2.8,10.5-6.3c2.9-4.6,0-11.3-5.6-11.8s-2.6.2-3.8.4-.3,0-.4,0c-.4,0,.7,0,.1,0s-.6,0-.9,0-.6,0-1,0c-.6,0,.3.1,0,0s-.3,0-.5-.1-.4-.1-.7-.2c-.3-.1-.6-.3,0,0-.4-.2-.9-.4-1.3-.7s-.9-.6-.4-.3c-.2-.2-.5-.4-.7-.6-.5-.5-1-1-1.5-1.5-2.7-3.1-4.9-7.3-6.8-11.2s-2.3-1.5-3.4-.9-1.5,2.2-.9,3.4h0Z"/>
            <path class="cls-7" d="M756.1,529.1c2.7-6.3,5.4-12.6,8.1-18.9s.8-1.8,1.1-2.7.4-2.7-.9-3.4-2.9-.4-3.4.9c-2.7,6.3-5.4,12.6-8.1,18.9s-.8,1.8-1.1,2.7-.4,2.7.9,3.4,2.9.4,3.4-.9h0Z"/>
            <path class="cls-7" d="M753.2,530.2c5.1,1.8,10.2,3.6,15.3,5.4s1.4.5,2.2.8c1.3.4,2.7-.5,3.1-1.7s-.5-2.6-1.7-3.1c-5.1-1.8-10.2-3.6-15.3-5.4s-1.4-.5-2.2-.8c-1.3-.4-2.7.5-3.1,1.7s.5,2.6,1.7,3.1h0Z"/>
            <path class="cls-7" d="M751.5,528.5c1.2,5.6,2.5,11.3,3.7,16.9s.4,1.6.5,2.4c.3,1.3,1.8,2.1,3.1,1.7s2-1.8,1.7-3.1c-1.2-5.6-2.5-11.3-3.7-16.9s-.4-1.6-.5-2.4c-.3-1.3-1.8-2.1-3.1-1.7s-2,1.8-1.7,3.1h0Z"/>
            <path class="cls-7" d="M753.9,525.3c-4.2-.6-8.5-1.1-12.7-1.7l-1.8-.2c-1.3-.2-2.6,1.3-2.5,2.5s1.1,2.3,2.5,2.5c4.2.6,8.5,1.1,12.7,1.7l1.8.2c1.3.2,2.6-1.3,2.5-2.5s-1.1-2.3-2.5-2.5h0Z"/>
            <path class="cls-7" d="M756.3,527.2c-2.1-5.8-4.2-11.6-6.4-17.4s-.6-1.7-.9-2.5c-.5-1.3-1.7-2.1-3.1-1.7s-2.2,1.8-1.7,3.1c2.1,5.8,4.2,11.6,6.4,17.4s.6,1.7.9,2.5c.5,1.3,1.7,2.1,3.1,1.7s2.2-1.8,1.7-3.1h0Z"/>
            <path class="cls-7" d="M753.2,530.2h0c-.4-.2-.7-.4-1.1-.6h0c-.2-.4-.4-.7-.6-1.1,0-.4-.1-1.5.2-1.9,0,0,0,0,0,0,0,0,0,0,0,0,0,.1-.2.2-.3.4s0,.1-.1.2c-.3.4.5-.6.1-.2s-.3.4-.5.6c-.9,1.1-1.8,2.2-2.7,3.3-2,2.4-4,4.8-6,7.2s-.9,1.1-1.4,1.6c-.8,1-1.1,2.6,0,3.5s2.6,1.1,3.5,0c3.5-4.1,7-8.3,10.4-12.5s.8-1,1.2-1.5c.9-1.4.4-3.5-1.4-3.9s-2.8.4-3.1,1.7.4,2.8,1.7,3.1h0Z"/>
            <path class="cls-6" d="M741,464.2c.1.4.2.8.3,1.1s0,.5.1.7c0,.4,0,.1,0-.1,0,.1,0,.3,0,.4.2,1.3.3,2.7.4,4.1.2,2.3.3,4.6.2,6.8s1.2,2.6,2.5,2.5,2.5-1.1,2.5-2.5c0-2.3,0-4.7-.2-7s-.2-2.7-.4-4-.2-2.3-.6-3.4-1.8-2.2-3.1-1.7-2.2,1.7-1.7,3.1h0Z"/>
          </g>
        </g>
        <g>
          <path class="cls-8" d="M821.9,460.7c3.5-3.4,10.9-24.5-7.8-23.3-18.7,1.2-14.7,17.9-14.7,17.9,0,0-14.2,15.2-14.4,22.3-.2,7.1,6,6.1,5.3,20.1s4.8,27.2,16.5,21.4-4.9-3.1-2.8-10.7c2.1-7.6,8.6-19.4,8.6-19.4,0,0,12.9,1,13.8-5.2.9-6.2-6.4-7.2-6.4-7.2l14.5.5,2.2,9.7,7.8-7.4-5.4-4.1-6,.4-13.6-12.4,2.4-2.8Z"/>
          <g>
            <path class="cls-7" d="M846.6,516.4c-.6-8.4-3.7-17.7-12.3-20.8-6.3-2.3-13.6.2-18.1,5s-7.3,16-5.5,24.1,9.7,17.6,19.5,16.4,16.9-14.5,16.3-24.7-5.2-3.2-5,0-.5,7.9-2.2,11.4-4,6.3-7,7.6-7.3.6-10.5-1.7-4.7-5.1-5.7-8.3c-2.1-6.6-1.3-14.4,2.6-20.1s.4-.5,0,0c.1-.1.2-.3.3-.4.2-.2.4-.5.6-.7.5-.6,1.1-1.1,1.7-1.6s0,0,0,0c.2-.1.3-.2.5-.4.3-.2.5-.3.8-.5.6-.4,1.2-.7,1.9-1s-.3.1,0,0,.3-.1.5-.2c.3-.1.6-.2.9-.3.6-.2,1.3-.3,1.9-.4-.7,0,.3,0,.5,0,.3,0,.6,0,1,0s.6,0,1,0,.7,0,.2,0,.4,0,.4,0c.7.1,1.4.3,2.1.6s-.3-.2,0,0,.4.2.6.3c.3.2.6.3.9.5s.7.5,1,.7c-.4-.3,0,0,0,0,.2.2.4.3.6.5.3.3.6.6.8.9s.2.3.4.4c.5.6-.3-.4.2.2,2.6,3.6,3.5,7.8,3.8,12.3s1.1,2.5,2.5,2.5,2.6-1.1,2.5-2.5Z"/>
            <path class="cls-7" d="M790.8,507.7c-1.2-.2-2.4-.5-3.6-.7h-.5c-.7-.2-1.3-.2-1.9.2s-1,.9-1.1,1.5-.1,1.4.3,1.9.9,1,1.5,1.1c1.2.2,2.4.5,3.6.7h.5c.7.2,1.3.2,1.9-.2s1-.9,1.1-1.5.1-1.4-.3-1.9-.9-1-1.5-1.1h0Z"/>
            <path class="cls-7" d="M790.9,514.7c-1.6,1.4-3.2,2.8-4.9,4.2s-.5.4-.7.6c-.5.4-.7,1.2-.7,1.8s.3,1.3.7,1.8,1.1.8,1.8.7,1.2-.3,1.8-.7c1.6-1.4,3.2-2.8,4.9-4.2s.5-.4.7-.6c.5-.4.7-1.2.7-1.8s-.3-1.3-.7-1.8-1.1-.8-1.8-.7-1.2.3-1.8.7h0Z"/>
            <path class="cls-7" d="M793.4,519.9c0,3-.1,6-.2,8.9s0,.9,0,1.3c0,1.3,1.2,2.6,2.5,2.5s2.5-1.1,2.5-2.5c0-3,.1-6,.2-8.9s0-.9,0-1.3c0-1.3-1.2-2.6-2.5-2.5s-2.5,1.1-2.5,2.5h0Z"/>
            <path class="cls-7" d="M788.3,496.8c-6.2,5.4-8.4,15-6.7,22.9.8,4,2.9,7.8,6.1,10.4s9.3,4.8,14.1,2.7,9.1-8.4,8-14.3-1.8-2.1-3.1-1.7-2,1.7-1.7,3.1,0,1.5,0,2.1c-.2,1-.5,1.7-1.1,2.5-.9,1.6-2.3,2.9-4,3.7s-3.4.8-5.2.2-1.2-.4-2-.9-.8-.4-1.1-.7-.3-.2-.7-.6c-2.5-2.1-3.7-4.6-4.4-7.8s-.4-2.9-.4-4.7.2-2.9.7-4.7c.9-3.4,2.5-6.4,5.1-8.7s.9-2.6,0-3.5-2.5-.9-3.5,0h0Z"/>
            <path class="cls-7" d="M815.5,494.4c-3.6,6-8,11.3-11.6,17.3s-.3,2.7.9,3.4,2.7.3,3.4-.9c3.6-6,8-11.3,11.6-17.3s.3-2.7-.9-3.4-2.7-.3-3.4.9h0Z"/>
            <path class="cls-7" d="M815.9,494.4c-1.8,0-3.7,0-5.5-.1h-.8c-1.3,0-2.6,1.2-2.5,2.5s1.1,2.5,2.5,2.5,3.7,0,5.5.1h.8c1.3,0,2.6-1.2,2.5-2.5s-1.1-2.5-2.5-2.5h0Z"/>
            <path class="cls-6" d="M814.4,492.1c.4,1.6.6,3.7,1.8,5s4.5,1,6.6.7,4.7-.7,7.1-1.2,4.8-.9,6.9-1.9,2.5-3.7,2.4-6.2-.3-4.8-.6-7.1-.2-5.3-2.7-6.4-4.6-1.1-6.9-1.3-5.3-.4-8-.3-2.5.1-3.8.3-2.9.2-4,1.1-1.6,2.2-.9,3.4,2.3,1.7,3.4.9,1-.3,1.5-.4c1-.1,1.9-.2,2.9-.3,1.8-.1,3.6-.1,5.5,0s3.5.3,5.2.6,1.7.3,2.5.5.4.2.5.1c.5-.2-.8-.7-.6-.8s.2,1.3.2,1.3c.2,1.8.4,3.6.5,5.4s.1,1.9.2,2.8,0,2.3,0,2.4c-.1,0,.4-.4.3-.5s1.6,0-.3,0-.9.2-1.2.3c-.9.2-1.8.5-2.6.7-1.8.4-3.6.8-5.4,1.1s-1.9.3-2.9.4-2.1,0-2.9.3-.7-.2.2.3.5.4.5.3-.2-.7-.3-.9c-.2-.7-.4-1.4-.5-2.1-.3-1.3-1.8-2.1-3.1-1.7s-2,1.8-1.7,3.1h0Z"/>
            <path class="cls-6" d="M810.1,488.4c-1.6,5-4.4,9.5-6.6,14.2s-2.3,4.8-2.5,7.3,1.1,4.1,2.9,5.4,1.4.8,2,1.3-.2-.2.1.1.3.4.4.4c-.3,0,0-.8-.3-.8s-.3.3-.4.4c-.6.4-1.6.7-2.3.9s-.8.2-1.1.3-.5,0-.7.1c.4,0-.1,0-.3,0-.4,0-.7,0-1.1,0s-.3,0-.4,0c-.7,0,.5.1-.1,0s-.6-.1-.8-.2-.3,0-.4-.1c-.5-.2.4.2,0,0s-.5-.3-.8-.4c-.6-.3.1.2-.3-.3s-.4-.4-.6-.6-.2-.2-.2-.3c-.3-.4.2.4-.1-.2s-.7-1-.9-1.6-.5-1-.3-.5c-.2-.4-.3-.8-.4-1.2-.5-1.4-.8-2.9-1.1-4.4s-.2-1.2-.3-2-.2-1.6-.2-2.4c-.1-1.7-.2-3.3-.2-5,0-2.9-.2-5.9-.1-8.8s-.5-2.8-1.4-3.9-1.6-1.3-2.2-2.2c-1.2-1.6-1.7-3.2-1.7-5s.6-3.7,1.5-5.4,2.5-4.1,4-5.9c3.1-3.7,6.6-7,9.9-10.4s-1.3-5.9-3.5-3.5c-3.2,3.3-6.5,6.4-9.5,9.9s-6,7.6-7,12.2.3,10.2,4.1,13.2.7.8.7,1.8,0,1.4,0,2.1c0,1.6,0,3.2,0,4.8,0,3.7.3,7.3.8,11s1.3,6.5,3,9.3,4.5,4.7,7.9,5.1,3.7,0,5.4-.6c2.6-.7,5.4-2,6.2-4.9s-2-4.8-4.2-6.2-.3-.2-.4-.3c.4.3-.3-.3-.4-.4.3.4,0,0,0-.1,0,0,0-.2,0,0,.2-1.2.6-2.4,1.1-3.5,2.3-5.9,6-11.2,7.9-17.3,1-3.1-3.9-4.4-4.8-1.3h0Z"/>
            <path class="cls-6" d="M803.1,454c-1.8-2.6-.1-6.7,1.4-9.2s4.4-4.9,7.6-5.5,6.4.4,8.6,2.8,3.2,6.7,2.3,10.2-3.6,6.7-7.1,8.3-1.5,2.3-.9,3.4,2.2,1.4,3.4.9c9.4-4.2,13-16.7,6.8-25s-7.5-6-12.3-5.6-9,2.9-11.9,6.8-5.3,10.9-2.2,15.4,2.2,1.6,3.4.9,1.7-2.3.9-3.4h0Z"/>
            <path class="cls-6" d="M816.7,465.3c2.7,2.9,5.4,5.9,8.3,8.6s3,2.5,4.6,3.7,3,2.1,4.9,2.4,3.6-.5,5.3-1.8,1.3-.7,1.9.2.1,2.6-.5,3.5c-1,1.4-2.7,2.2-4.2,3-2.9,1.4-.3,5.8,2.5,4.3,3.9-2,7.8-5.2,7.5-10s-4.7-7.8-8.8-5.9-1.5,1.3-2.3,1.6-.7.1-1.3-.1c-1.7-.8-3.3-2.1-4.8-3.3-3.5-2.9-6.5-6.4-9.6-9.7s-5.7,1.2-3.5,3.5h0Z"/>
            <path class="cls-6" d="M803.8,466c2.4,4.9,5.3,10.7,10.1,13.7s5.2,1.6,8.1,1.1.5,0,.7-.1c-.7.2-.3,0,.1,0s.4,0,.6,0c.4,0-.6-.2,0,0s.2,0,.3.1-.5,0-.2,0,.3.1.3.2.1,0,.1,0c-.1,0-.4-.4-.2-.1s.4.4.5.6-.2-.2-.2-.2c0,.1.2.3.3.4.2.3.3.5.3.6.2.4.1.6,0,1s-.3.8-.6,1.2c-.8,1-2.1,1.8-3.2,2.3-3,1.3-5.9.7-8.7-.6s-2.5-1.2-3.9-1.6-2.8-1-4.2-1.7c-3.5-1.8-6.5-4.4-9.3-7.3s-5.8,1.2-3.5,3.5,5.8,5.5,9.2,7.5,3,1.6,4.6,2.2,1.4.5,2.1.7.4.1,1.2.5c3.3,1.5,6.7,2.9,10.4,2.5s7.6-2.4,9.7-5.5,1.5-6.3-.7-8.8-2.2-1.9-3.6-2.1-2.7,0-4,.2-1.1,0-.2,0c-.3,0-.5,0-.8,0s-.6,0-.8,0-.6,0-.2,0-.1,0-.2,0-.4,0-.5-.1-.7-.3-.3-.1-.2-.1-.3-.2c-.2-.1-.4-.2-.6-.3s-.7-.5-.4-.3-.3-.3-.4-.4c-.5-.4-.9-.8-1.3-1.3-2.5-2.7-4.3-6.4-6-9.9s-2.3-1.5-3.4-.9-1.5,2.2-.9,3.4h0Z"/>
            <path class="cls-7" d="M828.4,520.4c2.4-5.5,4.7-11.1,7.1-16.6s.7-1.6,1-2.3c.5-1.2.4-2.7-.9-3.4s-2.9-.4-3.4.9c-2.4,5.5-4.7,11.1-7.1,16.6s-.7,1.6-1,2.3c-.5,1.2-.4,2.7.9,3.4s2.9.4,3.4-.9h0Z"/>
            <path class="cls-7" d="M825.6,521.6c4.5,1.6,9,3.1,13.5,4.7l1.9.7c1.2.4,2.8-.5,3.1-1.7s-.4-2.6-1.7-3.1c-4.5-1.6-9-3.1-13.5-4.7l-1.9-.7c-1.2-.4-2.8.5-3.1,1.7s.4,2.6,1.7,3.1h0Z"/>
            <path class="cls-7" d="M823.9,519.8c1.1,4.9,2.2,9.9,3.2,14.8l.5,2.1c.3,1.3,1.8,2.1,3.1,1.7s2-1.8,1.7-3.1c-1.1-4.9-2.2-9.9-3.2-14.8l-.5-2.1c-.3-1.3-1.8-2.1-3.1-1.7s-2,1.8-1.7,3.1h0Z"/>
            <path class="cls-7" d="M826.3,516.7c-3.7-.5-7.4-1-11.2-1.5l-1.6-.2c-1.3-.2-2.6,1.3-2.5,2.5s1.1,2.3,2.5,2.5c3.7.5,7.4,1,11.2,1.5l1.6.2c1.3.2,2.6-1.3,2.5-2.5s-1.1-2.3-2.5-2.5h0Z"/>
            <path class="cls-7" d="M828.7,518.5c-1.9-5.1-3.7-10.2-5.6-15.3s-.5-1.5-.8-2.2c-.5-1.3-1.7-2.1-3.1-1.7s-2.2,1.8-1.7,3.1c1.9,5.1,3.7,10.2,5.6,15.3s.5,1.5.8,2.2c.5,1.3,1.7,2.1,3.1,1.7s2.2-1.8,1.7-3.1h0Z"/>
            <path class="cls-7" d="M825.6,521.6h0c-.4-.2-.7-.4-1.1-.6h0c-.2-.4-.4-.7-.6-1.1,0-.4,0-1.6.2-1.8,0,0,0,0,0,0,0,.1-.2.2-.2.3s0,.1-.1.2c-.3.4.5-.6.2-.2s-.3.4-.4.6c-.8,1-1.6,1.9-2.4,2.9-1.7,2.1-3.5,4.2-5.2,6.3s-.8.9-1.2,1.4c-.8,1-1.1,2.6,0,3.5s2.6,1.1,3.5,0c3.1-3.6,6.2-7.3,9.1-11s.8-.9,1.1-1.4c.9-1.4.4-3.5-1.4-3.9s-2.8.4-3.1,1.7.4,2.8,1.7,3.1h0Z"/>
            <path class="cls-6" d="M814.7,463.5c.1.3.2.7.2,1s0,.4.1.7c0,.4,0,0,0-.2,0,.1,0,.3,0,.4.1,1.2.2,2.4.3,3.6.1,2,.3,4,.2,6s1.2,2.6,2.5,2.5,2.5-1.1,2.5-2.5c0-2,0-4.1-.2-6.1s-.2-2.4-.3-3.5-.2-2.1-.5-3-1.8-2.2-3.1-1.7-2.2,1.7-1.7,3.1h0Z"/>
          </g>
        </g>
      </g>
      <g>
        <path class="cls-7" d="M440.2,411.3c-3.6,7.2-7.2,14.5-10.9,21.7s-3.3,6.4-5.6,9.2-5.3,5.1-7.4,8.2-2.9,6.6-3.5,10.1-1.2,7.4-2.1,11c-1.5,6.3-3.6,12.3-5.7,18.4s-4.6,14.7-5.8,22.4,0,2.4,1.1,2.8c4.2,1.8,8.6,3,13.1,3.9,10.5,2.1,21.4,2.6,32,1.2,7.8-1,15.5-3,22.8-6s1.9-1.2,1.8-2.4c-.3-8.4-.8-16.8-1.3-25.2s-.9-12.1-1.6-18.1-1.1-7.3-1.5-11-.2-9.5.6-14.2,2.2-10.6,3.3-15.9,1.9-10.9,2.7-16.4-.3-2.7-1.7-3.1-2.9.4-3.1,1.7c-1.3,9.8-3.3,19.4-5.3,29.1s-1.8,9.6-1.7,14.5.9,9,1.5,13.5.1.8.2,1.5.2,1.3.2,2c.2,1.4.3,2.9.4,4.3.3,3.2.6,6.4.8,9.6.4,6,.8,12,1.1,18s.3,6.5.4,9.7l1.8-2.4c-19.1,7.7-40.8,8.9-60.5,2.7-1-.3-2.1-.7-3.1-1.1s-1.8-.7-.5-.2l1.1,2.8c1.1-6.8,2.9-13.5,5-20.1s4.2-12,5.8-18.1,1.7-7,2.3-10.6.9-6.7,2.3-9.8,4.3-5.5,6.7-8.1,4.5-5.9,6.3-9.2c4.2-7.9,8.1-16.1,12.1-24.1s-2.9-5.4-4.3-2.5h0Z"/>
        <g>
          <path class="cls-8" d="M557.3,392.3c-7.1,11.6-25.4,20-37.2,12.2-12.8,19.9-40.4,13.6-57.9,2.9-.3-.2-.6-.1-.7.3-9.5,24.5-46.7,25-56.9.7-.2-.4-.3-.4-.6,0-10.8,18.2-34.8,3.6-34.6-14.3-.6-11.8,9.7-24,22-20.7.5.1.6,0,.5-.6-.4-4.8,6.5-13.8,10.3-15.9,14.5-8,22.4-7,36.2-.2s1.1.1,1.2-.3c3.3-12.9,28.1-20.3,41.7-4.5.2.3.4.5.6.5,1.4-1.2,2.9-2.5,4.8-3.1,12.4-4.8,37.2,4.3,36.5,18.1,0,.2,0,.4.2.5,1.9.1,3.9,0,5.8.2,13,.9,36.4,5.7,28.2,23.9v.2Z"/>
          <path class="cls-6" d="M555.2,391c-3.5,5.6-9.2,9.9-15.3,12.2s-12.9,2.7-18.4-.9c-1.2-.8-2.7-.2-3.4.9-4.1,6.3-10.2,10-17.4,11.3-7.1,1.2-14.9,0-21.9-2.3s-7-2.6-10.4-4.3-3.2-1.9-4.8-2.7-3.1-.5-4,1-.6,1.5-1.1,2.4c-2.8,5.8-7.3,10-13.1,12.7s-1.1.5-1.8.7-1.6.5-2.4.8-1.4.4-2.2.5-.8.1-1.2.2-.3,0-.5,0c-.2,0-.2,0,0,0-.1,0-.3,0-.4,0-1.6.2-3.1.3-4.7.2s-1.5,0-2.2-.1-.8,0-1.2-.1.6,0-.2,0-.4,0-.6-.1c-6.3-1.1-11.7-3.8-16-8.3s-1.9-2.2-2.8-3.6-1.5-3.1-2.4-4.5-3-1.7-4.2-.5-1.2,1.9-1.9,2.7c-1,1.3-2.2,2.4-3.4,3.2s-2.4,1.3-4,1.7-.9.2-1.9.3-1.5,0-2.3,0,.2,0-.2,0-.4,0-.6-.1c-.3,0-.7-.1-1-.2-.8-.2-1.6-.5-2.4-.8s-1.2-.6-1.7-.8c-.8-.4-1.5-.9-2.2-1.4-5.2-3.7-8.7-10-8.9-16.4s.7-7.6,2.7-11.1,4.7-5.8,8.1-7.1,3.6-.9,5.5-.8,1.8.3,2.7.5c1.7.3,3.3-.8,3.4-2.6s0-.7,0-1,0-.4,0-.6c0,.1,0,.4,0,0s.4-1.6.6-2c.7-1.8,1.8-3.4,2.9-4.9s2.2-2.8,3.5-4.1.6-.5.9-.8.4-.3,0,0c.1,0,.2-.2.4-.3,1-.6,2-1.1,3-1.7,3.9-2,8.2-3.7,12.6-4,4.2-.3,8.1.6,12,2.1s4.5,1.9,6.7,3,2.7.6,3.8-.3,1.1-1.8,1.4-2.8.2-.4,0,0c0-.1.1-.3.2-.4.2-.3.3-.6.5-.9s.4-.6.6-.9.2-.3.3-.4c.4-.6-.3.3.2-.2s.9-1,1.4-1.5.5-.5.8-.8.5-.4.7-.6c2.7-2,5.3-3.1,8.4-3.9,6.6-1.6,13.9-.6,19.8,3.5s3,2.4,4.3,3.9,2.4,1.8,3.8,1,2-1.7,3.1-2.3,3-1.2,4.5-1.5.4,0,.6-.1c-.1,0-.4,0,.1,0s.7,0,1,0c.9,0,1.8,0,2.7,0,6.6.1,13.5,2.3,19,6.2s4.3,3.7,5.6,6.3.1.3.2.4c-.2-.4,0,0,0,.2.1.3.2.7.3,1s.1.6.2.9c0,.5,0,.1,0,0,0,.2,0,.5,0,.7,0,1.2-.1,2.3.8,3.3s2.7,1,4.1,1,3.9.1,5.9.3,1.5.2,2.2.2.3,0,.5,0c-.4,0,0,0,0,0,.5,0,.9.1,1.4.2,3.2.5,6.3,1.2,9.4,2.2s2.5.9,4,1.6,1.2.7,1.8,1,.6.4.9.6.3.2.5.3c.4.3-.2-.2.2.2s.9.8,1.4,1.2.5.5.8.8.3.4,0,0c.1.2.3.4.4.5.3.5.6,1.1.9,1.6s-.1-.4,0,0,.1.3.2.5c.1.4.2.7.3,1.1s.1,1,0,.5c0,.4,0,.7,0,1.1s0,.7,0,1.1,0,.3,0,.5c0-.4,0,0,0,.1-.2,1.5-.7,3.1-1.4,4.4-1.5,2.9,2.8,5.4,4.3,2.5s2.6-7.4,1.9-11.1-2.4-6.1-4.8-8.2c-5.3-4.6-12.6-6.6-19.3-7.7-4.6-.7-9.1-.9-13.8-1.2l1.8.7v-.2c.1.6.3,1.2.6,1.8-.1-1.7-.1-3.3-.6-4.9s-1.2-3.1-2.2-4.4c-2.1-3-4.9-5.3-8.1-7.2-6.4-3.8-14.3-6-21.8-5.6s-3.9.4-5.7.9c-2.8.8-5,2.3-7.2,4.2l2.4-.6h-.2c.4.2.7.4,1.1.6-.8-.6-1.4-1.5-2.1-2.2s-1.7-1.5-2.5-2.2c-1.6-1.2-3.2-2.2-5-3.1-3.6-1.6-7.4-2.6-11.4-2.7-7-.2-14.4,2-19.7,6.6s-2.5,2.5-3.4,3.9-.8,1.3-1.1,2-.4,1-.6,1.5-.4,1.1-.2.8l.9-.9c1.1-.7,1.3.2.6-.3s-.7-.3-1-.5c-.5-.2-1-.5-1.6-.7-1.2-.5-2.4-1-3.6-1.5-2-.8-4-1.5-6.1-1.9-4.1-.9-8.2-1-12.4,0s-9.3,3-13.4,5.4-5.3,4.7-7.2,7.4-2.3,3.7-3.1,5.7-.8,3.4-1,5.3l.3-1.3h0c.5-.3,1-.6,1.5-1h-.2c.4,0,.9,0,1.3,0-1.8-.3-3.6-.7-5.4-.7s-3.5.3-5.2.9c-3.3,1.1-6.2,3.1-8.5,5.7-4.7,5.2-6.8,12.1-6.2,19.1,1,11.6,10.8,22.6,22.8,23.2,3.1.2,6.3-.6,9.1-2.2s5.3-4.7,7.5-7.7l-.9.9h.2c-.8,0-1.7,0-2.5,0h.1c-.3-.2-.6-.5-.9-.8.7,1.1,1.1,2.3,1.7,3.4s1.3,2.1,2.1,3.1c1.5,2,3.3,3.9,5.3,5.5,4,3.1,8.6,5.3,13.5,6.4,9.6,2.1,20.3.4,28.3-5.6s4.3-3.6,6-5.8,1.8-2.5,2.6-3.8.7-1.3,1-1.9.3-.6.4-.9.3-.6.4-.9c.2-.5.4-.3,0,0l-1.8.7c-.8,0-.7-.2,0,.2s.3.2.5.3c.4.3.9.5,1.3.8,1,.6,2,1.1,3,1.6,2,1,4.1,1.9,6.1,2.7,4.2,1.7,8.5,2.9,12.9,3.7,8.6,1.5,17.7,1.2,25.6-3s8.3-6.1,11.1-10.4l-3.4.9c10.7,7,24.9,2.2,33.9-5.4s4.9-4.8,6.7-7.7-2.6-5.3-4.3-2.5Z"/>
        </g>
      </g>
    </g>
  </g>
  <path class="cls-4" d="M500,1.5h0c36.7,0,66.5,29.8,66.5,66.5h0c0,36.7-29.8,66.5-66.5,66.5h0c-36.7,0-66.5-29.8-66.5-66.5h0c0-36.7,29.8-66.5,66.5-66.5Z"/>
  <path class="cls-10" d="M500,1.5h0c36.7,0,66.5,29.8,66.5,66.5h0c0,36.7-29.8,66.5-66.5,66.5h0c-36.7,0-66.5-29.8-66.5-66.5h0c0-36.7,29.8-66.5,66.5-66.5Z"/>
  <path class="cls-5" d="M468.3,57.3h27.8v4.7h-27.8v-4.7ZM466.6,69.1h28v4.6h-28v-4.6ZM462,81.8h36.2v4.7h-36.2v-4.7ZM477.6,50h5v34h-5v-34ZM468.3,50.5l5,1.1c-1.8,6.2-4.7,12.4-7.8,16.2-1-.8-3.1-2.2-4.3-2.9,3.2-3.4,5.7-8.9,7.2-14.4ZM515.7,71.4h21v16h-4.6v-11.7h-12v11.8h-4.4v-16.2ZM533.5,50l3.7,3.8c-5.9,2.2-14,3.5-21.1,4.1-.2-1.2-.8-3-1.4-4.1,6.8-.7,14.3-2,18.8-3.8ZM523.9,54.5h4.6v19.4h-4.6v-19.4ZM513.2,61.7h25.5v4.6h-25.5v-4.6ZM518.8,81.6h15.2v4.3h-15.2v-4.3ZM503.3,54l2.7-3.4c2.2,1.1,5.7,2.9,7.4,4l-2.8,3.9c-1.6-1.2-5-3.1-7.3-4.4ZM501.4,65.1l2.6-3.6c2.3,1.1,5.8,2.8,7.6,3.9l-2.7,4c-1.6-1.1-5.1-3-7.5-4.3ZM502,83.9c2.2-3,5.2-8,7.6-12.6l3.5,3.2c-2.1,4.2-4.7,8.8-7.1,12.7l-4.1-3.2Z"/>
</svg>