<?xml version="1.0" encoding="UTF-8"?>
<svg id="_圖層_1" data-name="圖層 1" xmlns="http://www.w3.org/2000/svg" xmlns:xlink="http://www.w3.org/1999/xlink" version="1.1" viewBox="0 0 1000 485">
  <defs>
    <style>
      .cls-1 {
        fill: #fff5dc;
      }

      .cls-1, .cls-2, .cls-3, .cls-4, .cls-5, .cls-6, .cls-7 {
        stroke-width: 0px;
      }

      .cls-8 {
        clip-path: url(#clippath);
      }

      .cls-2, .cls-9 {
        fill: none;
      }

      .cls-3 {
        fill: #fbf2da;
      }

      .cls-9 {
        stroke: #ffc337;
        stroke-width: 3px;
      }

      .cls-4 {
        fill: #d2c19c;
      }

      .cls-5 {
        fill: #c88c00;
      }

      .cls-6 {
        fill: #e6d5ae;
      }

      .cls-10 {
        opacity: .5;
      }

      .cls-7 {
        fill: #fff;
      }
    </style>
    <clipPath id="clippath">
      <rect class="cls-2" x="0" y="76" width="1000" height="407" rx="60" ry="60"/>
    </clipPath>
  </defs>
  <g class="cls-8">
    <rect class="cls-3" y="58.4" width="1000" height="426.3"/>
    <g class="cls-10">
      <path class="cls-7" d="M687,305.7l-12.5-4.1s-47.5,12-54,18-9.4,9-9.4,9l16.6,74.2,13.3,56.3,18.3,4-15.7-44.9-14.7-64.2-4.2-20.6.9-5.8,61.4-21.9Z"/>
      <path class="cls-7" d="M718.2,436.5l-49.7,13.3-4.6-3.3s-26.1-88.8-25.3-99.6,1-13.4,1-13.4l8,4.1,32.9-12,2.6-4.9h2.1l21.6,61.1s-8.2,4.7-4.4,15.9c3.9,11.2,15.4,15.8,15.3,25.8s.5,12.9.5,12.9Z"/>
      <path class="cls-6" d="M742.2,390.3c-8.7-1.3-14.7-8.9-22.9-11.7s-8.3-1.4-12.1.3-5.9,4.6-7,8.2c-2.4,7.4.9,14.6,5.5,20.3s4.5,5.2,6.4,8,3.1,7.1,3.6,11.2,1.3,9.6,2.8,14.2,3.6,9.3,6.2,13.5,6,.2,4.3-2.5c-4.2-6.8-6.9-14.4-8-22.3s-.8-8.4-2.3-12.3-3.4-6.1-5.7-8.9c-3.9-4.8-8.6-9.6-8.5-16.2,0-2.8.9-5.7,3-7.6s6.1-2.3,9.2-1.5c4.3,1.1,8,3.8,11.6,6.3s8,5.1,12.7,5.8,2.7-.3,3.1-1.7-.4-2.9-1.7-3.1h0Z"/>
      <path class="cls-6" d="M693.4,303.2c-14,1.8-27.6,6.3-40.9,11-6.2,2.1-12.3,4.4-18.3,6.9s-7.3,2.8-10.3,5-1.7,1.6-1.7,2.9.2,1.6.3,2.3c.3,2.4.8,4.8,1.2,7.2,1.5,8.7,3.2,17.4,5,26.1s4.7,22.9,7.4,34.4c2.6,11.3,5.3,22.6,8.4,33.8s4.8,17,8.4,25,2.2,4.7,3.9,6.5,5.5,2.4,8.5,2.3c5-.2,10-1.3,14.8-2.4s11.6-2.9,17.3-4.6c8.7-2.6,17.4-5.4,26-8.3s.9-.3,1.4-.5c1.3-.5,2.1-1.7,1.7-3.1s-1.8-2.2-3.1-1.7c-6.2,2.2-12.4,4.2-18.6,6.2-10.9,3.4-21.9,6.7-33.1,8.7s-1.1.2-1.7.3-.6,0-.9.1c-.6,0,.3,0-.4,0-1,.1-2,.2-3,.3s-1.8,0-2.7,0-.7,0-1,0c-.6,0,.6.1,0,0s-.3,0-.5,0c-.3,0-.5-.2-.8-.2s.6.4.2,0-.2-.2-.4-.2c-.5-.2.5.5,0,0s-.3-.3-.4-.4-.2-.3-.4-.5.4.6.1.2-.2-.2-.3-.4c-.3-.5-.6-.9-.9-1.4-.7-1.2-1.3-2.4-1.8-3.7s-.2-.4-.2-.6-.3-.7-.1-.3,0-.2-.1-.3c0-.2-.2-.5-.3-.7-.3-.8-.7-1.7-1-2.5-1.5-4.1-2.8-8.2-4.1-12.3-3.1-10.5-5.8-21.1-8.3-31.8-2.7-11.4-5.2-22.9-7.6-34.4s-3.9-19.1-5.6-28.7c-.6-3.2-1.2-6.4-1.7-9.6s-.3-2.1-.5-3.2,0-.4,0-.6c0-.3,0,.8,0,0s0-.5,0-.8,0-.4,0-.4c.3.3-.6,1.6-.6,1.6s0-.1.1-.1c.3-.3-.4.2-.2.1,1.2-.6,2.4-1.4,3.6-2s1.9-.9,2.8-1.3c1.4-.6,2.1-.9,3.2-1.4,2.8-1.2,5.6-2.3,8.5-3.4,13.2-5,26.8-9.5,40.6-12.6s2.9-.6,4.4-.9,1.3-.2,2-.3.7-.1,1.1-.2,1.1-.2.6,0c1.3-.2,2.5-1,2.5-2.5s-1.2-2.7-2.5-2.5h0Z"/>
      <path class="cls-6" d="M691,306.4c6.2,19.1,13.1,38,18.9,57.2,1.7,5.7,3.3,11.4,4.9,17.2s5.6,1.8,4.8-1.3c-5.1-19.4-11.7-38.4-18.2-57.4s-3.8-11.3-5.7-16.9-5.8-1.7-4.8,1.3h0Z"/>
      <path class="cls-6" d="M714,366.8c10.6,3.6,21.4,7.4,30.8,13.7s8.6,6.5,11.9,10.8c3.8,4.9,6.3,10.7,8.2,16.5s2.8,9.6,4.4,14.4,3,8.8,4.6,13.2c3.6,10,7.3,19.9,10.8,29.9,3.4,9.8,6.9,19.7,8.8,29.8.2,1.3,1.9,2.1,3.1,1.7s2-1.7,1.7-3.1c-1.7-9.1-4.7-17.9-7.7-26.6s-7.3-20.4-11-30.7-3.3-9.2-4.9-13.8-2.8-9.1-4.2-13.6-4.3-12.8-8.1-18.4-7.4-8.8-12-12.3c-10.4-7.8-22.9-12.2-35-16.3-3.1-1-4.4,3.8-1.3,4.8h0Z"/>
      <path class="cls-6" d="M688.6,461.5c4.7,5.7,9.5,11.4,14.2,17.3,3.9,4.8,7.4,10,8.3,16.2s1.9,2.1,3.1,1.7,1.9-1.7,1.7-3.1c-1-6.8-4.9-12.5-9.1-17.8s-9.8-11.9-14.7-17.9-2.6-.9-3.5,0-.9,2.5,0,3.5h0Z"/>
      <path class="cls-4" d="M656.1,367.4c1.4,5.5,3.3,10.9,5.7,16.1s2.4,1.6,3.4.9,1.5-2.1.9-3.4c-2.1-4.6-3.9-9.8-5.2-14.9s-1.8-2.2-3.1-1.7-2.1,1.7-1.7,3.1h0Z"/>
      <path class="cls-4" d="M665.4,363.8c-2.4,2.7-4.6,5.7-6.3,8.9s-.4,1.5-.1,2.2.9,1.3,1.6,1.4c3.2.5,6.5,1,9.7,1.5s1.3.1,1.9-.3,1-.9,1.1-1.5c.3-1.2-.4-2.9-1.7-3.1-3.2-.5-6.5-1-9.7-1.5l1.5,3.7c.8-1.5,1.7-2.9,2.7-4.3s.5-.7.7-1,.2-.3.4-.5c-.4.5,0,0,0-.1.5-.7,1.1-1.3,1.7-2,.9-1,1-2.6,0-3.5s-2.6-1-3.5,0h0Z"/>
      <path class="cls-4" d="M672.5,363.9c.3,2.9.7,5.8,2,8.5s3.4,4.4,6,5.2,5.6,0,7.5-1.9,2.7-4.3,2.8-6.8-1.5-6.7-2.9-9.7-2.3-1.6-3.4-.9-1.5,2.2-.9,3.4.5,1,.7,1.5.2.5.3.7c0,0,.2.4,0,.2s.1.3.1.3c.2.5.4,1,.5,1.5s.3,1.3.4,1.6c0-.2,0,.2,0,.2,0,.1,0,.3,0,.4,0,.2,0,.5,0,.7s0,.7,0,.4,0,0,0,0c0,.1,0,.3,0,.4,0,.4-.2.8-.4,1.2.2-.4,0,0,0,.1s-.2.4-.4.6-.1.2-.2.2c0,0,.3-.3,0-.1s-.3.3-.4.4-.2.1-.2.2c0,0,.4-.2.1,0s-.4.2-.6.4-.4.1,0,0c0,0-.2,0-.3,0s-.7.1-.4.1-.3,0-.4,0-.2,0-.3,0c.2,0,.3,0,0,0s-.4-.1-.6-.2c-.4-.1.2.1-.2,0s-.4-.2-.6-.3-.2-.1-.3-.2c-.3-.2.2.2,0,0s-.7-.6-1-.9-.1-.2-.2-.3c0,0,.2.3,0,0s-.3-.5-.4-.7-.1-.2-.2-.3-.2-.5-.1-.3,0-.2,0-.2c0-.2-.1-.4-.2-.6-.2-.6-.3-1.1-.5-1.7s-.1-.6-.2-.9,0-.3,0-.4,0-.5,0-.3,0-.2,0-.2c0-.2,0-.3,0-.5,0-.3,0-.7-.1-1-.1-1.3-1-2.6-2.5-2.5s-2.7,1.1-2.5,2.5h0Z"/>
      <path class="cls-4" d="M672.2,411.3c-.9-3.2-1.2-6.4-1.1-9.7s.2-3.2.5-4.7.3-1.5.5-2.2,0-.2.3-.5c0-.1,0-.2,0,0,.2-.2.2-.2,0,0,0,0-.9,0-.8,0s.6.7.6.7c.5.5.9,1.1,1.4,1.7,1,1.2,2,2.5,2.9,3.8,1.9,2.7,3.5,5.5,5,8.4s2.3,1.6,3.4.9,1.5-2.2.9-3.4c-2.8-5.5-6.3-10.7-10.4-15.3-1.2-1.3-2.8-2-4.5-1.6s-2.6,1.7-3.2,3c-1.3,2.8-1.5,6.3-1.6,9.3s.4,7.4,1.3,11,5.7,1.8,4.8-1.3h0Z"/>
      <path class="cls-4" d="M670.5,406.9l9.1-3.9c.5-.2,1-1,1.1-1.5s0-1.4-.3-1.9-.9-1-1.5-1.1-1.3,0-1.9.3l-9.1,3.9c-.5.2-1,1-1.1,1.5s0,1.4.3,1.9.9,1,1.5,1.1,1.3,0,1.9-.3h0Z"/>
      <path class="cls-4" d="M680,390.4c3.4,7.6,6.9,15.1,9.8,22.8s1.7,2.1,3.1,1.7,2.2-1.8,1.7-3.1c-3.1-8.2-6.8-16.1-10.3-24s-2.3-1.5-3.4-.9-1.4,2.2-.9,3.4h0Z"/>
      <path class="cls-4" d="M684.4,389.6c-.3.6,0,0,.1-.2,0,0,.1-.2.2-.3-.2.3-.2.3,0,.1.1,0,.4-.5.5-.5-.3.2-.3.2,0,0,0,0,.2-.1.3-.2.2,0,.4-.3.6-.3-.3.1-.4.2-.1,0,.1,0,.2,0,.3-.1.2,0,.3,0,.5-.1.3,0,.2,0-.1,0,.1,0,.2,0,.4,0,.2,0,.5,0,.7,0,.3,0,.2,0-.1,0,.1,0,.2,0,.3,0,.2,0,.5.1.7.2-.6-.2.1,0,.2.2s.3.2.5.3c-.5-.4.1.1.2.2s.6.7.2.2c.1.2.3.4.4.6s.2.4.3.7c-.3-.6,0,.2,0,.3,0,.2.1.4.2.6.1.7,0-.3,0,.2s0,.5,0,.8c0,.1,0,.3,0,.4,0,.3,0,.3,0,0,0,.4-.3,1.1-.4,1.5.2-.6-.1.2-.2.3,0,.2-.2.3-.3.5s-.6.7-.2.3c-.2.2-.3.4-.5.6s-.4.4-.6.5c-.2.2-.2.2,0,0-.1,0-.2.2-.3.2-.4.3-.9.5-1.4.8-1.2.5-1.6,2.4-.9,3.4s2.1,1.5,3.4.9c4.3-2,7.1-6.7,6.2-11.5s-1.9-4.4-3.8-5.7-4.3-1.7-6.5-1.2-4.7,2.5-5.7,4.9.5,2.8,1.7,3.1,2.5-.4,3.1-1.7h0Z"/>
      <path class="cls-6" d="M718.8,434.7c-9.8,3.4-19.8,6.5-29.9,9.2s-7.2,1.9-10.8,2.6-3.1.6-4.7.9-.7.1-1,.2-.4,0-.6,0c-.5,0,.8-.1-.3,0s-1.5.3-2.5.3-.3,0-.8-.1-.9-.3-.6-.2c-.8-.4-1-.5-1.5-1.2s-1.2-2.2-1.5-3.4-.4-1.4-.6-2.1c-2-6.6-4-13.1-6-19.7-3-10.1-6-20.3-8.7-30.5s-5.4-20.9-7.5-31.4-.8-4.5-1.2-6.8-.2-1-.2-1.6,0-.5-.1-.7,0-.2,0-.4c0-.6,0,.6,0,0-.1-1-.2-1.9-.3-2.9-.2-1.8-.3-3.5-.4-5.3s0-1.5,0-2.2.2-1.4.2-2c0,.7,0,.2,0-.3s.1-.5.2-.8.1-.4.2-.7,0-.2.1-.3c0-.4-.3.6,0,.2s.2-.4.3-.5c.3-.6-.4.4,0,0s0,0-.1,0c0,0,.1,0,.2-.1.5-.2-.3,0-.3.1,0,0,.4-.1.5-.1-1,.1-.4,0,0,0,.6,0-.7-.2,0,0s.4.1.7.2c.6.2-.6-.3.1,0s.9.5,1.3.8c1.3.8,2.2,2.1,3.5,2.9,2.3,1.4,4.8.4,7.2-.3s3.6-1.1,5.5-1.6c6-1.9,11.9-3.8,17.7-6.3s4.4-1.8,5.9-3.5,1.1-1.9,1.1-3,.1-1.8,0-2.5,0,0,0,.2h0c-.5.5-.6.6-.3.5,0,0,.9-.2.5-.2.3,0,.4,0,.7.3.3.3.5.6.9,1.3s.5,1,.8,1.8c.6,1.5,1.1,2.9,1.7,4.4,1.4,3.6,2.7,7.2,4,10.9,4.6,12.8,8.9,25.6,13.1,38.5s.5,1.6.8,2.3c1,3.1,5.8,1.7,4.8-1.3-3.3-10.3-6.7-20.5-10.3-30.7-2.7-7.7-5.4-15.4-8.4-23-1.2-3-2.1-6.6-4.9-8.6s-3.5-1.3-5.2-.6-3.3,2.7-3.2,5.1,0,.8,0,1.1c0,.7-.2.5,0,.2s-.8.5,0,0c-.2.1-.4.3-.6.4-1,.6-2,1.1-3,1.6-2.4,1.1-5.4,2.2-8.3,3.2-4.9,1.7-9.8,3.3-14.7,4.7s-1.4.5-2.1.7-.5.1-.8.2c-.5,0,.3,0-.1,0s-.7,0,0,0c0,0-.3,0-.4,0,.4.3,0,0-.2-.2.5.3-.3-.3-.4-.4-1.7-1.5-3.6-3.1-5.9-3.7s-5,.3-6.2,2.7-1.4,5.4-1.4,8.1c0,4,.5,7.9,1.1,11.8,1.6,10.4,4,20.6,6.6,30.8s5.8,21.6,9,32.3c2.3,7.9,4.7,15.7,7.1,23.5s1.1,4.1,1.8,6c1.3,3.9,4,6.9,8.2,7.4s3.7-.3,5.5-.6,3.3-.5,4.9-.9c13.2-2.7,26.1-6.8,38.9-11.1.9-.3,1.8-.6,2.6-.9,1.3-.4,2.1-1.7,1.7-3.1s-1.8-2.2-3.1-1.7h0Z"/>
      <path class="cls-6" d="M694,303.3c-4.8-1.2-9.6-2.5-14.4-3.7s-2.2-.6-3.5-.3-2.8.6-4.2.9c-13.7,3.1-27.5,6.9-40.5,12.3-7.8,3.2-15.7,6.9-22.2,12.5s-.8,1.6-.6,2.4c1,5.1,2,10.2,3.1,15.4,2.4,11.9,4.8,23.8,7.3,35.7,2.8,13.8,5.7,27.6,8.7,41.3s4.5,21,7.2,31.5,1.2,5.1,2.2,7.5.6,1.5,1.4,2.1,1.4.7,2,1c3.9,1.7,7.9,3,12.1,3.8s6,1,9,1.1,3.2-4.8,0-5c-5.2-.3-10.2-1.3-15.1-2.9s-1.6-.6-2.5-.9-1.1-.5-.6-.2c-.3-.1-.5-.2-.8-.4-.5-.2-1.1-.5-1.6-.8l.9.9c0,0,0-.2-.1-.3-.2-.4.3.8,0,.1s-.3-.8-.4-1.1c-.4-1.1-.7-2.3-1-3.4-1-3.5-1.8-7-2.6-10.6-2.5-10.6-4.8-21.3-7.1-31.9-2.6-12.4-5.2-24.7-7.8-37.1s-4.3-21-6.4-31.5c-.7-3.4-1.4-6.8-2.1-10.2s-.5-3.3-1-4.9,0-.1,0-.2l-.6,2.4c1.1-.9,1.4-1.2,2.5-2s2.1-1.5,3.2-2.1c2.4-1.4,4.8-2.7,7.3-3.9,5.3-2.6,10.7-4.7,16.3-6.6,9.7-3.4,19.7-6.1,29.7-8.4,2-.5,4.1-.9,6.1-1.3h-1.3c5.3,1.4,10.7,2.7,16,4.1s4.4-4,1.3-4.8h0Z"/>
      <g>
        <path class="cls-7" d="M379.4,369.3c-2.6-1-5.2-2-7.9-3-.5,1.2,17,42.3,25.2,58.6,1.7-10,3.4-19.9,5.1-29.9,11.8-.9,23.6-2.3,35.4-4.1-19.3-7.2-38.6-14.5-57.9-21.7Z"/>
        <path class="cls-6" d="M380.1,366.9c-2.6-1-5.2-2-7.9-3s-2.7.6-3.1,1.7c-.5,1.7.9,4.3,1.5,5.9,1.4,3.7,2.9,7.4,4.4,11,4.2,10,8.5,19.9,13,29.8s4.3,9.3,6.6,13.9,4.2,1.5,4.6-.6c1.7-10,3.4-19.9,5.1-29.9l-2.4,1.8c12.1-.9,24.1-2.3,36-4.2s1.8-1.4,1.8-2.4-.8-2-1.8-2.4c-19.3-7.2-38.6-14.5-57.9-21.7-1.3-.5-2.7.5-3.1,1.7s.5,2.6,1.7,3.1c19.3,7.2,38.6,14.5,57.9,21.7v-4.8c-11.5,1.8-23.1,3.1-34.7,4s-2.2.7-2.4,1.8c-1.7,10-3.4,19.9-5.1,29.9l4.6-.6c-4.3-8.6-8.2-17.4-12.1-26.2s-7.4-16.9-10.8-25.8-1.1-2.8-1.6-4.2-.3-.8-.4-1.3,0-.3,0-.4c0,.1,0,.7,0,1l-3.1,1.7c2.6,1,5.2,2,7.9,3s2.7-.5,3.1-1.7-.5-2.6-1.7-3.1Z"/>
      </g>
      <path class="cls-6" d="M370.5,369.1c9.8,9.4,19.8,18.4,29.6,27.8s5.9-1.3,3.5-3.5c-9.8-9.4-19.8-18.4-29.6-27.8s-5.9,1.3-3.5,3.5h0Z"/>
      <path class="cls-6" d="M425.2,426c.4,15,15.8,28.6,30.8,27.1s8-1.6,10.9-4.2,3.2-3.9,3.3-6.4-1.5-4.9-3.8-5.9c-4.6-2-9.9,1.6-10.5,6.3s2.4,8.3,6.1,10.1,10.4,1.7,15.6,1,11-1.7,16.3-3.1,5.1-1.6,7.7-2.5,4.3-1.7,5.5-3.8c1.8-3,1.2-6.8-1.4-9.2s-4.9-2.8-7.6-2.3-4.8,2.9-5,5.8.3,3.8,1.3,5.2,3.1,2.4,5.1,2.6c4.4.6,9.1-.5,13.5-1.1,22.9-3.2,45.8-7,68.6-11.1,2.8-.5,5.7-1,8.5-1.5s2.1-1.9,1.7-3.1-1.7-2-3.1-1.7c-19.4,3.5-38.8,6.9-58.2,9.9s-9.8,1.5-14.7,2.2-8.2,1.3-12.3,1.5-3,.2-4.1-.1-.3,0-.5-.2c.1,0,.3.2,0,0s-.4-.2-.1,0-.2-.3,0,0-.3-.6-.1-.2c-.1-.4-.2-.8-.3-1.1,0,.4,0-.4,0-.5,0-.3,0-.5,0-.8,0,.6,0-.1.1-.3-.1.5,0,0,.1-.2.2-.4-.2.4,0,0-.2.3-.3,0,0,0s.2-.1.3-.1c0,0-.5.2-.2,0s.4-.1.6-.2c-.5.1-.2,0,0,0s.4,0,.6,0c.4,0-.4-.1.1,0s.5.1.8.2.2,0,.3,0c.3.1-.4-.2,0,0s.4.2.6.3.4.2.5.4c.3.2-.3-.3,0,0s.2.2.3.3.5.6.3.3.1.2.2.3.1.2.2.3c0,0-.2-.5,0-.2s.1,1,.1.3c0,1.2-.2,2-1.2,2.6-1.7,1-3.9,1.6-5.8,2.2s-4.4,1.3-6.7,1.9c-4.4,1.1-8.9,1.8-13.5,2.3s-8.6,1.3-12.2-1-2.1-1.7-2.5-2.8-.6-2.3,0-3.2,2.1-1.6,3.1-1.1.6,1.9.2,2.7c-1.5,2.5-4.8,3.6-7.5,4.1-5.5,1.1-11.4-.8-16.2-4s-8.7-8.2-10.2-13.7-.5-2.6-.6-4.1c0-3.2-5.1-3.2-5,0h0Z"/>
      <path class="cls-6" d="M654.2,326.5h0c0-.5,0-.8-.2-1.1-.1-.3-.3-.6-.5-.8-.2-.2-.5-.4-.8-.5-.3-.2-.6-.2-1-.2h-.7c-.4.2-.8.4-1.1.7l-.4.5c-.2.4-.3.8-.3,1.3h0c0,.5,0,.8.2,1.1.1.3.3.6.5.8.2.2.5.4.8.5.3.2.6.2,1,.2h.7c.4-.2.8-.4,1.1-.7l.4-.5c.2-.4.3-.8.3-1.3h0Z"/>
      <path class="cls-6" d="M670.1,317.8c-3.6,1.3-7.2,2.6-10.8,3.9l-1.5.6c-1.2.4-2.2,1.7-1.7,3.1s1.8,2.2,3.1,1.7c3.6-1.3,7.2-2.6,10.8-3.9l1.5-.6c1.2-.4,2.2-1.7,1.7-3.1s-1.8-2.2-3.1-1.7h0Z"/>
    </g>
  </g>
  <path class="cls-1" d="M500,1.5h0c36.7,0,66.5,29.8,66.5,66.5h0c0,36.7-29.8,66.5-66.5,66.5h0c-36.7,0-66.5-29.8-66.5-66.5h0c0-36.7,29.8-66.5,66.5-66.5Z"/>
  <path class="cls-9" d="M500,1.5h0c36.7,0,66.5,29.8,66.5,66.5h0c0,36.7-29.8,66.5-66.5,66.5h0c-36.7,0-66.5-29.8-66.5-66.5h0c0-36.7,29.8-66.5,66.5-66.5Z"/>
  <path class="cls-5" d="M474.7,54.6h23.4v4.3h-23.4v-4.3ZM478.7,81.3h15.3v4.4h-15.3v-4.4ZM473.6,64.4h25.2v4.3h-25.2v-4.3ZM484,50.2h4.8v6h-4.8v-6ZM476.8,71.6h19.7v15.8h-4.8v-11.5h-10.3v11.6h-4.6v-15.9ZM490.5,58.3l4.9,1.2c-.9,2.1-1.7,4.1-2.4,5.5l-4.2-1.1c.6-1.5,1.3-3.9,1.6-5.6ZM478.1,59.4l4.4-.9c.8,1.6,1.4,3.9,1.6,5.4l-4.6,1.1c0-1.5-.6-3.8-1.3-5.6ZM461.8,59.5h12.5v4.5h-12.5v-4.5ZM465.9,50.5h4.6v26.6h-4.6v-26.6ZM460.9,77.2c3.5-1.1,8.8-3.1,13.7-5l1,4.4c-4.5,2-9.3,3.9-13.2,5.4l-1.5-4.9ZM503,58.4h30.6v4.9h-30.6v-4.9ZM531.7,58.4h5s0,1.6-.1,2.3c-.8,16-1.6,22.1-3.4,24.2-1.2,1.5-2.3,2-4.1,2.2-1.5.2-4,.2-6.4,0,0-1.4-.8-3.6-1.7-5,2.6.2,4.9.2,6,.2s1.3-.2,1.8-.7c1.4-1.4,2.2-7.7,2.9-22.4v-1ZM515.3,50.1h5.1v8.2c0,9.1-1.3,21.8-14.9,29.4-.8-1.2-2.6-3-3.8-3.9,12.4-6.8,13.6-17.8,13.6-25.6v-8.2Z"/>
</svg>