<?xml version="1.0" encoding="UTF-8"?>
<svg id="_圖層_1" data-name="圖層 1" xmlns="http://www.w3.org/2000/svg" xmlns:xlink="http://www.w3.org/1999/xlink" version="1.1" viewBox="0 0 1000 728">
  <defs>
    <style>
      .cls-1 {
        fill: #972232;
      }

      .cls-1, .cls-2, .cls-3, .cls-4, .cls-5, .cls-6, .cls-7 {
        stroke-width: 0px;
      }

      .cls-8 {
        clip-path: url(#clippath);
      }

      .cls-2, .cls-9 {
        fill: none;
      }

      .cls-3 {
        fill: #eac4c4;
      }

      .cls-9 {
        stroke: #ebb4bd;
        stroke-width: 3px;
      }

      .cls-4 {
        fill: #d09999;
      }

      .cls-10 {
        opacity: .5;
      }

      .cls-5 {
        fill: #fbe5e5;
      }

      .cls-6 {
        fill: #ffe8e8;
      }

      .cls-7 {
        fill: #fff;
      }
    </style>
    <clipPath id="clippath">
      <rect class="cls-2" x="0" y="76" width="1000" height="652" rx="60" ry="60"/>
    </clipPath>
  </defs>
  <g class="cls-8">
    <rect class="cls-5" x="-67.7" y="64.4" width="1133.4" height="675.5"/>
    <g class="cls-10">
      <g>
        <g>
          <path class="cls-7" d="M136.6,614.5l-50,9.3c-1.4,0-2.8-.1-3.9-1-1.1-.9-1.4-2.5-1.7-4-3.8-15.9-8.7-32.9-11-49.2-.3-2.3-.8-4.7,0-7,1.2-3.6,5.1-5.6,8.6-7.1,28.2-12.3,58.4-20.1,89-23.2,1.5-.1,3.1-.3,4.3.6,1,.7,1.5,1.9,1.9,3,1.7,4.2,4.1,12.9,5.8,17.1"/>
          <path class="cls-3" d="M136,612.1c-7.7,1.4-15.4,2.9-23,4.3-8.8,1.6-17.7,3.4-26.6,4.9s-.2,0-.3,0,0,0,0,0c.8,0-.4,0-.5,0-.7,0-1.2-.3-1.5-.9-.5-1.1-.6-2.4-.9-3.5-1.3-5.5-2.7-10.9-4.1-16.4-2.7-10.9-5.6-22-6.8-33.2s0-4.3,1.7-6,3.5-2.4,5.3-3.2c5-2.2,10-4.2,15.1-6.1,10.4-3.9,21.1-7.2,31.9-9.9s21.9-4.8,33.1-6.3,5.5-.7,8.3-1,2-.3,2.7,0,.9,1.3,1.2,1.9c1.5,3.8,2.6,7.7,3.8,11.6s1.1,3.5,1.8,5.2,1.7,2.1,3.1,1.7,2.2-1.8,1.7-3.1c-1.6-4-2.7-8.1-4-12.2s-1.3-3.9-2.1-5.8-3-4.3-6-4.6-5.6.4-8.3.7-6,.8-8.9,1.2c-5.8.9-11.6,1.9-17.4,3.1-11.5,2.4-22.9,5.5-34,9.3s-11.1,3.9-16.5,6.1-5.4,2.2-8.1,3.4-4.3,2.1-6.1,3.8-3.2,4.2-3.4,6.9.4,5.9.9,8.7c.9,5.9,2.1,11.8,3.4,17.6s2.8,11.7,4.3,17.6,1.4,5.7,2.2,8.6.9,5.6,2.7,7.5c3.1,3.2,7.8,1.6,11.5.9l15.8-2.9c9.6-1.8,19.1-3.6,28.7-5.3h.6c1.3-.4,2.1-2,1.7-3.2s-1.7-2-3.1-1.7h0Z"/>
        </g>
        <path class="cls-7" d="M153.9,726.9c1.6-2.9,2.3-6.3,2.2-9.6-15.2,4.7-31.3-1.7-46.4-6.6-8.8-2.8-17.9-5.2-25.4-10.6s-12.8-14.9-10.3-23.8c2.6-9.3,12.4-14.5,21.4-18.1,7.7-3.1,15.6-5.9,23.5-8.7,5.5-1.9,11.3-3.9,17-2.9,5.7,1,11.1,6.3,10.1,12,4.3-.4,8.6-.7,12.9-1.1-20.2-18.1-24.7-50.8-11.4-74.4,13.3-23.6,42.4-36.7,69.2-32.5,5.4.9,10.7,2.4,15.6,5,15.3,8.3,22.7,26.8,22.8,44.1s-6.1,34.1-12.2,50.4c6.6-3.4,13.9-5.3,21.3-5.6,8.2-.3,16.5,1.3,24.1,4.5,12.6,5.3,24.2,16.9,23.4,30.5-.5,9.6-7.2,18.1-15.4,23.3-8.2,5.2-17.7,7.6-27.1,10,1.3,5.5,3.7,10.7,7,15.1-41.1,3.1-82.4,3.8-123.6,2.1"/>
        <path class="cls-3" d="M166.4,658.7c-7.6-3.8-13.5-10.2-17.7-17.4s-7.3-16-8.2-24.7.4-17.6,4-25.9,9.9-16.5,17.2-22.8c14.3-12.3,34-18.6,52.8-15.5,9,1.5,17.7,5.1,24.6,11.3s12.7,16.8,14.7,27.1c2.3,11.3.9,23-2.5,33.8s-4.5,11.1-6.8,16.6-3.6,10.8-1.9,16.3,2,4.6,3.9,6.3,5.9-1.4,3.5-3.5c-3.8-3.5-3.7-9-2.3-13.6s2.2-5.5,3.4-8.2,2.5-5.7,3.6-8.6c4.2-11.6,6.2-24.1,4.5-36.4s-6-21.7-13.4-30-15.8-12.5-25.4-15c-19.7-4.9-41.1,0-57.4,12-16,11.7-27.9,30.2-27.9,50.4,0,9.4,2.4,18.8,6.3,27.4s9.5,16,17,21.4,3.5,2.3,5.4,3.3,2.7.3,3.4-.9.3-2.8-.9-3.4h0Z"/>
        <path class="cls-3" d="M105.2,667.8c14.9-1.8,29.5-5.8,44.7-5.7s9.7.4,14.5,1.2,2.7-.4,3.1-1.7-.4-2.8-1.7-3.1c-8.5-1.4-17.1-1.7-25.7-1s-15.4,2.1-23.1,3.4-7.8,1.4-11.8,1.9-2.5,1-2.5,2.5,1.2,2.7,2.5,2.5h0Z"/>
        <path class="cls-3" d="M121.8,652.1c2.8-4.3,8.4-6.7,13.4-5.5,5.1,1.3,8.8,5.8,9.5,10.9s1.9,2.1,3.1,1.7,1.9-1.7,1.7-3.1c-1-6.9-6.6-13-13.4-14.5s-14.8,1.7-18.7,7.8,2.6,5.2,4.3,2.5h0Z"/>
        <path class="cls-3" d="M245.9,649c4.5-1.5,9.3-2.4,14-2.8s10-.7,14.9,0c5,.7,10.3,1.9,15.1,3.6s6.5,2.6,9.5,4.7.6.4.9.6.2.2.3.2c-.5-.4,0,0,.1.1.5.4.9.8,1.4,1.2s.8.8,1.2,1.2.3.3.5.5.2.2.2.3c.3.4-.3-.5,0,0,3,4.2,5.5,8.9,6.8,13.9s1.3,10.4-1.1,15.1-5.5,7.8-9.4,10.5c-10.8,7.6-24.3,9.4-36.1,14.8s-1.5,2.3-.9,3.4,2.2,1.5,3.4.9c11.2-5.2,23.8-7,34.4-13.6,4.6-2.9,8.8-6.6,11.7-11.3s4.4-10.6,3.7-16.3-3.3-12.1-6.6-17.5-3.2-4.7-5.5-6.5c-6.8-5.6-15.6-8.3-24.1-9.9s-12-1.5-18.1-1.1-12,1.3-17.7,3.2-1.7,5.9,1.3,4.8h0Z"/>
        <path class="cls-3" d="M269.2,716.3c2,3.7,3.9,7.4,5.9,11s2.3,1.6,3.4.9,1.6-2.2.9-3.4c-2-3.7-3.9-7.4-5.9-11s-2.3-1.6-3.4-.9-1.6,2.2-.9,3.4h0Z"/>
        <path class="cls-3" d="M130.1,650.8c-2.7-1.7-5.9-1.8-9-1.5s-6.7.9-10,1.5c-6.2,1.2-12.4,2.8-18.3,5.1s-10.4,4.7-14.2,8.8-5.8,9.1-6,14.5c-.4,10.3,5.4,19.9,13.9,25.4s9,4.9,13.7,6.7,8.9,3.3,13.5,4.4,13.3,2.4,19.9,3.1,15.4,1.4,23.1,1.7l-2.4-3.2c-1.8,4.8-2.7,9.6-3.3,14.7s1.3,2.5,2.5,2.5,2.3-1.2,2.5-2.5c.6-4.6,1.4-9,3.1-13.4s-.9-3.1-2.4-3.2c-12.7-.4-25.5-1.6-38-3.8s-16.9-4.6-24.5-8.5-7.1-3.9-9.9-6.7-5.4-7.7-6.4-12.3-.4-9,1.8-12.9,6.5-7,10.8-9.1c5.7-2.8,11.9-4.4,18-5.8s6.7-1.4,10.1-1.8,6.2-1.1,8.7.5,5.2-2.6,2.5-4.3h0Z"/>
        <path class="cls-3" d="M137.5,624.3c-16.2,3.2-32.5,6.1-48.8,9.2s-9,1.7-13.5,2.6l2.8,1.1c-7.3-14.6-12.9-29.9-16.5-45.8s-3-15.8-3.6-23.8-.5-8.1-.4-12.2,0-2.9,1.1-3.9,2.4-1.4,3.7-1.9c16.2-5.7,32.7-10.6,49.3-15s33.4-8.2,50.3-11.3,8.3-1.5,12.5-2.2,3.4-.7,5.1-.4,2.4,1.2,3.1,2.5c1.5,2.9,2.3,6.3,3.4,9.4s2.2,6.9,3.3,10.3,1.1,3.1,1.6,4.7,1.7,2.1,3.1,1.7,2.2-1.8,1.7-3.1c-2.5-6.9-4.5-14-7-20.9s-2.7-7.6-6.6-9.2-8.3-.1-12.1.5c-17.7,3.1-35.4,6.8-52.8,11.2s-34.6,9.5-51.6,15.2-8,2.1-10.8,4.9-2.5,7.7-2.4,11.6c.2,8.5,1.1,17.1,2.6,25.5,3,16.9,8.5,33.3,15.7,48.9s1.8,3.8,2.8,5.7,1.8,1.4,2.8,1.1c16.2-3.2,32.5-6.1,48.8-9.2s9-1.7,13.5-2.6,2.1-1.8,1.7-3.1-1.7-2-3.1-1.7h0Z"/>
        <path class="cls-3" d="M74.2,640.3c3.7,2.9,7.4,5.9,11,9s7.1,6.3,10.6,9.5,2.5,1,3.5,0,1-2.6,0-3.5c-3.5-3.2-7-6.4-10.6-9.5s-7.3-6-11-9-2.5-1-3.5,0-1.1,2.7,0,3.5h0Z"/>
        <path class="cls-3" d="M73.5,638.7c-.6,3.7-1.1,7.4-1.7,11.2s-.1.9-.2,1.4c-.3,2,1.3,3.8,2.5,5.3,2.5,3.1,5.4,5.7,8.1,8.6s5.7-1.2,3.5-3.5-3.6-3.7-5.4-5.6-3.2-3.3-4.1-5.4l.3,1.9c.6-4.2,1.3-8.4,1.9-12.5s-.3-2.7-1.7-3.1-2.9.4-3.1,1.7h0Z"/>
        <path class="cls-3" d="M110,652c-1.7-1.7-3.4-3.4-5-5.1s-1.4-1.6-1.6-1.6c-.5.2.3,1.3-.4,1.2,0,0,0,0,0,0,.2,0,.4,0,.6-.1l7.8-1.6,24.2-5.1c2.1-.4,4.1-.9,6.2-1.3s2.1-1.8,1.7-3.1-1.7-2-3.1-1.7c-6,1.3-12,2.5-17.9,3.8l-13,2.7c-2.5.5-5.1,1-7.6,1.6s-1,.4-1.5.7c-2.3,1.7-2.5,4.4-.5,6.5s4.4,4.4,6.6,6.6,5.8-1.3,3.5-3.5h0Z"/>
        <g>
          <path class="cls-4" d="M100.6,599.8c-1.8-4.3-3.2-8.8-4.2-13.4l-3.7,2.8c4.4,2.2,8.7,4.3,13.1,6.5s4-.1,3.8-2.2c-.4-4.3-1.7-8.4-4.1-12.1s-2.2-1.6-3.4-.9-1.6,2.3-.9,3.4c1.8,2.9,3,6.2,3.4,9.5l3.8-2.2c-4.4-2.2-8.7-4.3-13.1-6.5s-4.1.6-3.7,2.8c1.1,5,2.7,9.9,4.7,14.6s2.4,1.5,3.4.9,1.4-2.2.9-3.4h0Z"/>
          <path class="cls-4" d="M121.1,573.2c-5.8-1.4-11.3,3.4-11.8,9.1s4.6,9.2,9.6,9.3,5.4-1,7.1-3.1,1.1-2.6,0-3.5-2.7-1.1-3.5,0-.6.6-.8.9c.3-.3.4-.3.2-.1s-.1.1-.2.1c-.2.1-.4.2-.6.4-.5.3.6-.2,0,0s-.3.1-.5.2-.4,0-.6.1-.5,0,.2,0c-.1,0-.2,0-.3,0-.4,0-.8,0-1.2,0s-.2,0-.3,0c-.3,0,.7.1.2,0s-.4,0-.7-.1-.4,0-.5-.1-.8-.3-.3-.1-.2-.1-.3-.2c-.2-.1-.4-.2-.6-.3s-.3-.2-.4-.3c.7.4,0,0-.1-.1s-.2-.2-.4-.4-.1-.1-.2-.2c.5.4.2.3,0,0s-.2-.3-.3-.5,0-.2-.1-.3c0,0,.2.6,0,.2s-.1-.4-.2-.6,0-.3,0-.4c0-.2,0,.6,0,0s0-.5,0-.7,0-.2,0-.3c0-.4,0,.2,0,.2,0,0,.1-.5.2-.7s0-.2.1-.4.3-.4,0-.1,0,0,0-.1,0-.2.1-.3c0-.2.2-.4.3-.5s.2-.2.2-.3c.2-.3-.4.5,0,0s.3-.4.5-.6.4-.4.6-.5,0,.1-.1,0c0,0,.4-.3.4-.3.2-.1.4-.3.7-.4s.2,0,.3-.1c.5-.2-.5.2,0,0s.5-.2.7-.2.3,0,.4,0c.3,0-.6,0-.1,0s.6,0,.8,0,.5,0,0,0,.2,0,.3,0c1.3.3,2.8-.4,3.1-1.7s-.4-2.8-1.7-3.1h0Z"/>
          <path class="cls-4" d="M126.5,566.8c.5,5.4,2,10.7,4.5,15.5s2.3,1.6,3.4.9,1.5-2.2.9-3.4-.5-1.1-.8-1.6c0-.2-.1-.3-.2-.5-.1-.3-.1-.3,0-.1,0-.2-.2-.5-.3-.7-.4-1.1-.8-2.3-1.2-3.4s-.6-2.3-.8-3.5-.2-1.2-.3-1.8c0,.4,0-.3,0-.4,0-.3,0-.7-.1-1-.1-1.3-1.1-2.6-2.5-2.5s-2.6,1.1-2.5,2.5h0Z"/>
          <path class="cls-4" d="M135.9,561.4c-1.6,3.6-3.5,7-5.8,10.3s.4,3.8,2.2,3.8,2.8,0,4.2,0,1.3.1,2,.2.4,0,.5,0c.7,0-.3,0,0,0s.8.1,1.2.2c.7.1,1.3.1,1.9-.3s1-.9,1.1-1.5c.3-1.2-.4-2.8-1.7-3.1-3.1-.5-6.2-.8-9.3-.7l2.2,3.8c2.3-3.2,4.2-6.7,5.8-10.3s.4-2.7-.9-3.4-2.9-.4-3.4.9h0Z"/>
          <path class="cls-4" d="M144.5,553.6c-.3,2.4-.6,5,.3,7.3s3.1,4.4,6,4.7,4.6-.8,6.4-2.3,2.9-4.2,3.1-6.8-1-6.3-2.5-9-2.3-1.6-3.4-.9-1.6,2.2-.9,3.4.5.9.7,1.3.3.8.2.3c.1.3.2.6.3.9.2.5.3.9.4,1.4s.1.5.2.8,0,.2,0,.3c0,.4,0-.4,0,0s0,1,0,1.5,0,.2,0,.3c0,0,0-.4,0-.1s-.1.6-.2.9-.2.7-.2.7.2-.5,0-.2,0,.2-.1.2c0,.2-.2.3-.3.5s-.1.2-.1.2c0,0,.4-.4,0,0s-.6.8-.8.8.4-.3.2-.1-.1,0-.2.1c-.2.1-.4.2-.6.3s-.6.3-.3.2-.2,0-.3.1c-.2,0-.3,0-.5.1s-.2,0-.2,0c-.3,0,.6,0,.1,0s-.3,0-.5,0-.7,0-.3,0-.1,0-.3,0-.1,0-.2,0c-.3,0,.5.3,0,0s-.4-.2-.4-.2.4.3.2.1-.2-.2-.3-.2-.4-.5-.2-.2,0,0,0-.1c0-.1-.1-.2-.2-.3s-.1-.2-.1-.2c.1.3.1.4,0,.2,0,0,0-.1,0-.2,0-.2-.1-.5-.2-.7s0-.2,0-.3c0-.3,0,0,0,.1,0-.2,0-.5,0-.8,0-.5,0-1,0-1.6s0-.5,0-.7,0-.3,0-.4c0-.4,0,.6,0,0,.2-1.3-.3-2.7-1.7-3.1s-2.9.4-3.1,1.7h0Z"/>
        </g>
        <g>
          <path class="cls-7" d="M147.9,447.2c-10.1-.8-20.6,3.5-26.7,11.6-6.1,8.1-7,20-1.7,28.6,5.3,8.6,16.9,13,26.4,9.4,2.1,1.5,4.4,4.1,6.5,5.5.3.2.8.5,1.1.3.3-.1.4-.4.5-.7.7-1.9,0-5.4,0-7.5,3.7-2.6,8.2-4,11.8-6.7,7.6-5.8,9.5-17.4,5.3-25.9s-13.6-13.9-23.1-14.7Z"/>
          <path class="cls-3" d="M147.9,445.4c-13-.9-26.4,6.1-31.5,18.4s-2.9,12.8-.9,18.9,5.9,10.9,11.3,13.9,13.2,4.3,19.6,1.9l-1.3-.2c1.6,1.1,2.9,2.6,4.4,3.9s3.1,3,5,2,1.6-3,1.6-4.5-.3-3.5-.3-5.3l-.9,1.5c4.5-3.1,9.9-4.6,13.8-8.5s5.3-7.6,6-12.1c1.5-9.8-3-19-11.1-24.6s-10.1-5-15.7-5.4-2.2,3.3,0,3.5c9.6.8,19.6,6.7,22.6,16.3s1.3,9.3-.3,13.7-5.3,7.8-9.6,10.1-2.9,1.4-4.4,2.2-3.5,1.5-3.9,2.9,0,2.7.2,3.9.4,3.1-.2,3.6l1.2-.5c-.5,0-1.3-.9-1.6-1.2-.7-.6-1.3-1.2-1.9-1.8-1-.9-2.7-3-4.2-2.8s-2.8.9-4.3,1.1-2.8.2-4.2,0c-5.8-.4-11.4-3.5-15-8-8.1-10.2-4.6-25.9,5.3-33.5,5.8-4.4,13.1-6.4,20.3-5.9s2.2-3.3,0-3.5Z"/>
        </g>
        <g>
          <path class="cls-7" d="M293.4,501.6c-16.1-27.6-55.4-8.9-49.3,18.4-2,1.4-6.4,5.7-6.3,6.9.3,2.8,8.6,4.3,8.6,4.3,13.9,35.2,70.7,10.8,47-29.6Z"/>
          <path class="cls-3" d="M294.9,500.7c-2.9-4.9-7-9.3-12.2-11.8s-9.7-3.1-14.7-2.5c-9.9,1.2-19.3,7.3-23.6,16.4s-3.3,11.6-2,17.6l.8-2c-2,1.4-3.8,3.1-5.4,5s-2.5,3.4-1,5.3,3.4,2.4,5.3,3.1,2.5.8,3.8,1l-1.2-1.2c2.5,6.3,6.8,11.9,12.9,15.2s11.7,3.6,17.7,2.7c12.1-1.9,22.8-11.3,25.1-23.6s-1-17.6-5.4-25.2-4.1-.2-3,1.8c4.2,7.2,6.8,15.8,4.7,24.1s-5.8,12-11.5,15.5-12.1,5-18.3,4.1-12.5-4.7-16.2-10.4-1.2-2-1.7-3.1-.9-2.8-2.1-3.2-2.9-.7-4.3-1.2-1.9-.7-2.6-1.3c.2.1-.3-.3-.3-.2-.2-.2,0-.2-.1,0v-.2c0,.6,0,.7,0,.4,0,.2,0,.2,0,0,0-.1.1-.2.2-.4,1.3-1.9,3.3-3.8,5.1-5.1s1-1.2.8-2c-2-9.2,1.7-18.3,9-24.1,6.9-5.4,16.5-7.4,24.8-4.1,5.3,2.1,9.5,6.3,12.3,11.1s4.2.2,3-1.8Z"/>
        </g>
        <g>
          <path class="cls-7" d="M243.8,453.5c-10.4-21.1-25.9-18.4-32.2-16.6-7,2-12.6,7.7-15.9,14.2-4.4,8.5-5,20.1,1.8,26.8.8.8,1.8,1.6,2.3,2.6,1.5,2.8-.7,6.3,0,9.4,2.4-2.1,5.1-3.9,8-5.2,5.7,3.4,14.4,3.6,20.8,1.7,9.2-2.7,23.2-16.4,15.1-32.9Z"/>
          <path class="cls-3" d="M245.3,452.6c-3.3-6.7-8.1-13.1-15-16.3s-9.7-2.7-14.7-2c-6.2.9-11.8,3.7-16.1,8.4s-9.1,14.3-8.8,22.6,1.5,8.7,4.2,12.2,3.7,3,3.7,5.4-.9,4.8-.4,7.4,2,1.6,2.9.8c2.3-2,4.8-3.7,7.6-4.9h-1.8c4.3,2.5,9.4,3.3,14.4,3.1s8.2-1,11.8-2.9c6.9-3.7,12.6-10.5,14.2-18.2s.2-10.7-2.1-15.5-4-.3-3,1.8c2.1,4.3,2.8,9.1,1.6,13.8s-3.2,7.5-6,10.3-5.4,4.7-8.7,5.9-9.5,1.8-14.1,1-2.7-.6-4-1.1-2.5-1.7-4-1.1c-3.1,1.1-5.9,3.3-8.3,5.5l2.9.8c-.4-2,.4-4.1.5-6.1s-.6-4-2.1-5.5-2.6-2.5-3.6-4.1-1.5-3.1-1.9-4.8c-1.6-7.3.9-15.2,5.2-21.1s8.9-8.6,15.1-9.8c3.8-.7,8.1-.6,12.1.8,7.2,2.6,12,9.1,15.3,15.7s4,.2,3-1.8Z"/>
        </g>
        <g>
          <path class="cls-4" d="M224.4,450.2c-3.8,0-7.9.7-11.2,2.8s-3.2,2.4-4,4.3-.3,3.9,1.4,5.1c2.6,1.9,6.1,1.7,9.2,2s2.7.3,3.9,1,1,.6,1.2,1,.1.5,0,.5c0,0,0,.2-.2.3-1,1.1-3,1.6-4.4,1.9-2.4.5-4.9.1-7.4-.3s-1.9.2-2.1,1.2.3,2,1.2,2.1c4.3.7,8.6,1,12.6-.8s2.9-1.7,3.5-3.3,0-3.6-1.4-4.7c-2.6-2.2-6-2.4-9.2-2.6s-2.9-.2-4.1-.7-.6-.3-.9-.5-.3,0-.3-.4c0-.6.3-1.2.7-1.6,2.7-3.1,7.5-3.7,11.3-3.8s2.3-3.5,0-3.5h0Z"/>
          <path class="cls-4" d="M217.9,446.4c-.2,10.6-.3,21.2-.5,31.8s3.5,2.2,3.5,0c.2-10.6.3-21.2.5-31.8s-3.5-2.2-3.5,0h0Z"/>
        </g>
        <g>
          <path class="cls-4" d="M131.2,461.8c3.4,2.3,7.5,4.2,10.1,7.4s1.6.7,2.1.3c4.6-3.4,9.2-6.7,14.5-8.9l-2.2-1.7c.6,6.4,1.2,12.8,1.7,19.2s.2,1.3-.3,1.8-1.1.7-1.6,1c-1.4.9-2.8,1.7-4.2,2.5s-2.5,1.3-3.7,2-2.7,1.8-3.9,1.6-2.3-1.4-3.1-2-1.9-1.4-2.8-2.2-1.8-1.4-2.8-2.1-1.1-.8-1.6-1.2h-.2c-.3-.5-.4-.4-.2.2,0,0,0-.5,0-.5-.1-2.1,0-4.3,0-6.4,0-4,0-8.1.8-12s-3-3.1-3.4-.9c-.8,4.1-.8,8.3-.9,12.4s-.2,5,0,7.5,1.2,2.2,2.3,3,2.4,1.8,3.6,2.7,1.9,1.5,2.9,2.2,2.6,2.2,4.1,2.6,2.7,0,4-.5,3.3-1.6,5-2.5,2.7-1.5,4.1-2.3,3.1-1.6,4.2-2.8,1.2-3.3,1.1-5.1-.3-3.9-.5-5.9c-.4-4.1-.7-8.2-1.1-12.3s-1.1-2.2-2.2-1.7c-5.6,2.3-10.5,5.7-15.3,9.3l2.1.3c-2.8-3.5-7.2-5.6-10.8-8s-3.6,1.8-1.8,3h0Z"/>
          <path class="cls-4" d="M140.9,468.2c.7,6.8.7,13.8,1,20.6s3.6,2.2,3.5,0c-.3-6.9-.3-13.8-1-20.6s-.7-1.7-1.7-1.7-1.8.8-1.7,1.7h0Z"/>
          <path class="cls-4" d="M147.7,474.8c2-1,3.9-2.1,5.9-3.1l.8-.4c.8-.4,1.1-1.6.6-2.4s-1.5-1.1-2.4-.6c-2,1-3.9,2.1-5.9,3.1l-.8.4c-.8.4-1.1,1.6-.6,2.4s1.5,1.1,2.4.6h0Z"/>
          <path class="cls-4" d="M148.5,481.4c2.1-1.2,4.1-2.4,6.2-3.6l.9-.5c.8-.5,1.1-1.6.6-2.4s-1.5-1.1-2.4-.6c-2.1,1.2-4.1,2.4-6.2,3.6l-.9.5c-.8.5-1.1,1.6-.6,2.4s1.5,1.1,2.4.6h0Z"/>
        </g>
        <path class="cls-4" d="M288.8,520.8c-1.3-6-5.4-10.5-8.8-15.4l.2,1.3c1.1-3.1.3-6.9-1.2-9.7s-5.2-4.9-8.9-4.5-7.8,2.7-9.1,6.5-1.2,6.7.6,8.8l-.3-2.1c-1.8,2.6-3.4,5.3-4.8,8.1s-1.4,2.9-2,4.3-1.4,2.8-1.3,4.3c.2,2.8,3,3.7,5.3,2.9s5-3.2,6.5-5.5l-3.3-.9c-.2,3.5-.3,7-.5,10.4s-.6,6.6-.5,9.9,2.6,4.7,5.1,3.2,2.2-2.7,2.8-4.3l1.4-4.3c.1-.4.5-1.1.5-1.5s0,0,0-.1h0c-1.2-.2-1.6,0-1.2.5,0,.6.4,1.2.5,1.8.6,2.5.5,6.1,2.8,7.8s4.9.3,5.9-2,.9-7,.7-10.4-.4-7.6-.6-11.4l-2.2,1.7c1.4.4,2.8,1.1,3.9,2.1s1.9,2.6,3.1,3.5,3.1.8,4.2-.4,1.1-3.1.8-4.8-3.8-1.3-3.4.9,0,1.2,0,1.4h0c.1,0,.3,0,.4,0,0,0-.3-.4-.4-.5-.7-.9-1.4-1.8-2.2-2.5-1.6-1.5-3.5-2.5-5.6-3.1s-2.3.6-2.2,1.7c.2,3,.3,5.9.5,8.9s.5,5.7.3,8.6-.1,2.8-.9,3.4-.9-.9-1-1.4c-.6-2.3-.6-4.8-1.7-7s-3.9-2.4-5-.2-.6,1.8-.9,2.7l-1.3,3.8c0,.3-.2.6-.3.8-.2.4-.5.7-.7,1.1s-.2.1-.2.2c.3.1.4,0,.3,0v-.2c.3-.6,0-1.8.1-2.5s0-1.7.1-2.5c0-1.7.2-3.3.2-5,.2-3.5.3-7,.5-10.4s-2.3-2.2-3.3-.9-2.6,3.1-4.3,3.8-.7.3-1,.2,0,.1,0,0c-.1-.2.4-1,.4-1.2.2-.6.4-1.1.7-1.7,1.8-4.2,4-8.1,6.5-11.8s.2-1.6-.3-2.1-.2-2.3-.2-3c0-1.2.3-2.4,1-3.4,1.9-2.6,5.7-3.7,8.6-2.4s3.4,4,3.6,6.3,0,1.3,0,1.9-.5,1.4-.2,2.2c.6,1.5,2,3,3,4.3,2.4,3.2,4.6,6.5,5.5,10.5s3.8,1.3,3.4-.9Z"/>
      </g>
      <g>
        <path class="cls-3" d="M314.7,606.9c3.2,0,3.2-5,0-5s-3.2,5,0,5h0Z"/>
        <path class="cls-3" d="M328,615.6l3.3,1.8c.6.3,1.3.4,1.9.3.3,0,.6-.2.9-.4.3-.2.5-.4.6-.7.3-.6.5-1.3.3-1.9s-.6-1.2-1.1-1.5l-3.3-1.8c-.6-.3-1.3-.4-1.9-.3-.3,0-.6.2-.9.4-.3.2-.5.4-.6.7-.3.6-.5,1.3-.3,1.9s.6,1.2,1.1,1.5h0Z"/>
        <path class="cls-3" d="M347.3,627.8c1.4.8,2.8,1.7,4.2,2.5s1.3.4,1.9.3,1.2-.6,1.5-1.1.5-1.3.3-1.9-.6-1.2-1.1-1.5l-4.2-2.5c-.6-.3-1.3-.4-1.9-.3s-1.2.6-1.5,1.1-.5,1.3-.3,1.9.6,1.2,1.1,1.5h0Z"/>
        <path class="cls-3" d="M371.7,637.2c1.4.6,2.8,1.1,4.2,1.7.3.1.7.1,1,0,.3,0,.6-.1.9-.3.5-.3,1-.9,1.1-1.5s.1-1.4-.3-1.9l-.4-.5c-.3-.3-.7-.5-1.1-.6l-4.2-1.7c-.3-.1-.7-.1-1,0-.3,0-.6.1-.9.3-.5.3-1,.9-1.1,1.5s-.1,1.4.3,1.9l.4.5c.3.3.7.5,1.1.6h0Z"/>
        <path class="cls-3" d="M398.4,641c.3.2.6.5.8.7s.3.2.4.3c.5.2,1,.4,1.5.5s1,.2,1.6.1,1.1-.1,1.6-.3c.3,0,.6-.2.9-.4.3-.2.5-.4.6-.7.2-.3.3-.6.3-.9,0-.3,0-.7,0-1-.2-.6-.6-1.2-1.1-1.5l-.6-.3c-.4-.1-.9-.1-1.3,0-.2,0-.5.2-.7.2h.7c-.3,0-.6,0-.9,0h.7c-.3,0-.6,0-.9-.2l.6.3c-.3-.1-.5-.2-.7-.4l.5.4c0,0-.2-.1-.2-.2-.5-.4-1.1-.7-1.8-.7-.3,0-.7,0-1,.2-.3.1-.6.3-.8.5-.4.5-.8,1.1-.7,1.8s.2,1.3.7,1.8h0Z"/>
        <path class="cls-3" d="M428.1,642.4l4.2-.9c.6-.1,1.2-.6,1.5-1.1s.4-1.3.3-1.9-.6-1.2-1.1-1.5l-.6-.3c-.4-.1-.9-.1-1.3,0l-4.2.9c-.6.1-1.2.6-1.5,1.1s-.4,1.3-.3,1.9.6,1.2,1.1,1.5l.6.3c.4.1.9.1,1.3,0h0Z"/>
        <path class="cls-3" d="M459.2,635.4c1.7-.9,3.4-1.7,5.1-2.6s1-.9,1.1-1.5,0-1.4-.3-1.9-.9-1-1.5-1.1-1.3,0-1.9.3l-5.1,2.6c-.5.3-1,.9-1.1,1.5s0,1.4.3,1.9.9,1,1.5,1.1,1.3,0,1.9-.3h0Z"/>
        <path class="cls-3" d="M495.2,625.5c2,0,4,0,5.9,0s1.3-.3,1.8-.7.8-1.1.7-1.8c0-1.4-1.1-2.5-2.5-2.5s-4,0-5.9,0-1.3.3-1.8.7-.8,1.1-.7,1.8c0,1.4,1.1,2.5,2.5,2.5h0Z"/>
        <path class="cls-3" d="M528.6,628.6c1.7.8,3.4,1.7,5.1,2.5s1.3.4,1.9.3,1.2-.6,1.5-1.1.5-1.3.3-1.9-.6-1.2-1.1-1.5c-1.7-.8-3.4-1.7-5.1-2.5s-1.3-.4-1.9-.3-1.2.6-1.5,1.1-.5,1.3-.3,1.9.6,1.2,1.1,1.5h0Z"/>
        <path class="cls-3" d="M566.3,639.9h5.1c.6,0,1.3-.3,1.8-.7s.8-1.1.7-1.8c0-1.4-1.1-2.5-2.5-2.5h-5.1c-.6,0-1.3.3-1.8.7s-.8,1.1-.7,1.8c0,1.4,1.1,2.5,2.5,2.5h0Z"/>
        <path class="cls-3" d="M595.6,633l2.5-1.7c.3-.2.5-.4.7-.6.2-.2.4-.5.4-.9.1-.3.1-.7,0-1,0-.3-.1-.6-.3-.9l-.4-.5c-.3-.3-.7-.5-1.1-.6h-.7c-.5,0-.9,0-1.3.3l-2.5,1.7c-.3.2-.5.4-.7.6-.2.2-.4.5-.4.9-.1.3-.1.7,0,1,0,.3.1.6.3.9l.4.5c.3.3.7.5,1.1.6h.7c.5,0,.9,0,1.3-.3h0Z"/>
        <path class="cls-3" d="M619.1,619.1l4.1-3.5c.5-.4.7-1.2.7-1.8s-.3-1.3-.7-1.8-1.1-.8-1.8-.7h-.7c-.4.2-.8.4-1.1.7l-4.1,3.5c-.5.4-.7,1.2-.7,1.8s.3,1.3.7,1.8,1.1.8,1.8.7h.7c.4-.2.8-.4,1.1-.7h0Z"/>
        <path class="cls-3" d="M634.7,599c1.3-1.8,2.5-3.6,3.8-5.4s.4-1.4.3-1.9-.6-1.2-1.1-1.5-1.3-.5-1.9-.3-1.1.6-1.5,1.1c-1.3,1.8-2.5,3.6-3.8,5.4s-.4,1.4-.3,1.9.6,1.2,1.1,1.5,1.3.5,1.9.3,1.1-.6,1.5-1.1h0Z"/>
        <path class="cls-3" d="M657.8,579.7h2.5c.7-.1,1.3-.4,1.8-.8.2-.2.4-.5.5-.8.2-.3.2-.6.2-1v-.7c-.2-.4-.4-.8-.7-1.1-.5-.4-1.1-.8-1.8-.7h-2.5c-.7.1-1.3.4-1.8.8-.2.2-.4.5-.5.8-.2.3-.2.6-.2,1v.7c.2.4.4.8.7,1.1.5.4,1.1.8,1.8.7h0Z"/>
        <path class="cls-3" d="M678.1,578.1c.3,0,.5,0,.8,0h-.7c.5,0,1.1.1,1.6.3l-.6-.3c.5.2.9.5,1.4.8l-.5-.4c.2.1.4.3.5.5.5.5,1.1.7,1.8.7s1.3-.3,1.8-.7.8-1.1.7-1.8-.2-1.3-.7-1.8c-1.6-1.5-3.8-2.4-6-2.5s-1.3.3-1.8.7-.8,1.1-.7,1.8.2,1.3.7,1.8,1.1.7,1.8.7h0Z"/>
      </g>
      <g>
        <g>
          <g>
            <path class="cls-7" d="M781.5,609.4c.3-.6.5-1.4.2-2-.2-.3-.6-.5-1-.7-26.4-12.4-77.8-32.8-77.8-32.8-9.4,17.5-17.9,35.4-25.6,53.7,26.5,9.7,82.1,29.9,83.2,29.3.8-.5,14.6-32.4,21-47.4Z"/>
            <path class="cls-3" d="M783.9,610.1c1-2.6,0-4.7-2.4-5.8s-2.8-1.3-4.3-2c-3.1-1.4-6.3-2.8-9.5-4.2-7-3.1-14.1-6.1-21.1-9-11.9-5-23.8-9.9-35.8-14.7-2.4-1-4.9-2-7.3-2.9s-2.3.3-2.8,1.1c-9.5,17.7-18.1,35.8-25.8,54.3-.5,1.3.6,2.7,1.7,3.1,10.2,3.7,20.5,7.5,30.7,11.2s21.7,7.8,32.6,11.7c4,1.4,8.1,2.8,12.1,4.2s4.5,1.6,6.9,2.1,2.4.4,3.3-.5,1-1.5,1.4-2.3c1.7-3.6,3.3-7.2,4.9-10.8,4.6-10.5,9.2-21,13.7-31.5s.9-2.2,1.4-3.2.4-2.7-.9-3.4-2.9-.4-3.4.9c-4.4,10.2-8.8,20.4-13.2,30.6s-3.7,8.5-5.7,12.6-1.1,2.3-1.6,3.4-.7.9,0,.2,1.2-.7,1.6-.7c-.4,0,.8.2.4,0-5.7-1.7-11.4-3.6-17.1-5.6-10.5-3.7-20.9-7.4-31.3-11.2-10.4-3.8-20.9-7.6-31.3-11.4s-2.1-.8-3.1-1.1l1.7,3.1c7.6-18.1,16-35.8,25.3-53.1l-2.8,1.1c6.5,2.6,12.9,5.2,19.3,7.8,13,5.3,26,10.7,38.9,16.3s7.2,3.1,10.7,4.7,3.2,1.4,4.8,2.2,1.5.7,2.3,1,.8.5,1.2.6.2.1.3,0l-.4-.9c0,.2-.2.5-.3.7-.5,1.3.6,2.7,1.7,3.1s2.6-.5,3.1-1.7Z"/>
          </g>
          <polygon class="cls-7" points="711 579.9 777.9 600.5 774.7 608.9 734 611.6 718.5 596.4 709.4 583 711 579.9"/>
          <path class="cls-3" d="M781,609.8h0c-.5-.4-1-.8-1.5-1.1h0c.3-1.1.6-2.3.9-3.4.9-.5.4-.2-.2-.1s-1.3.2-2,.3c-1,.1-1.9.3-2.9.4s.4,0,0,0-.3,0-.4,0c-.3,0-.6,0-1,.1-.6,0-1.3.2-1.9.3-6.2.8-12.3,1.6-18.5,2.2s-9.6,1.1-14.4,1-3-.1-4.5-.2-.3,0-.5,0c-.5,0,.5,0,0,0s-.7-.3-.2,0c-.7-.4-1.3-.9-1.9-1.4-3.3-2.8-6.3-6.1-9.1-9.5-6.6-8.1-12-17-18-25.6s-2.2-1.6-3.4-.9-1.7,2.3-.9,3.4c5.6,7.9,10.7,16.1,16.6,23.8,2.9,3.8,6,7.4,9.4,10.7s3,2.9,4.7,3.8,3.2.8,4.8.9c4.9.3,9.8,0,14.8-.6s12.8-1.4,19.2-2.2,5.9-.8,8.8-1.2,2.8-.1,3.9-.7,1.7-2.3.9-3.4-.9-1.1-1.5-1.2c-1.3-.2-2.7.3-3.1,1.7s.4,2.9,1.7,3.1h0Z"/>
          <path class="cls-3" d="M693.1,608.8c-.6,3.1-.9,6.2-1.1,9.4s1.4,1.6,2.1.9c1.5-1.4,3.1-2.7,4.6-4.1l-2-.3c.8,1.8,1.4,3.6,1.9,5.6s1.5,1.2,2.1.6c1.2-1.3,1.7-3.1,2.3-4.8s1.3-3.5,2-5.2-.3-1.4-.9-1.5-1.3.2-1.5.9c-.6,1.6-1.2,3.2-1.9,4.8s-.6,1.6-.9,2.3-.5,1.2-.9,1.7l2.1.6c-.5-2.1-1.3-4.2-2.2-6.2s-1.4-.7-2-.3c-1.5,1.4-3.1,2.7-4.6,4.1l2.1.9c.2-2.9.5-5.8,1-8.7s-.2-1.3-.9-1.5-1.4.2-1.5.9h0Z"/>
          <path class="cls-3" d="M705.9,620.8c1.8.9,4.3.8,5.8-.7s1.1-1.9.9-3-.9-1.9-1.9-2.2c-1.9-.6-4.1.8-5.1,2.4s-.7,4,.7,5.5,4,2.1,6.1,1.9,1.3-.5,1.2-1.2-.6-1.3-1.2-1.2-.7,0-1,0-.4,0-.5,0-.2,0-.2,0-.3,0-.2,0-.2,0-.2,0c0,0-.2,0-.2,0-.2,0-.3,0-.5-.1s-.5-.2-.3,0c-.2,0-.4-.2-.5-.3s-.4-.3-.2-.1c-.1-.1-.2-.2-.4-.3s-.1-.1-.1-.2-.2-.2,0,0,0,0,0,0c0,0-.1-.2-.2-.3s0-.1,0-.2c0-.2,0,.2,0,0s0-.3-.1-.5,0-.2,0,0c0,0,0-.1,0-.2s0-.1,0-.2,0-.3,0,0c0-.1,0-.3.1-.4,0-.2,0,0,0,0,0,0,0-.1,0-.2,0-.1.2-.3.3-.4s-.1.1,0,0,.1-.1.2-.2c.1-.1.2-.2.4-.3s.2-.2,0,0,0,0,0,0c.1,0,.3-.2.4-.3s.2,0,0,0c.1,0,.2,0,.3-.1s.1,0,.2,0c0,0-.2,0,0,0s.1,0,.2,0,.2,0,0,0c0,0,.1,0,.2,0-.2,0,0,0,0,0,.2.2,0,0,0,0,0,0,0,0,.1.1h0s0,0,0,0c-.1-.2,0-.1,0,0s0,.3,0,.1,0,0,0,0,0,.1,0,.2c0,.2,0-.2,0,0s0,.2,0,.2c0-.2,0,0,0,0s-.1.2,0,0-.1.1-.1.2c0,0-.1,0-.2.1,0,0,.1,0,0,0s-.3.2-.5.3c.2-.1,0,0,0,0-.1,0-.2,0-.3,0s-.2,0-.2,0c.3,0-.1,0-.1,0-.2,0-.4,0-.6,0,0,0,.2,0,0,0s-.2,0-.3,0-.2,0-.3,0c.2,0,0,0-.1,0-.6-.3-1.4-.2-1.7.4s-.2,1.4.4,1.7h0Z"/>
          <path class="cls-3" d="M718.1,614.3c-1.1,3.8-2.2,7.7-3.3,11.5s2,2.2,2.4.7c1.1-3.8,2.2-7.7,3.3-11.5s-2-2.2-2.4-.7h0Z"/>
          <path class="cls-3" d="M727.3,621.8c-.5-1.5-2.1-2.2-3.6-1.9s-2.5,1.5-3.2,2.7-.9,2.6-.7,3.9,1.1,2.4,2.2,2.9,2.8.7,4.2,0,.8-1.2.4-1.7-1.1-.8-1.7-.4c-.1,0-.1,0,0,0,0,0-.1,0-.2,0-.1,0-.2,0-.4,0,.3,0,0,0-.1,0-.1,0-.3,0-.4,0-.1,0-.1,0,0,0,0,0-.1,0-.2,0,0,0-.2,0-.3,0,0,0-.1,0-.2,0,.1,0,.2,0,0,0-.1,0-.2-.1-.3-.2,0,0-.1,0-.2-.1.1,0,.1.1,0,0,0,0-.2-.2-.3-.3-.2-.2.1.2,0,0s-.1-.2-.2-.4c0-.1,0-.1,0,0,0,0,0-.1,0-.2,0-.1,0-.3,0-.4,0,.3,0-.1,0-.2,0-.1,0-.3,0-.4,0,0,0-.1,0-.2,0,.2,0,.2,0,0,0-.1,0-.3.1-.4s0-.3.1-.4c0,.3,0-.2.1-.2.1-.2.3-.5.4-.7-.2.2.1-.1.2-.2.1-.1.2-.2.3-.3,0,0,.1-.1.2-.2,0,0,0,0,0,0,.1,0,.3-.2.4-.2-.2,0,0,0,.1,0,.2,0,.2,0,0,0,0,0,.1,0,.2,0,.1,0,.1,0,0,0,0,0,.1,0,.2,0,.1,0,.1,0,0,0,0,0,.1,0,.2,0,.1,0,.1,0,0,0,0,0,0,0,.1.1,0-.1-.1-.1,0,0,0,.1,0,.1,0,0,.2.6.9,1.1,1.5.9s1.1-.9.9-1.5h0Z"/>
          <path class="cls-3" d="M738,627.3c0-1.2-.3-2.3-1.1-3.1s-1.6-1.2-2.6-1.3c-2.1-.2-3.7,1.2-4.7,2.9s-1.2,3.9,0,5.6,1.5,1.6,2.5,1.8,2.2,0,3.1-.6c1.8-1.1,2.9-3.2,2.9-5.2s-.6-1.3-1.2-1.2-1.2.5-1.2,1.2,0,.3,0,.4c0,.2,0,0,0,0,0,0,0,.1,0,.2,0,.1,0,.3-.1.4s0,.1,0,.2-.1.4,0,.1c-.1.3-.3.5-.4.8s0,.1-.1.2c.1-.2,0,0,0,0-.1.1-.2.3-.4.4s-.1,0-.2.1c0,0,.2-.1,0,0s-.2.2-.4.2-.4.2-.2.1c-.2,0-.4.1-.6.2s.3,0-.1,0-.2,0-.3,0-.2,0,0,0c0,0-.2,0-.2,0s-.2,0,0,0c0,0-.1,0-.2-.1s-.1,0-.2-.1c.1.1,0,0,0,0s-.1-.1-.2-.2c-.1-.1,0,.1,0,0s-.2-.3-.2-.4-.1-.2,0-.1,0-.1,0-.1c0-.2-.1-.3-.1-.5,0,.2,0,0,0,0s0-.2,0-.2,0-.2,0-.2,0-.3,0-.1,0,0,0-.1c0,0,0-.2,0-.2s0-.1,0-.2,0-.2,0,0c.1-.3.3-.6.5-.8s0-.1.1-.2c-.1.1,0,0,0,0,.1-.2.3-.3.4-.5s.2-.2.4-.3c.2-.2,0,0,0,0,0,0,.1,0,.2-.1s.4-.2.2-.1c.2,0,.3-.1.5-.1,0,0-.2,0,0,0s.2,0,.3,0,.3,0,.1,0,.1,0,.2,0c0,0,.1,0,.2,0,.3,0-.2-.1.1,0s.1,0,.2.1c.2.1,0,0,0,0s.1.1.2.2.2.2.1.1,0,0,0,0c0,0,0,.2.1.2,0-.1,0,0,0,0,0,.1,0,.3,0,.4,0,0,0-.2,0,0s0,.3,0,.4c0,.7.6,1.3,1.2,1.2s1.3-.5,1.2-1.2Z"/>
          <path class="cls-3" d="M740.1,633.6c.6-1.3,1.8-2.9,3.1-3.5s.2,0,.3,0c0,0,.3,0,0,0s0-.4,0,0,0,.3,0,.4c-.1.9-.5,1.9-.8,2.7-.6,1.5,1.2,2.6,2.2,1.3s1.3-1.5,2.2-2,1.6-1.1,2.1-.5.1,2.1,0,2.8c-.3,1.2-.7,2.3-1.3,3.4s-.2,1.4.4,1.7,1.4.2,1.7-.4c.8-1.5,1.3-3,1.7-4.7s.4-3.4-.9-4.7-3.2-.7-4.7,0-2.5,1.8-3.4,3.1l2.2,1.3c.6-1.3,1.2-2.8,1.2-4.2s-1.1-2.7-2.7-2.6-2.5,1-3.4,1.9-1.7,2.2-2.3,3.5.3,1.4.9,1.5,1.3-.2,1.5-.9h0Z"/>
          <g>
            <path class="cls-7" d="M739.7,537.6l3.3-6.8c17.8,6.2,37.7,7.6,53.2,18.3-6.5,20.1-13.3,38.9-21.1,58.5"/>
            <path class="cls-3" d="M741.9,538.9l3.3-6.8-2.8,1.1c13.8,4.7,28.5,6.6,42,12.3,3.7,1.6,7.3,3.5,10.6,5.8l-1.1-2.8c-5,15.3-10.3,30.4-16,45.4-1.7,4.4-3.3,8.7-5.1,13s.5,2.7,1.7,3.1,2.6-.5,3.1-1.7c5.9-14.9,11.5-30,16.6-45.2,1.5-4.4,3-8.8,4.4-13.3s-.3-2.2-1.1-2.8c-12.4-8.4-27.3-11.3-41.6-14.9s-8.2-2.2-12.2-3.6-2.4.2-2.8,1.1l-3.3,6.8c-.6,1.2-.3,2.7.9,3.4s2.8.3,3.4-.9h0Z"/>
          </g>
          <path class="cls-3" d="M759.8,632.2c-.5-1.1-1.8-1.5-2.9-1.3s-2.2,1.2-2.8,2.1-.5,2.4.3,3.4,1.9,1.5,3.1,1.7l.3-2.5c-1.3.2-2.7.5-3.6,1.5s-1.2,2.8-.3,4c1.6,2.1,4.5,2.7,6.8,1.6s.8-1.2.4-1.7-1.1-.7-1.7-.4c.1,0,0,0,0,0,0,0-.2,0-.3,0s-.2,0-.3,0-.2,0,0,0c-.2,0-.4,0-.5,0s-.2,0-.3,0-.2,0,0,0c-.7-.1-1.2-.4-1.7-.8s-.2-.2-.3-.4,0,0,0-.1,0,0,0,0,.1-.4.2-.5c.4-.5,1.2-.6,1.8-.7s1.1-.4,1.2-1.1-.3-1.3-.9-1.4-1.1-.2-1.5-.5-.3-.3-.2-.2c0,0-.2-.3-.1-.2h0s0,0,0-.2c0,.2,0,0,0,0,.2-.4.7-.9,1.1-1.1,0,0,.2,0,.3,0-.3,0,.2,0,0,0,.1,0,.2,0,0,0,.1,0,.1,0,0,0,0,0,0,0,0,0,0,0,0,0,0,0,.3.6,1.2.8,1.7.4s.7-1.1.4-1.7h0Z"/>
          <g>
            <path class="cls-7" d="M769.3,608.6c7.4-20,12-38.9,15.1-59.9-17-4.7-34.3-8.8-51.6-12.3-.6-.1-1.2-.2-1.7,0-.5.2-.8.7-1.1,1.1-9.4,14-16.2,27.7-21.2,43.8"/>
            <path class="cls-3" d="M771.7,609.3c5.6-15.1,9.8-30.5,12.8-46.3.9-4.5,1.6-9.1,2.3-13.6s-.3-2.7-1.7-3.1c-14.5-4-29.2-7.6-43.9-10.7s-3.5-.7-5.3-1.1-4.2-1.2-6.1-.2-2.2,2.3-3,3.5-1.9,3-2.9,4.5c-3.4,5.5-6.6,11.2-9.3,17.1s-6,14.1-8.2,21.4,3.9,4.4,4.8,1.3c3.7-12,8.8-23.5,15.2-34.3s3.4-5.5,5.2-8.2.5-.6.6-.9c.1-.5.4.6-.3.1.5.3,1.6.3,2.1.4,1.8.4,3.7.8,5.5,1.1,7,1.5,13.9,3,20.8,4.7s15.6,3.9,23.3,6l-1.7-3.1c-2.4,15.9-5.8,31.6-10.6,46.9-1.4,4.4-2.9,8.7-4.5,13.1s.5,2.7,1.7,3.1,2.6-.5,3.1-1.7h0Z"/>
          </g>
          <path class="cls-4" d="M737.3,566.9c.5-1.2,1.1-2.3,1.8-3.5s.7-1,1-1.5.4-.5.6-.8c-.2.3,0,0,0,0s.2-.3.3-.4l-3.9-.5c0,.2.2.4.3.6-.1-.2-.1-.3,0,0,.1.4.3.7.4,1.1.2.7.4,1.4.5,2.1.3,1.4.6,2.9,1.1,4.2s.8,1.5,1.7,1.7,1.9,0,2.4-.6c2.1-2.5,4.1-5.1,5.8-7.9s.3-2.8-.9-3.4-2.7-.3-3.4.9-1.6,2.5-2.5,3.7-.4.6-.7.9-.2.2,0,0c-.1.1-.2.3-.3.4-.5.6-1,1.2-1.5,1.8l4.2,1.1c-1.2-3-1.2-6.3-2.8-9.1s-2.9-1.7-3.9-.5c-1.8,2.2-3.4,4.7-4.6,7.3s-.4,2.7.9,3.4,2.9.4,3.4-.9h0Z"/>
          <path class="cls-4" d="M759.5,562.6c-1.5-1.1-3.6-1-5.2-.4s-3.2,1.8-4.2,3.4-1.1,3.9-.2,5.7,2.8,2.6,4.6,3.1,4.2.9,6.3.3,2.2-1.8,1.7-3.1-1.7-2.1-3.1-1.7-.6.1-.9.2h.7c-.7,0-1.4,0-2-.1h.7c-1.1,0-2.2-.4-3.2-.8l.6.3c-.4-.2-.8-.4-1.1-.6l.5.4c-.2-.2-.4-.3-.5-.5l.4.5c-.1-.2-.3-.4-.4-.6l.3.6c0-.2-.1-.5-.2-.7v.7c0-.3,0-.6,0-1v.7c0-.3,0-.6.1-.8l-.3.6c.1-.3.3-.7.6-1l-.4.5c.3-.4.6-.7,1-1l-.5.4c.4-.3.9-.6,1.4-.8l-.6.3c.4-.2.9-.3,1.3-.4h-.7c.3,0,.6,0,.8,0h-.7c.2,0,.5,0,.7,0l-.6-.3c.2,0,.3.2.5.3.5.4,1.4.4,1.9.3s1.2-.6,1.5-1.1.5-1.3.3-1.9-.6-1.1-1.1-1.5h0Z"/>
          <path class="cls-4" d="M730.7,571.9c-1.5,3.5-3,7-4.3,10.6s.5,2.8,1.7,3.1,2.6-.4,3.1-1.7,1.3-3.3,1.9-4.9.6-1.6,1-2.4c.1-.3.1-.2,0,0,0,0,0-.2.1-.3,0-.2.2-.4.3-.6.2-.4.4-.8.5-1.3.3-.6.4-1.2.3-1.9s-.6-1.2-1.1-1.5c-1.1-.6-2.9-.4-3.4.9h0Z"/>
          <path class="cls-4" d="M738.4,575.4c-2.3.4-4.5,1-6.7,1.6s-2.4,2.8-1.1,4.2,1.7,1.9,2.5,2.9l-.4-.5c.8,1,1.5,2.1,2.2,3.2s2.3,1.6,3.4.9,1.6-2.2.9-3.4c-1.4-2.4-3.1-4.6-5.1-6.6l-1.1,4.2c2.2-.6,4.5-1.2,6.7-1.6s1.2-.6,1.5-1.1.4-1.3.3-1.9c-.4-1.4-1.7-2-3.1-1.7h0Z"/>
          <path class="cls-4" d="M743.2,579.3c-.9,1.8-1.6,3.7-1.4,5.8s1.2,4.2,3.1,5.5,3.9,1.5,5.9,1.1,3.4-2.2,4.5-3.8,1.8-3.6,2.1-5.6-.3-2.8-1.7-3.1-2.8.4-3.1,1.7-.4,1.7-.7,2.5c0,.1,0,.2-.1.3-.1.3,0,.2,0,0,0,0-.2.5-.2.5-.2.4-.4.8-.6,1.1s-.4.8-.7,1c.2-.3.3-.3,0-.1,0,0-.1.2-.2.2,0,0-.3.4-.4.3.3-.2.3-.2.1,0,0,0-.1,0-.2.1-.6.3.4-.2-.1,0-.3,0-.3,0,0,0,0,0-.2,0-.3,0-.2,0-.5,0-.7,0,.4,0,.4,0,.2,0h-.2c-.2,0-.4-.2-.6-.2-.5-.1.4.2,0,0s-.4-.2-.6-.3c-.4-.3.3.4,0,0,0,0-.2-.2-.2-.2-.2-.2-.1-.2,0,.1,0,0-.2-.4-.3-.4-.1-.2-.1-.2,0,.1,0-.1,0-.2-.1-.3,0-.2,0-.3-.1-.5,0-.3,0-.2,0,.1,0-.1,0-.2,0-.3,0-.2,0-.3,0-.5,0-.1,0-.2,0-.4,0,.3,0,.4,0,0,0-.4.2-.8.3-1.2s.2-.8,0-.2c0-.2.2-.5.3-.7.6-1.2.3-2.8-.9-3.4s-2.8-.3-3.4.9h0Z"/>
        </g>
        <g>
          <path class="cls-7" d="M804.2,524c2.9-5.1,5.7-10.2,8.6-15.3"/>
          <path class="cls-3" d="M806.3,525.2c2.9-5.1,5.7-10.2,8.6-15.3s.3-2.8-.9-3.4-2.7-.3-3.4.9c-2.9,5.1-5.7,10.2-8.6,15.3s-.3,2.8.9,3.4,2.7.3,3.4-.9h0Z"/>
        </g>
        <g>
          <path class="cls-7" d="M811.8,529.4l8.7-6.7"/>
          <path class="cls-3" d="M813.6,531.2l8.7-6.7c.5-.4.7-1.2.7-1.8s-.3-1.3-.7-1.8-1.1-.8-1.8-.7-1.2.3-1.8.7l-8.7,6.7c-.5.4-.7,1.2-.7,1.8s.3,1.3.7,1.8,1.1.8,1.8.7,1.2-.3,1.8-.7h0Z"/>
        </g>
        <g>
          <path class="cls-7" d="M813.5,544.7c7.8-4.8,15.8-9.4,23.9-13.7"/>
          <path class="cls-3" d="M814.8,546.8c7.8-4.8,15.8-9.4,23.9-13.7s.3-5.8-2.5-4.3c-8.1,4.3-16,8.9-23.9,13.7-2.7,1.7-.2,6,2.5,4.3h0Z"/>
        </g>
      </g>
    </g>
  </g>
  <path class="cls-6" d="M500,1.5h0c36.7,0,66.5,29.8,66.5,66.5h0c0,36.7-29.8,66.5-66.5,66.5h0c-36.7,0-66.5-29.8-66.5-66.5h0c0-36.7,29.8-66.5,66.5-66.5Z"/>
  <path class="cls-9" d="M500,1.5h0c36.7,0,66.5,29.8,66.5,66.5h0c0,36.7-29.8,66.5-66.5,66.5h0c-36.7,0-66.5-29.8-66.5-66.5h0c0-36.7,29.8-66.5,66.5-66.5Z"/>
  <path class="cls-1" d="M462.5,76.4h35v3.8h-35v-3.8ZM469.6,69.6h17v3.4h-17v-3.4ZM477.6,74.6h4.7v8.6c0,2.2-.4,3.2-2.1,3.8-1.6.6-3.8.6-6.9.6-.2-1.3-.9-3-1.5-4,1.9,0,4.3,0,4.9,0,.6,0,.8-.2.8-.6v-8.4ZM485.5,69.6h1.2l1-.2,2.7,2.4c-2.6,2.1-6.2,4.4-9.4,6-.5-.7-1.6-1.9-2.2-2.4,2.4-1.2,5.4-3.4,6.7-4.9v-.8ZM462.5,64.4h35.1v8.2h-4.8v-4.8h-25.8v4.8h-4.6v-8.2ZM464.8,51.8l5.6,1.1c0,.3-.4.5-1,.6l.7,12.4h-4.4l-.8-14.2ZM490.9,51.4h4.6c-.2,4.9-.6,11-1.1,14.8h-4.6c.5-3.9,1-10,1.1-14.8ZM485.3,51.4h7.4v3h-7.4v-3ZM472.9,50.2l2.2,2.6c-2.2,1.1-5.2,1.9-7.4,2.4l-1.9-2.5c2.1-.5,5.2-1.7,7-2.5ZM467.3,55.7h7.5v3h-7.5v-3ZM467.4,60.1h7.5v3h-7.5v-3ZM485.4,55.7h6.8v3h-6.8v-3ZM485.3,60.1h6.8v3h-6.8v-3ZM481.4,50.3l3.1.9c-1.8,2.4-4.8,4.7-7.5,6.2-.5-.6-1.8-1.6-2.5-2.2,2.8-1.2,5.4-3,7-4.9ZM475.4,52.4l2.2-1.8c2.4,1.1,5.3,3,6.8,4.4l-2.3,2c-1.4-1.4-4.3-3.3-6.7-4.6ZM481.5,57l3.2.9c-1.8,2.6-5,5-7.8,6.5-.6-.6-1.8-1.6-2.6-2.2,2.8-1.3,5.6-3.2,7.2-5.2ZM475.5,59.2l2.2-1.8c2.4,1.2,5.5,3.2,7,4.6l-2.4,2c-1.4-1.4-4.4-3.5-6.8-4.8ZM506.8,70.8h26.9v16.9h-5v-13.3h-17.2v13.3h-4.8v-16.9ZM509.2,76.7h20.8v3.6h-20.8v-3.6ZM509.4,82.6h20.8v3.6h-20.8v-3.6ZM517.4,67.1l5.2.7c-1,2-2.2,4-3.1,5.3l-3.9-.8c.7-1.6,1.5-3.7,1.9-5.2ZM502.4,51.8h12.9v3.7h-12.9v-3.7ZM514.3,51.8h4.3v13.2c0,1.9-.4,2.8-1.6,3.4-1.3.6-3,.6-5.5.6-.2-1-.7-2.4-1.2-3.4,1.4,0,2.9,0,3.4,0s.6-.2.6-.6v-13.2ZM520.7,51.8h13.8v3.7h-13.8v-3.7ZM532.3,51.8h4.5v13.1c0,2-.4,2.9-1.8,3.6-1.4.6-3.3.6-5.9.6-.2-1.1-.7-2.6-1.2-3.6,1.5,0,3.3,0,3.8,0,.5,0,.7-.1.7-.6v-13.1ZM519.6,63.6c2.8-.8,7-2.2,11-3.6l.7,3.4c-3.4,1.3-7.2,2.7-10.2,3.8l-1.6-3.6ZM521.4,57.9l2.3-2.8c1.8.8,4.2,2.2,5.4,3.3l-2.4,3.1c-1.1-1.1-3.4-2.6-5.2-3.6ZM501.4,64.3c2.7-.8,6.6-2.1,10.5-3.5l.7,3.4c-3.2,1.4-6.6,2.8-9.4,4l-1.7-3.9ZM503.5,57.9l2.3-2.8c1.8.9,4.1,2.3,5.2,3.4l-2.4,3c-1-1.1-3.3-2.6-5.1-3.6Z"/>
</svg>