<?xml version="1.0" encoding="UTF-8"?>
<svg id="_圖層_1" data-name="圖層 1" xmlns="http://www.w3.org/2000/svg" viewBox="0 0 612.18 186.65">
  <defs>
    <style>
      .cls-1 {
        fill: #49050d;
      }

      .cls-1, .cls-2 {
        stroke-width: 0px;
      }

      .cls-2, .cls-3 {
        fill: #d8132c;
      }

      .cls-3 {
        stroke: #fff;
        stroke-miterlimit: 10;
        stroke-width: 3px;
      }
    </style>
  </defs>
  <g>
    <path class="cls-2" d="M222.99,148.11v-12.29c-1.39,2.63-3.2,5.05-5.41,7.27-2.18,2.18-3.63,3.27-4.34,3.27-1.35,0-2.03-.81-2.03-2.42,0-.41.2-.85.59-1.33.39-.47,1.02-1.04,1.89-1.72,4.13-3.27,7.03-6.52,8.68-9.75h-7.89c-1.69,0-2.54-.69-2.54-2.09s.85-2.03,2.54-2.03h8.51v-5.3h-9.25c-.87,0-1.49-.16-1.89-.48-.39-.32-.59-.84-.59-1.55,0-1.39.83-2.09,2.48-2.09h3.61c-.19-1.99-.64-4.57-1.35-7.72l-.06-.45h-1.97c-1.35,0-2.03-.69-2.03-2.09s.68-2.03,2.03-2.03h8.85v-3.21c0-1.92.79-2.88,2.37-2.88s2.37.96,2.37,2.88v3.21h8.79c1.31,0,1.97.68,1.97,2.03s-.66,2.09-1.97,2.09h-2.54l-1.58,8.17h4.34c1.65,0,2.48.7,2.48,2.09,0,.71-.2,1.23-.59,1.55-.39.32-1.02.48-1.89.48h-9.19v5.3h8.46c1.69,0,2.54.7,2.54,2.09s-.85,2.03-2.54,2.03h-8.46v4.12c.41-.75,1.07-1.13,1.97-1.13.64,0,1.9.71,3.78,2.14,1.88,1.43,2.82,2.52,2.82,3.27,0,1.39-.68,2.09-2.03,2.09-.56,0-1.3-.39-2.2-1.18l-4.34-3.78v11.44c0,1.77-.73,2.65-2.2,2.65s-2.2-.88-2.2-2.65ZM229.75,109.72v-.28h-9.87c.45,1.88.92,4.57,1.41,8.06v.11h6.99l1.47-7.89ZM252.19,147.88v-25.71h-7.5l-.11,3.95c-.23,7.93-1.32,13.89-3.27,17.87-1.92,3.91-3.63,5.86-5.13,5.86-1.62,0-2.42-.83-2.42-2.48,0-.56.6-1.56,1.8-2.99,1.28-1.5,2.27-3.33,2.99-5.47.79-2.37,1.32-5.04,1.58-8,.26-3.04.43-7.03.51-11.95l-.06-10.71c0-1.62.32-2.84.96-3.66.64-.79,2.12-1.39,4.45-1.8,2.55-.45,4.57-.86,6.03-1.24,1.09-.26,1.71-.41,1.86-.45-.26.08.54-.13,2.42-.62,1.01-.3,1.62-.45,1.8-.45,1.69,0,2.54.9,2.54,2.71,0,.94-.7,1.58-2.09,1.92-4.77,1.17-8.53,1.95-11.27,2.37-1.65.23-2.48,1.52-2.48,3.89v6.82h15.78c1.39,0,2.09.75,2.09,2.25s-.7,2.2-2.09,2.2h-3.78v25.71c0,1.84-.77,2.76-2.31,2.76s-2.31-.92-2.31-2.76Z"/>
    <path class="cls-2" d="M320.06,146.53c0,1.43-.88,2.14-2.65,2.14h-45.21c-1.8,0-2.71-.71-2.71-2.14s.9-2.14,2.71-2.14h21.31v-13.7h-13.59c-1.77,0-2.65-.71-2.65-2.14s.88-2.09,2.65-2.09h13.59v-11.61h-13.7c-1.28,4.59-2.76,8.4-4.45,11.44-.71,1.32-1.42,2.31-2.11,2.99-.7.68-1.33,1.01-1.89,1.01-.75,0-1.31-.19-1.66-.56-.36-.38-.54-.98-.54-1.8,0-.53.39-1.43,1.18-2.71,2.82-4.58,5.17-11.41,7.05-20.46.34-1.69,1.16-2.54,2.48-2.54,1.58,0,2.37.6,2.37,1.8l-.17,1.47-1.13,5.07h12.57v-8.23c0-1.77.79-2.65,2.37-2.65s2.31.88,2.31,2.65v8.23h16.91c1.8,0,2.71.71,2.71,2.14s-.9,2.14-2.71,2.14h-16.91v11.61h14.15c1.77,0,2.65.7,2.65,2.09s-.88,2.14-2.65,2.14h-14.15v13.7h19.22c1.77,0,2.65.71,2.65,2.14Z"/>
    <path class="cls-2" d="M327.11,148.05c0-.87.19-1.47.56-1.8.38-.34,1.03-.58,1.97-.73,7.4-1.09,13.68-3.12,18.83-6.09-1.43-.94-3.23-2.42-5.41-4.45s-4-3.96-5.47-5.81c-.49-.6-.73-1.18-.73-1.75s.24-1.07.73-1.52c.41-.34.83-.51,1.24-.51.71,0,1.39.36,2.03,1.07,1.39,1.62,3.26,3.45,5.61,5.5,2.35,2.05,4.39,3.67,6.12,4.88,3.38-2.56,5.99-4.92,7.84-7.1,1.24-1.43,2.4-3.12,3.5-5.07.11-.19.17-.38.17-.56,0-.23-.09-.4-.28-.54-.19-.13-.43-.2-.73-.2h-27.17c-1.88,0-2.82-.75-2.82-2.25s.94-2.31,2.82-2.31h13.92v-6.99h-18.66c-1.92,0-2.88-.79-2.88-2.37s.96-2.25,2.88-2.25h18.66v-5.52c0-1.54.83-2.31,2.48-2.31s2.42.77,2.42,2.31v5.52h18.77c1.95,0,2.93.77,2.93,2.31s-.98,2.31-2.93,2.31h-18.77v6.99h11.05c3.12,0,4.68,1.03,4.68,3.1,0,1.84-1.26,4.45-3.78,7.84-2.48,3.35-5.81,6.58-9.98,9.7,6.54,3.23,12.72,5.15,18.55,5.75,1.73.19,2.59,1.01,2.59,2.48,0,1.84-.94,2.76-2.82,2.76-1.24,0-2.72-.23-4.43-.68-1.71-.45-3.84-1.11-6.4-1.97-4.66-1.62-8.53-3.38-11.61-5.3-3.61,2.22-7.84,4.12-12.68,5.69-4.21,1.39-7.59,2.09-10.15,2.09-1.77,0-2.65-.73-2.65-2.2Z"/>
    <path class="cls-2" d="M401.86,124.09c.34.38.51.92.51,1.63,0,.98-.6,1.69-1.8,2.14l-4.12,1.52v15.16c0,2.03-.54,3.57-1.63,4.62-.9.86-2.29,1.3-4.17,1.3h-2.82c-1.47,0-2.2-.79-2.2-2.37s.73-2.31,2.2-2.31h2.09c1.32,0,2.01-.71,2.09-2.14v-12.85c-3.04.94-4.89,1.41-5.52,1.41-1.39,0-2.09-.73-2.09-2.2,0-1.16.54-1.94,1.63-2.31l5.98-1.52v-11.67h-4.85c-1.69,0-2.54-.73-2.54-2.2s.85-2.2,2.54-2.2h4.85v-8.4c0-1.73.75-2.59,2.25-2.59s2.2.87,2.2,2.59v8.4h3.33c1.73,0,2.59.73,2.59,2.2s-.86,2.2-2.59,2.2h-3.33v10.43l2.99-1.07,1.01-.17c.6-.11,1.07.02,1.41.4ZM427.96,121.28v6.26h4.17c1.73,0,2.59.71,2.59,2.14s-.87,2.14-2.59,2.14h-4.17v13.08c0,1.77-.53,3.19-1.58,4.28-.9.98-2.27,1.43-4.12,1.35h-3.38c-1.99,0-2.99-.79-2.99-2.37s.9-2.42,2.71-2.42h2.59c1.35,0,2.07-.73,2.14-2.2v-11.73h-18.04c-1.73,0-2.59-.71-2.59-2.14s.86-2.14,2.59-2.14h18.04v-6.26h-19.11c-1.77,0-2.65-.69-2.65-2.09s.88-2.14,2.65-2.14h11.11v-6.6h-9.36c-1.73,0-2.59-.69-2.59-2.09s.86-2.14,2.59-2.14h9.36v-4.62c0-.79.18-1.36.54-1.72.36-.36.95-.54,1.78-.54s1.36.18,1.72.54c.36.36.54.93.54,1.72v4.62h10.32c.9,0,1.56.17,1.97.51.41.34.62.88.62,1.64s-.21,1.24-.62,1.58c-.41.34-1.07.51-1.97.51h-10.32v6.6h13.36c1.73,0,2.59.71,2.59,2.14s-.88,2.09-2.65,2.09h-5.24ZM412.91,137c1.5,1.84,2.25,3.14,2.25,3.89,0,1.5-.81,2.25-2.42,2.25-.9,0-1.67-.54-2.31-1.63l-1.92-2.88c-.11-.19-.31-.48-.59-.87-.28-.4-.48-.71-.59-.96-.11-.24-.17-.46-.17-.65,0-1.31.77-1.97,2.31-1.97.75,0,1.9.94,3.44,2.82Z"/>
    <path class="cls-2" d="M454.62,135.03c-.64.15-1.05.25-1.24.28-.19,2.07-.73,4.21-1.63,6.43-.94,2.29-2.16,4.13-3.66,5.52-1.8,1.69-3.18,2.54-4.12,2.54-1.43,0-2.14-.79-2.14-2.37,0-.9.81-1.84,2.42-2.82,1.35-.79,2.42-1.94,3.21-3.44.79-1.5,1.28-3.19,1.47-5.07l-4.23.79c-.11.04-.3.06-.56.06-.64,0-1.14-.19-1.49-.56-.36-.38-.54-.88-.54-1.52,0-.6.23-1.07.68-1.41.45-.34,1.16-.58,2.14-.73l4.12-.51v-6.93h-4.68c-1.5,0-2.25-.66-2.25-1.97s.75-1.97,2.25-1.97h2.03l-1.13-11.05c-1.77,0-2.65-.64-2.65-1.92s.73-1.97,2.2-1.97h4.45v-4.79c0-1.54.71-2.31,2.14-2.31s2.09.77,2.09,2.31v4.79h3.72c1.5,0,2.26.66,2.26,1.97s-.87,1.92-2.59,1.92l-1.35,11.05h2.31c1.5,0,2.25.66,2.25,1.97s-.75,1.97-2.25,1.97h-4.4v6.26l3.72-.56c.19-.04.45-.06.79-.06,1.01,0,1.52.45,1.52,1.35,0,.6-.2,1.08-.59,1.44-.39.36-1.01.63-1.83.82-.94.23-1.75.39-2.42.51ZM453.27,110.28h-4.62l1.18,11.05h2.42l1.01-11.05ZM474.35,115.53c0,5.04-.15,10.45-.45,16.24-.38,7.18-.86,11.69-1.47,13.53-.49,1.39-1.32,2.31-2.51,2.76-1.18.45-2.98.68-5.38.68-1.69,0-2.54-.77-2.54-2.31s.79-2.25,2.37-2.25h2.14c.71,0,1.28-.23,1.69-.7.41-.47.68-1.16.79-2.06.94-7.63,1.41-15.97,1.41-25.03,0-.83-.41-1.24-1.24-1.24h-2.54c-.08,2.97-.25,5.98-.54,9.02-.28,3.04-.59,5.68-.93,7.89-.64,4.1-1.94,8.12-3.89,12.06-1.77,3.53-3.33,5.3-4.68,5.3-1.28,0-1.92-.73-1.92-2.2,0-.41.47-1.26,1.41-2.54,1.62-2.25,2.94-5.09,3.97-8.51,1.03-3.42,1.68-7.29,1.94-11.61.15-3.16.26-6.29.34-9.41h-1.47c-1.62,0-2.42-.7-2.42-2.09s.81-2.09,2.42-2.09h1.52v-8.68c0-.86.2-1.52.59-1.97s.97-.68,1.72-.68c1.35,0,2.03.79,2.03,2.37v8.96h2.82c3.19,0,4.79,1.52,4.79,4.57ZM486.08,125.84v6.76h4.45c1.65,0,2.48.68,2.48,2.03s-.83,2.03-2.48,2.03h-4.45v11.67c0,1.62-.73,2.42-2.2,2.42s-2.2-.81-2.2-2.42v-11.67h-3.89c-1.62,0-2.42-.68-2.42-2.03s.81-2.03,2.42-2.03h3.89v-6.76h-4.79c-1.54,0-2.31-.68-2.31-2.03s.77-2.03,2.31-2.03h2.09l-1.3-11.39c-.98,0-1.67-.16-2.09-.48-.41-.32-.62-.82-.62-1.49,0-1.35.75-2.03,2.25-2.03h4.62v-4.74c0-1.58.73-2.37,2.2-2.37s2.2.79,2.2,2.37v4.74h4.62c1.5,0,2.25.68,2.25,2.03s-.75,1.97-2.25,1.97h-.79c-.15,2.63-.56,6.43-1.24,11.39h2.59c1.47,0,2.2.68,2.2,2.03s-.73,2.03-2.2,2.03h-5.36ZM486.53,110.4h-5.3l1.01,11.39h3.27l1.01-11.39Z"/>
    <path class="cls-2" d="M500.06,127.19c0-.6,1.18-2.18,3.55-4.74,3.04-3.27,5.79-7.95,8.23-14.04.45-1.09.9-1.91,1.35-2.45.45-.54.98-.82,1.58-.82,1.47,0,2.2.66,2.2,1.97,0,.79-.34,2.01-1.01,3.66-.68,1.65-1.67,3.65-2.99,5.98-2.86,5.11-5.67,9.02-8.46,11.73-.49.45-.9.78-1.24.99-.34.21-.68.31-1.01.31-1.47,0-2.2-.86-2.2-2.59ZM542.68,147.66l-1.63-2.82-.9.11-2.09.28c-.68.07-2.59.31-5.75.7s-6.76.78-10.82,1.16l-15.9,1.35c-.9.07-1.59-.11-2.06-.56-.47-.45-.71-1.11-.71-1.97s.28-1.45.85-1.86c.64-.41,2.22-.62,4.74-.62l1.92-.06c3.23-6.05,6.05-12.93,8.46-20.63.41-1.39,1.28-2.09,2.59-2.09.49,0,1.09.23,1.8.68.45.56.68,1.07.68,1.52,0,.19-.06.42-.17.7s-.19.48-.23.59c-2.71,7.97-5.52,14.32-8.46,19.05l23.79-1.8c-2.33-3.23-4.13-5.56-5.41-6.99-1.32-1.43-1.97-2.44-1.97-3.04,0-1.24.71-1.86,2.14-1.86,1.09,0,2.99,1.67,5.69,5.02,2.56,3.08,4.77,5.94,6.65,8.57,1.5,2.07,2.25,3.61,2.25,4.62,0,1.54-.87,2.31-2.59,2.31-.98,0-1.94-.79-2.88-2.37ZM545.13,127.73c-1.45-1.11-3.13-2.81-5.05-5.1-3.8-4.55-6.18-9.25-7.16-14.09-.34-1.8-1.11-2.72-2.31-2.76h-5.81c-1.73,0-2.59-.75-2.59-2.25s.86-2.2,2.59-2.2h7.1c2.71,0,4.3,1.41,4.79,4.23,1.47,7.97,5.36,13.98,11.67,18.04,1.84,1.17,2.76,2.26,2.76,3.27,0,1.69-.75,2.54-2.26,2.54-1.05,0-2.3-.55-3.75-1.66Z"/>
    <path class="cls-2" d="M608.69,146.7c0,.71-.21,1.24-.62,1.58-.41.34-1.09.51-2.03.51h-45.27c-.94,0-1.62-.17-2.03-.51-.41-.34-.62-.86-.62-1.58,0-1.39.88-2.09,2.65-2.09h20.35v-6.09h-16.07c-1.65,0-2.48-.68-2.48-2.03s.83-2.09,2.48-2.09h16.07v-5.52l-16.46.9c-1.62.11-2.42-.64-2.42-2.25,0-1.35.81-2.03,2.42-2.03l7.55-.11,3.38-7.16h-8.46c-1.5,0-2.25-.68-2.25-2.03s.75-2.03,2.25-2.03h32.36c1.54,0,2.31.68,2.31,2.03s-.77,2.03-2.31,2.03h-18.72l-4,7.05,17.76-.45-2.31-1.8c-.6-.49-1.04-.87-1.32-1.16-.28-.28-.42-.55-.42-.82,0-.53.13-.94.39-1.24.26-.3.62-.45,1.07-.45s.96.11,1.52.34c.56.23,1.28.6,2.14,1.13l3.95,2.59c1.95,1.28,3.43,2.4,4.42,3.35,1,.96,1.49,1.66,1.49,2.11,0,1.47-.77,2.2-2.31,2.2-.75,0-2.27-1.03-4.57-3.1l-1.86.06-11.16.62v5.75h16.18c.86,0,1.48.17,1.86.51.38.34.56.87.56,1.58,0,1.35-.81,2.03-2.42,2.03h-16.18v6.09h20.46c1.77,0,2.65.69,2.65,2.09ZM558.69,115.86v-5.52c0-1.88.43-3.26,1.3-4.14.86-.88,2.25-1.29,4.17-1.21h16.57v-3.16c0-1.69.86-2.54,2.59-2.54s2.48.85,2.48,2.54v3.16h16.63c1.99,0,3.44.43,4.34,1.3.9.86,1.28,2.22,1.13,4.06v5.52c0,.98-.19,1.7-.56,2.17-.38.47-.96.71-1.75.71-1.46,0-2.2-.96-2.2-2.88v-4.12c0-1.58-.85-2.4-2.54-2.48h-35.12c-1.58,0-2.41.83-2.48,2.48v4.12c0,1.92-.77,2.88-2.31,2.88s-2.25-.96-2.25-2.88Z"/>
  </g>
  <g>
    <path class="cls-2" d="M216.47,178.08c-1.38-.82-2.46-1.95-3.24-3.4-.77-1.45-1.18-3.1-1.21-4.97.04-1.86.43-3.52,1.2-4.95.76-1.46,1.86-2.59,3.28-3.41,1.42-.82,3.05-1.23,4.9-1.23s3.51.41,4.93,1.23c1.38.82,2.46,1.95,3.24,3.41.77,1.46,1.18,3.11,1.21,4.95-.04,1.85-.44,3.49-1.2,4.93-.78,1.47-1.88,2.62-3.29,3.44s-3.04,1.23-4.89,1.23-3.51-.41-4.93-1.23ZM225.08,176.02c1.03-.62,1.82-1.48,2.38-2.57.56-1.09.84-2.34.84-3.74s-.28-2.63-.83-3.73c-.57-1.12-1.38-1.99-2.42-2.61-1.05-.62-2.26-.93-3.65-.93s-2.66.32-3.68.96c-1.03.62-1.82,1.48-2.38,2.57-.56,1.09-.84,2.34-.84,3.74s.27,2.63.83,3.73c.57,1.14,1.37,2.01,2.41,2.62,1.04.61,2.26.92,3.66.92s2.66-.32,3.68-.96Z"/>
    <path class="cls-2" d="M235.67,178.81c-.24-.24-.36-.53-.36-.87v-10.42h-1.54c-.28,0-.53-.11-.75-.32-.21-.21-.32-.46-.32-.75,0-.3.11-.55.32-.76.21-.2.46-.31.75-.31h1.54v-1.52c0-1.08.2-1.96.59-2.64.36-.66.84-1.15,1.45-1.48.61-.33,1.27-.49,1.98-.49.8,0,1.57.18,2.32.53.43.25.64.57.64.96,0,.27-.1.51-.31.72-.2.21-.44.32-.71.32-.2,0-.4-.03-.61-.08l-.72-.08c-.78,0-1.34.18-1.66.53-.33.36-.49.95-.49,1.78v1.44h8.02v-1.52c0-1.08.2-1.96.59-2.64.36-.66.84-1.15,1.45-1.48.61-.33,1.27-.49,1.98-.49.8,0,1.57.18,2.32.53.43.25.64.57.64.96,0,.27-.1.51-.31.72-.2.21-.44.32-.71.32-.2,0-.4-.03-.61-.08l-.72-.08c-.78,0-1.34.18-1.67.53-.33.36-.49.95-.49,1.78v1.44h8.07c.36,0,.65.12.89.36.24.24.36.54.36.89v11.29c0,.34-.12.63-.37.87s-.54.36-.88.36-.63-.12-.87-.36c-.24-.24-.36-.53-.36-.87v-10.42h-6.85v10.42c0,.34-.12.63-.37.87s-.54.36-.88.36-.63-.12-.87-.36c-.24-.24-.36-.53-.36-.87v-10.42h-8.02v10.42c0,.34-.12.63-.37.87s-.54.36-.88.36-.63-.12-.87-.36ZM255.32,162.27c-.28-.28-.41-.6-.41-.97v-.11c0-.37.14-.7.41-.97s.6-.41.97-.41h.16c.37,0,.7.14.97.41s.41.6.41.97v.11c0,.37-.14.7-.41.97s-.6.41-.97.41h-.16c-.37,0-.7-.14-.97-.41Z"/>
    <path class="cls-2" d="M264.53,178.45c-1.12-.59-2-1.42-2.64-2.5-.64-1.08-.96-2.33-.96-3.73s.33-2.7.99-3.78c.64-1.05,1.5-1.86,2.57-2.44,1.07-.58,2.27-.87,3.58-.87.89,0,1.67.11,2.34.33.67.22,1.35.54,2.02.95.35.25.53.57.53.96,0,.27-.11.52-.32.75-.21.23-.45.35-.72.35-.18,0-.37-.05-.59-.16-.62-.32-1.14-.54-1.54-.67-.41-.12-.91-.19-1.52-.19-1.49,0-2.68.43-3.56,1.29-.88.86-1.32,2.02-1.32,3.48s.44,2.61,1.32,3.48,2.06,1.29,3.56,1.29c.6,0,1.11-.06,1.52-.19.41-.12.92-.35,1.54-.67.21-.11.41-.16.59-.16.27,0,.51.12.72.35.21.23.32.48.32.75,0,.39-.18.71-.53.96-.68.41-1.35.72-2.02.95-.68.22-1.46.33-2.34.33-1.26,0-2.44-.28-3.54-.85Z"/>
    <path class="cls-2" d="M276.85,177.44c-1.22-1.24-1.83-2.98-1.83-5.22,0-1.21.23-2.37.69-3.49.48-1.12,1.21-2,2.18-2.64s2.15-.96,3.52-.96,2.46.3,3.44.91c.92.6,1.64,1.42,2.16,2.44.51,1.02.77,2.15.77,3.4,0,.34-.12.63-.35.87s-.53.36-.91.36h-9c.16,1.26.63,2.22,1.42,2.89s1.86,1,3.21,1c.71,0,1.35-.07,1.91-.2.56-.13,1.12-.34,1.69-.63.12-.07.28-.11.48-.11.28,0,.54.1.76.31s.33.46.33.76c0,.41-.24.75-.72,1.01-.75.41-1.46.71-2.13.89s-1.52.28-2.53.28c-2.18,0-3.88-.62-5.1-1.86ZM285.31,170.72c-.07-.71-.28-1.31-.64-1.79-.39-.57-.88-.99-1.45-1.28-.58-.28-1.18-.43-1.8-.43-.57,0-1.16.13-1.79.4-.62.3-1.11.75-1.48,1.35-.36.6-.57,1.29-.63,2.09h7.46c.23,0,.34-.12.32-.35Z"/>
    <path class="cls-2" d="M301.34,178.42c-1.03-.6-1.83-1.45-2.4-2.53-.57-1.08-.85-2.31-.85-3.68s.28-2.62.85-3.7,1.37-1.92,2.41-2.5c1.04-.59,2.23-.88,3.58-.88s2.54.29,3.57.88c1.05.6,1.86,1.44,2.42,2.52.57,1.07.85,2.3.85,3.69s-.29,2.61-.85,3.68c-.59,1.1-1.4,1.94-2.44,2.53s-2.22.88-3.56.88-2.57-.29-3.6-.88ZM307.04,176.53c.69-.35,1.24-.9,1.65-1.64.41-.74.61-1.64.61-2.7,0-1.12-.21-2.02-.64-2.72-.39-.67-.91-1.19-1.56-1.55-.65-.35-1.37-.53-2.17-.53-.73,0-1.43.16-2.1.48-.69.36-1.24.9-1.65,1.62-.41.73-.61,1.62-.61,2.69,0,1.14.21,2.05.64,2.74.39.69.91,1.22,1.56,1.57.65.36,1.37.53,2.17.53.73,0,1.43-.17,2.1-.51Z"/>
    <path class="cls-2" d="M316.35,178.81c-.24-.24-.36-.53-.36-.87v-10.42h-1.54c-.28,0-.53-.11-.75-.32-.21-.21-.32-.46-.32-.75,0-.3.11-.55.32-.76.21-.2.46-.31.75-.31h1.54v-1.52c0-1.08.2-1.96.59-2.64.36-.66.84-1.15,1.45-1.48.61-.33,1.27-.49,1.98-.49.8,0,1.57.18,2.32.53.43.25.64.57.64.96,0,.27-.1.51-.31.72-.2.21-.44.32-.71.32-.2,0-.4-.03-.61-.08l-.72-.08c-.78,0-1.34.18-1.66.53-.33.36-.49.95-.49,1.78v1.44h3.3c.3,0,.55.1.76.31.2.2.31.46.31.76,0,.28-.1.53-.31.75-.21.21-.46.32-.76.32h-3.3v10.42c0,.34-.12.63-.37.87s-.54.36-.88.36-.63-.12-.87-.36Z"/>
    <path class="cls-2" d="M340.42,177.17c.2.2.29.43.29.69,0,.41-.21.73-.64.96-.69.32-1.43.48-2.21.48-2.61,0-3.92-1.18-3.92-3.54v-8.1h-1.33c-.34,0-.6-.09-.79-.28s-.28-.45-.28-.79.09-.6.28-.79.45-.28.79-.28h1.33v-1.89c0-.41.11-.72.33-.93.22-.21.53-.32.92-.32s.69.11.91.33c.21.22.32.53.32.92v1.89h2.98c.3,0,.55.1.76.31s.31.46.31.76c0,.28-.1.53-.31.75-.2.21-.46.32-.76.32h-2.98v7.88c0,.62.14,1.04.43,1.25s.71.32,1.28.32c.37,0,.73-.05,1.07-.16.04,0,.06,0,.08-.03.18-.04.33-.05.45-.05.27,0,.5.1.69.29Z"/>
    <path class="cls-2" d="M343.68,178.81c-.24-.24-.36-.53-.36-.87v-17.29c0-.34.12-.63.36-.88.24-.25.53-.37.87-.37s.63.12.88.37c.25.25.37.54.37.88v6.87c.73-.78,1.48-1.38,2.26-1.78.78-.41,1.67-.61,2.66-.61s1.84.23,2.58.69c.71.46,1.26,1.09,1.64,1.89s.57,1.69.57,2.66v7.57c0,.34-.12.63-.37.87-.25.24-.54.36-.88.36s-.63-.12-.87-.36c-.24-.24-.36-.53-.36-.87v-7.3c0-2.15-.97-3.22-2.9-3.22-.85,0-1.62.21-2.3.64s-1.36,1.06-2.04,1.89v7.99c0,.34-.12.63-.37.87-.25.24-.54.36-.88.36s-.63-.12-.87-.36Z"/>
    <path class="cls-2" d="M360.55,177.44c-1.22-1.24-1.83-2.98-1.83-5.22,0-1.21.23-2.37.69-3.49.48-1.12,1.21-2,2.18-2.64s2.15-.96,3.52-.96,2.46.3,3.44.91c.92.6,1.64,1.42,2.16,2.44.51,1.02.77,2.15.77,3.4,0,.34-.12.63-.35.87s-.53.36-.91.36h-9c.16,1.26.63,2.22,1.42,2.89s1.86,1,3.21,1c.71,0,1.35-.07,1.91-.2.56-.13,1.12-.34,1.69-.63.12-.07.28-.11.48-.11.28,0,.54.1.76.31s.33.46.33.76c0,.41-.24.75-.72,1.01-.75.41-1.46.71-2.13.89s-1.52.28-2.53.28c-2.18,0-3.88-.62-5.1-1.86ZM369,170.72c-.07-.71-.28-1.31-.64-1.79-.39-.57-.88-.99-1.45-1.28-.58-.28-1.18-.43-1.8-.43-.57,0-1.16.13-1.79.4-.62.3-1.11.75-1.48,1.35-.36.6-.57,1.29-.63,2.09h7.46c.23,0,.34-.12.32-.35Z"/>
    <path class="cls-2" d="M383.45,178.81c-.24-.24-.36-.53-.36-.87v-16.3c0-.34.12-.63.36-.88.24-.25.53-.37.87-.37h10.36c.32,0,.59.12.83.35.23.23.35.51.35.83s-.12.59-.35.81c-.23.22-.51.33-.83.33h-8.79c-.21,0-.32.11-.32.32v5.51h8.18c.32,0,.59.12.83.35.23.23.35.51.35.83s-.12.59-.35.81c-.23.22-.51.33-.83.33h-8.18v7.09c0,.34-.12.63-.37.87-.25.24-.54.36-.88.36s-.63-.12-.87-.36Z"/>
    <path class="cls-2" d="M398.72,162.27c-.28-.28-.41-.6-.41-.97v-.11c0-.37.14-.7.41-.97s.6-.41.97-.41h.16c.37,0,.7.14.97.41s.41.6.41.97v.11c0,.37-.14.7-.41.97s-.6.41-.97.41h-.16c-.37,0-.7-.14-.97-.41ZM398.88,178.81c-.24-.24-.36-.53-.36-.87v-11.43c0-.34.12-.63.36-.88.24-.25.53-.37.87-.37.36,0,.65.12.89.36.24.24.36.54.36.89v11.43c0,.34-.12.63-.37.87-.25.24-.54.36-.88.36s-.63-.12-.87-.36Z"/>
    <path class="cls-2" d="M405.51,178.81c-.24-.24-.36-.53-.36-.87v-11.43c0-.34.12-.63.36-.88.24-.25.53-.37.87-.37s.63.12.88.37c.25.25.37.54.37.88v1.07c1.23-1.63,2.61-2.45,4.16-2.45h.13c.34,0,.62.12.85.36.23.24.35.53.35.87s-.12.62-.36.84c-.24.22-.54.33-.89.33h-.13c-.83,0-1.6.2-2.3.6-.7.4-1.3.97-1.8,1.72v8.1c0,.34-.12.63-.37.87-.25.24-.54.36-.88.36s-.63-.12-.87-.36Z"/>
    <path class="cls-2" d="M414.9,178.1c-.3-.21-.45-.51-.45-.91,0-.28.1-.54.31-.76.2-.22.46-.33.76-.33.18,0,.34.04.48.11.6.27,1.19.47,1.76.6.57.13,1.19.2,1.86.2,1.95,0,2.93-.62,2.93-1.86,0-.39-.21-.69-.64-.91-.44-.21-1.19-.45-2.24-.72-1.03-.23-1.89-.49-2.58-.77-.76-.28-1.38-.71-1.84-1.28-.46-.57-.69-1.27-.69-2.1,0-1.26.46-2.28,1.39-3.06.92-.78,2.2-1.17,3.84-1.17,1.42,0,2.71.22,3.86.67.25.07.44.2.59.4.14.2.21.41.21.64,0,.28-.11.54-.32.76-.21.22-.47.33-.77.33l-.35-.05c-1.07-.32-2.08-.48-3.04-.48s-1.66.17-2.21.51c-.55.34-.83.78-.83,1.33,0,.52.24.9.72,1.15.52.23,1.29.47,2.32.72.96.25,1.81.51,2.56.77.73.28,1.31.72,1.76,1.29.44.58.67,1.3.67,2.17,0,1.15-.46,2.1-1.38,2.85-.92.75-2.18,1.12-3.78,1.12-1.76,0-3.38-.4-4.88-1.2Z"/>
    <path class="cls-2" d="M435.3,177.17c.2.2.29.43.29.69,0,.41-.21.73-.64.96-.69.32-1.43.48-2.21.48-2.61,0-3.92-1.18-3.92-3.54v-8.1h-1.33c-.34,0-.6-.09-.79-.28s-.28-.45-.28-.79.09-.6.28-.79.45-.28.79-.28h1.33v-1.89c0-.41.11-.72.33-.93.22-.21.53-.32.92-.32s.69.11.91.33c.21.22.32.53.32.92v1.89h2.98c.3,0,.55.1.76.31s.31.46.31.76c0,.28-.1.53-.31.75-.2.21-.46.32-.76.32h-2.98v7.88c0,.62.14,1.04.43,1.25s.71.32,1.28.32c.37,0,.73-.05,1.07-.16.04,0,.06,0,.08-.03.18-.04.33-.05.45-.05.27,0,.5.1.69.29Z"/>
    <path class="cls-2" d="M438.26,172.32c-.21-.21-.32-.47-.32-.77,0-.32.1-.59.31-.8.2-.21.47-.32.79-.32h5.04c.3,0,.56.11.79.33.22.22.33.48.33.79,0,.32-.11.58-.32.79-.21.2-.48.31-.8.31h-5.04c-.3,0-.56-.11-.77-.32Z"/>
    <path class="cls-2" d="M452.89,178.81c-.25-.24-.37-.53-.37-.87v-6.79l-6.37-8.9c-.14-.28-.21-.53-.21-.75,0-.34.12-.63.35-.88.23-.25.51-.37.85-.37.46,0,.83.2,1.09.61l5.54,8.07,5.54-8.07c.27-.41.63-.61,1.09-.61.32,0,.6.12.84.36.24.24.36.52.36.84,0,.21-.07.48-.21.8l-6.39,8.9v6.79c0,.34-.12.63-.36.87-.24.24-.53.36-.87.36s-.63-.12-.88-.36Z"/>
    <path class="cls-2" d="M463.34,177.44c-1.22-1.24-1.83-2.98-1.83-5.22,0-1.21.23-2.37.69-3.49.48-1.12,1.21-2,2.18-2.64s2.15-.96,3.52-.96,2.46.3,3.44.91c.92.6,1.64,1.42,2.16,2.44.51,1.02.77,2.15.77,3.4,0,.34-.12.63-.35.87s-.53.36-.91.36h-9c.16,1.26.63,2.22,1.42,2.89s1.86,1,3.21,1c.71,0,1.35-.07,1.91-.2.56-.13,1.12-.34,1.69-.63.12-.07.28-.11.48-.11.28,0,.54.1.76.31s.33.46.33.76c0,.41-.24.75-.72,1.01-.75.41-1.46.71-2.13.89s-1.52.28-2.53.28c-2.18,0-3.88-.62-5.1-1.86ZM471.8,170.72c-.07-.71-.28-1.31-.64-1.79-.39-.57-.88-.99-1.45-1.28-.58-.28-1.18-.43-1.8-.43-.57,0-1.16.13-1.79.4-.62.3-1.11.75-1.48,1.35-.36.6-.57,1.29-.63,2.09h7.46c.23,0,.34-.12.32-.35Z"/>
    <path class="cls-2" d="M478.75,178.82c-.69-.32-1.23-.79-1.62-1.41-.39-.62-.59-1.33-.59-2.13,0-1.38.54-2.45,1.61-3.21,1.07-.75,2.59-1.13,4.54-1.13h3.2v-.19c0-1.14-.28-1.97-.84-2.49-.56-.52-1.46-.79-2.7-.79-.64,0-1.22.05-1.73.15-.52.1-1.12.26-1.81.49l-.35.05c-.27,0-.5-.1-.71-.31-.21-.2-.31-.45-.31-.73,0-.5.24-.84.72-1.04,1.49-.64,3.03-.96,4.61-.96,1.23,0,2.27.25,3.14.75.82.48,1.43,1.11,1.84,1.9.41.79.61,1.67.61,2.62v7.54c0,.34-.12.63-.37.87-.25.24-.54.36-.88.36s-.63-.12-.87-.36c-.24-.24-.36-.53-.36-.87v-.64c-1.28,1.33-2.94,2-4.98,2-.76,0-1.48-.16-2.16-.48ZM484.04,176.57c.72-.36,1.34-.84,1.85-1.42v-2.21h-2.88c-2.66,0-4,.69-4,2.08s.93,2.1,2.8,2.1c.76,0,1.51-.18,2.22-.55Z"/>
    <path class="cls-2" d="M492.75,178.81c-.24-.24-.36-.53-.36-.87v-11.43c0-.34.12-.63.36-.88.24-.25.53-.37.87-.37s.63.12.88.37c.25.25.37.54.37.88v1.07c1.23-1.63,2.61-2.45,4.16-2.45h.13c.34,0,.62.12.85.36.23.24.35.53.35.87s-.12.62-.36.84c-.24.22-.54.33-.89.33h-.13c-.83,0-1.6.2-2.3.6-.7.4-1.3.97-1.8,1.72v8.1c0,.34-.12.63-.37.87-.25.24-.54.36-.88.36s-.63-.12-.87-.36Z"/>
    <path class="cls-2" d="M510.61,178.02c-.21-.09-.4-.24-.55-.45-.15-.21-.23-.44-.23-.67,0-.32.11-.59.32-.81.21-.22.48-.33.8-.33.19,0,.36.04.51.11,1.65.73,3.4,1.09,5.25,1.09,3.09,0,4.64-1.01,4.64-3.04,0-.53-.2-.97-.59-1.31-.36-.34-.8-.6-1.33-.8-.53-.19-1.41-.45-2.64-.77-1.4-.35-2.57-.72-3.49-1.09-1.08-.41-1.9-.98-2.45-1.72-.55-.74-.83-1.61-.83-2.62s.27-1.94.8-2.8c.55-.87,1.36-1.54,2.44-2,1.07-.46,2.3-.69,3.69-.69,1.95,0,3.72.29,5.3.88.51.2.77.56.77,1.09,0,.28-.11.55-.32.79s-.47.36-.77.36c-.12,0-.27-.04-.43-.11-1.38-.48-2.81-.72-4.29-.72s-2.56.27-3.42.8c-.86.53-1.29,1.27-1.29,2.21,0,.64.21,1.15.64,1.52.39.37.88.67,1.46.91.59.23,1.47.48,2.64.75,1.49.36,2.63.69,3.41,1.01.94.36,1.7.91,2.28,1.65.58.75.87,1.69.87,2.82,0,.98-.28,1.87-.85,2.69-.59.82-1.4,1.44-2.44,1.88-1.04.43-2.22.65-3.56.65-2.26,0-4.37-.43-6.34-1.28Z"/>
    <path class="cls-2" d="M533.68,177.17c.2.2.29.43.29.69,0,.41-.21.73-.64.96-.69.32-1.43.48-2.21.48-2.61,0-3.92-1.18-3.92-3.54v-8.1h-1.33c-.34,0-.6-.09-.79-.28s-.28-.45-.28-.79.09-.6.28-.79.45-.28.79-.28h1.33v-1.89c0-.41.11-.72.33-.93.22-.21.53-.32.92-.32s.69.11.91.33c.21.22.32.53.32.92v1.89h2.98c.3,0,.55.1.76.31s.31.46.31.76c0,.28-.1.53-.31.75-.2.21-.46.32-.76.32h-2.98v7.88c0,.62.14,1.04.43,1.25s.71.32,1.28.32c.37,0,.73-.05,1.07-.16.04,0,.06,0,.08-.03.18-.04.33-.05.45-.05.27,0,.5.1.69.29Z"/>
    <path class="cls-2" d="M538.69,178.61c-.71-.46-1.26-1.09-1.65-1.89-.39-.8-.59-1.69-.59-2.66v-7.57c0-.34.12-.63.37-.87s.54-.36.88-.36.63.12.87.36c.24.24.36.53.36.87v7.3c0,2.15.97,3.22,2.9,3.22.85,0,1.62-.21,2.3-.64.68-.43,1.36-1.06,2.04-1.89v-7.99c0-.34.12-.63.37-.87s.54-.36.88-.36.63.12.87.36c.24.24.36.53.36.87v11.43c0,.34-.12.63-.36.88-.24.25-.53.37-.87.37s-.63-.12-.88-.37c-.25-.25-.37-.54-.37-.88v-1.01c-.73.78-1.48,1.38-2.26,1.78-.78.41-1.67.61-2.66.61s-1.81-.23-2.56-.69Z"/>
    <path class="cls-2" d="M555.33,178.45c-1.03-.57-1.85-1.4-2.45-2.49-.6-1.09-.91-2.34-.91-3.74s.31-2.7.93-3.78c.6-1.07,1.39-1.88,2.37-2.45s2.03-.85,3.17-.85c1.74,0,3.25.67,4.53,2v-6.47c0-.35.12-.65.37-.89.25-.24.54-.36.88-.36s.63.12.87.37c.24.25.36.54.36.88v17.29c0,.34-.12.63-.36.87-.24.24-.53.36-.87.36s-.63-.12-.88-.36c-.25-.24-.37-.53-.37-.87v-.64c-1.28,1.33-2.79,2-4.53,2-1.08,0-2.12-.28-3.12-.85ZM561.05,176.45c.72-.35,1.36-.83,1.93-1.44v-5.59c-.57-.6-1.21-1.08-1.93-1.44-.72-.35-1.47-.53-2.25-.53-1.35,0-2.41.42-3.18,1.27-.77.84-1.16,2.01-1.16,3.5s.39,2.66,1.16,3.5,1.83,1.27,3.18,1.27c.78,0,1.53-.18,2.25-.53Z"/>
    <path class="cls-2" d="M570.61,177.44c-1.22-1.24-1.83-2.98-1.83-5.22,0-1.21.23-2.37.69-3.49.48-1.12,1.21-2,2.18-2.64s2.15-.96,3.52-.96,2.46.3,3.44.91c.92.6,1.64,1.42,2.16,2.44.51,1.02.77,2.15.77,3.4,0,.34-.12.63-.35.87s-.53.36-.91.36h-9c.16,1.26.63,2.22,1.42,2.89s1.86,1,3.21,1c.71,0,1.35-.07,1.91-.2.56-.13,1.12-.34,1.69-.63.12-.07.28-.11.48-.11.28,0,.54.1.76.31s.33.46.33.76c0,.41-.24.75-.72,1.01-.75.41-1.46.71-2.13.89s-1.52.28-2.53.28c-2.18,0-3.88-.62-5.1-1.86ZM579.07,170.72c-.07-.71-.28-1.31-.64-1.79-.39-.57-.88-.99-1.45-1.28-.58-.28-1.18-.43-1.8-.43-.57,0-1.16.13-1.79.4-.62.3-1.11.75-1.48,1.35-.36.6-.57,1.29-.63,2.09h7.46c.23,0,.34-.12.32-.35Z"/>
    <path class="cls-2" d="M585.05,178.81c-.24-.24-.36-.53-.36-.87v-11.43c0-.34.12-.63.36-.88.24-.25.53-.37.87-.37s.63.12.88.37c.25.25.37.54.37.88v1.01c.73-.78,1.48-1.38,2.26-1.78.78-.41,1.67-.61,2.66-.61s1.84.23,2.58.69c.71.46,1.26,1.09,1.64,1.89s.57,1.69.57,2.66v7.57c0,.34-.12.63-.37.87-.25.24-.54.36-.88.36s-.63-.12-.87-.36c-.24-.24-.36-.53-.36-.87v-7.3c0-2.15-.97-3.22-2.9-3.22-.85,0-1.62.21-2.3.64s-1.36,1.06-2.04,1.89v7.99c0,.34-.12.63-.37.87-.25.24-.54.36-.88.36s-.63-.12-.87-.36Z"/>
    <path class="cls-2" d="M607.86,177.17c.2.2.29.43.29.69,0,.41-.21.73-.64.96-.69.32-1.43.48-2.21.48-2.61,0-3.92-1.18-3.92-3.54v-8.1h-1.33c-.34,0-.6-.09-.79-.28s-.28-.45-.28-.79.09-.6.28-.79.45-.28.79-.28h1.33v-1.89c0-.41.11-.72.33-.93.22-.21.53-.32.92-.32s.69.11.91.33c.21.22.32.53.32.92v1.89h2.98c.3,0,.55.1.76.31s.31.46.31.76c0,.28-.1.53-.31.75-.2.21-.46.32-.76.32h-2.98v7.88c0,.62.14,1.04.43,1.25s.71.32,1.28.32c.37,0,.73-.05,1.07-.16.04,0,.06,0,.08-.03.18-.04.33-.05.45-.05.27,0,.5.1.69.29Z"/>
  </g>
  <g>
    <path class="cls-1" d="M79.37,0H11.34C5.08,0,0,5.08,0,11.34v77.95c0,.78.63,1.42,1.42,1.42h41.81v-42.59c0-3.98,2.12-5.34,2.12-5.34,0,0,2.13,1.36,2.13,5.34v42.59h41.81c.78,0,1.42-.63,1.42-1.42V11.34c0-6.26-5.08-11.34-11.34-11.34"/>
    <path class="cls-1" d="M94.96,11.34h0v68.03c0,6.26,5.08,11.34,11.34,11.34h77.95c.78,0,1.42-.63,1.42-1.42v-41.81h-42.59c-3.98,0-5.34-2.12-5.34-2.12,0,0,1.36-2.13,5.34-2.13h42.59V1.42C185.67.63,185.03,0,184.25,0h-77.95C100.04,0,94.96,5.08,94.96,11.34"/>
    <path class="cls-1" d="M106.3,185.67h68.03c6.26,0,11.34-5.08,11.34-11.34v-77.95c0-.78-.63-1.42-1.42-1.42h-41.81v42.59c0,3.98-2.12,5.34-2.12,5.34,0,0-2.13-1.36-2.13-5.34v-42.59h-41.81c-.78,0-1.42.64-1.42,1.42v77.95c0,6.26,5.08,11.34,11.34,11.34"/>
    <path class="cls-1" d="M71.86,138.19h18.85v-41.81c0-.78-.63-1.42-1.42-1.42h-41.81v18.85c0,3.98-2.12,5.24-2.12,5.24,0,0-2.13-1.26-2.13-5.24v-18.85H1.42c-.78,0-1.42.63-1.42,1.42v87.87c0,.78.63,1.42,1.42,1.42h41.81v-18.85c0-3.98,2.13-5.24,2.13-5.24,0,0,2.13,1.26,2.13,5.24v18.85h41.81c.78,0,1.42-.63,1.42-1.42v-41.81h-18.85c-3.98,0-5.24-2.13-5.24-2.13,0,0,1.26-2.13,5.24-2.13"/>
  </g>
  <path class="cls-3" d="M73.99,84.02c.6,4.7-1.07,9.04-4.08,12.05v.02s-.14.12-.14.12l-20.93,20.92c-1.89,1.89-4.95,1.89-6.84,0l-21.35-21.35c-2.54-2.61-4.09-6.18-4.07-10.11.04-7.54,6.14-13.92,13.67-14.28,6.37-.31,11.89,3.54,14.08,9.07.38.96,1.68.96,2.07,0,2.35-5.72,8.28-9.6,15-8.83s11.74,5.92,12.57,12.38Z"/>
</svg>
